<?xml version="1.0" encoding="UTF-8"?>
<svg width="18px" height="17px" viewBox="0 0 18 17" version="1.1" xmlns="http://www.w3.org/2000/svg" xmlns:xlink="http://www.w3.org/1999/xlink">
    <!-- Generator: Sketch 52.3 (67297) - http://www.bohemiancoding.com/sketch -->
    <title>Fill 1</title>
    <desc>Created with Sketch.</desc>
    <g id="Page-1" stroke="none" stroke-width="1" fill="none" fill-rule="evenodd">
        <g id="Security-Assesment---Suspicious" transform="translate(-579.000000, -589.000000)" fill="#DC0000">
            <path d="M586.602,599.777393 L589.002,599.777393 L589.002,594.92025 L586.602,594.92025 L586.602,599.777393 Z M587.802,603.42025 C587.1396,603.42025 586.602,602.87625 586.602,602.205964 C586.602,601.535679 587.1396,600.991679 587.802,600.991679 C588.4644,600.991679 589.002,601.535679 589.002,602.205964 C589.002,602.87625 588.4644,603.42025 587.802,603.42025 Z M596.4612,604.062607 L588.8604,589.642964 C588.4092,588.785679 587.1948,588.785679 586.7424,589.642964 L579.1428,604.062607 C578.7168,604.871321 579.2964,605.848821 580.2024,605.848821 L595.4028,605.848821 C596.3076,605.848821 596.8872,604.871321 596.4612,604.062607 Z" id="Fill-1"></path>
        </g>
    </g>
</svg>