<?xml version="1.0" encoding="UTF-8"?>
<svg width="292px" height="46px" viewBox="0 0 292 46" version="1.1" xmlns="http://www.w3.org/2000/svg" xmlns:xlink="http://www.w3.org/1999/xlink">
    <!-- Generator: Sketch 52.5 (67469) - http://www.bohemiancoding.com/sketch -->
    <title>Group</title>
    <desc>Created with Sketch.</desc>
    <g id="Page-1" stroke="none" stroke-width="1" fill="none" fill-rule="evenodd">
        <g id="Insurance-Login" transform="translate(-545.000000, -173.000000)">
            <g id="Group-2" transform="translate(545.000000, 173.000000)">
                <g id="Group">
                    <path d="M60.827,14.294 L69.121,14.294 C70.3583395,14.294 71.3926625,14.4486651 72.224,14.758 C73.0553375,15.0673349 73.7223308,15.4733308 74.225,15.976 C74.7276692,16.4786692 75.0901656,17.0538301 75.3125,17.7015 C75.5348344,18.3491699 75.646,19.0016634 75.646,19.659 C75.646,20.2196695 75.5493343,20.7513308 75.356,21.254 C75.1626657,21.7566692 74.8871685,22.2013314 74.5295,22.588 C74.1718315,22.9746686 73.7465025,23.2984987 73.2535,23.5595 C72.7604975,23.8205013 72.2143363,23.9896663 71.615,24.067 L71.673,24.125 C71.808334,24.1056666 72.1273308,24.163666 72.63,24.299 C73.1326692,24.434334 73.6594972,24.6904981 74.2105,25.0675 C74.7615028,25.4445019 75.2544978,25.9664967 75.6895,26.6335 C76.1245022,27.3005033 76.342,28.1559948 76.342,29.2 C76.342,30.1473381 76.1680017,30.9786631 75.82,31.694 C75.4719983,32.4093369 74.9838365,33.0134975 74.3555,33.5065 C73.7271635,33.9995025 72.9683378,34.3716654 72.079,34.623 C71.1896622,34.8743346 70.2036721,35 69.121,35 L60.827,35 L60.827,14.294 Z M69.121,23.69 C70.8803421,23.69 72.1949956,23.2985039 73.065,22.5155 C73.9350043,21.7324961 74.37,20.7030064 74.37,19.427 C74.37,18.6729962 74.2250014,18.0398359 73.935,17.5275 C73.6449985,17.0151641 73.2583357,16.5995016 72.775,16.2805 C72.2916642,15.9614984 71.7358365,15.734334 71.1075,15.599 C70.4791635,15.463666 69.8170035,15.396 69.121,15.396 L62.103,15.396 L62.103,23.69 L69.121,23.69 Z M69.121,33.898 C70.9770093,33.898 72.4318281,33.5065039 73.4855,32.7235 C74.5391719,31.9404961 75.066,30.7660078 75.066,29.2 C75.066,28.3106622 74.8823352,27.5808362 74.515,27.0105 C74.1476648,26.4401638 73.6788362,25.9906683 73.1085,25.662 C72.5381638,25.3333317 71.9001702,25.1061673 71.1945,24.9805 C70.4888298,24.8548327 69.79767,24.792 69.121,24.792 L62.103,24.792 L62.103,33.898 L69.121,33.898 Z M79.155,17.281 L79.155,14.294 L80.257,14.294 L80.257,17.281 L79.155,17.281 Z M79.155,35 L79.155,20.094 L80.257,20.094 L80.257,35 L79.155,35 Z M96.091,20.094 L96.091,34.217 C96.091,35.0483375 95.9943343,35.8554961 95.801,36.6385 C95.6076657,37.4215039 95.274169,38.1126637 94.8005,38.712 C94.326831,39.3113363 93.6743375,39.7898315 92.843,40.1475 C92.0116625,40.5051685 90.9580064,40.684 89.682,40.684 C88.8893294,40.684 88.1450035,40.6018342 87.449,40.4375 C86.7529965,40.2731658 86.1440026,40.0121685 85.622,39.6545 C85.0999974,39.2968315 84.6795016,38.8231696 84.3605,38.2335 C84.0414984,37.6438304 83.8626669,36.9140044 83.824,36.044 L84.926,36.044 C84.9840003,36.7013366 85.148332,37.2619977 85.419,37.726 C85.689668,38.1900023 86.0424978,38.5718318 86.4775,38.8715 C86.9125022,39.1711682 87.400664,39.388666 87.942,39.524 C88.483336,39.659334 89.0633302,39.727 89.682,39.727 C90.7066718,39.727 91.5621632,39.5723349 92.2485,39.263 C92.9348368,38.9536651 93.480998,38.5525025 93.887,38.0595 C94.293002,37.5664975 94.5781658,37.0058365 94.7425,36.3775 C94.9068342,35.7491635 94.989,35.1160032 94.989,34.478 L94.989,31.056 L94.931,31.056 C94.4089974,32.1580055 93.6985045,32.9989971 92.7995,33.579 C91.9004955,34.1590029 90.8130064,34.449 89.537,34.449 C88.4349945,34.449 87.4828373,34.2605019 86.6805,33.8835 C85.8781627,33.5064981 85.2111693,32.9845033 84.6795,32.3175 C84.1478307,31.6504967 83.7515013,30.8723378 83.4905,29.983 C83.2294987,29.0936622 83.099,28.1270052 83.099,27.083 C83.099,26.0969951 83.2391653,25.1593378 83.5195,24.27 C83.7998347,23.3806622 84.210664,22.6025033 84.752,21.9355 C85.293336,21.2684967 85.9651627,20.7368353 86.7675,20.3405 C87.5698373,19.9441647 88.4929948,19.746 89.537,19.746 C90.7163392,19.746 91.8038284,20.0456637 92.7995,20.645 C93.7951716,21.2443363 94.5056645,22.0949945 94.931,23.197 L94.989,23.197 L94.989,20.094 L96.091,20.094 Z M89.537,20.703 C88.6283288,20.703 87.8405033,20.8866648 87.1735,21.254 C86.5064967,21.6213352 85.9555022,22.1046637 85.5205,22.704 C85.0854978,23.3033363 84.7568344,23.9848295 84.5345,24.7485 C84.3121656,25.5121705 84.201,26.2903294 84.201,27.083 C84.201,27.9530044 84.3121656,28.7794961 84.5345,29.5625 C84.7568344,30.3455039 85.0951644,31.0269971 85.5495,31.607 C86.0038356,32.1870029 86.5644967,32.646165 87.2315,32.9845 C87.8985033,33.322835 88.6669956,33.492 89.537,33.492 C90.4456712,33.492 91.2383299,33.3180017 91.915,32.97 C92.59167,32.6219983 93.1571644,32.1483363 93.6115,31.549 C94.0658356,30.9496637 94.4041656,30.2681705 94.6265,29.5045 C94.8488344,28.7408295 94.96,27.9336709 94.96,27.083 C94.96,26.2516625 94.8488344,25.4493372 94.6265,24.676 C94.4041656,23.9026628 94.0658356,23.2211696 93.6115,22.6315 C93.1571644,22.0418304 92.59167,21.5730017 91.915,21.225 C91.2383299,20.8769983 90.4456712,20.703 89.537,20.703 Z M102.732,23.197 L108.242,23.197 C109.808008,23.197 110.934163,22.9215028 111.6205,22.3705 C112.306837,21.8194972 112.65,20.9930055 112.65,19.891 C112.65,19.1563297 112.534001,18.5763355 112.302,18.151 C112.069999,17.7256645 111.751002,17.3970012 111.345,17.165 C110.938998,16.9329988 110.470169,16.783167 109.9385,16.7155 C109.406831,16.647833 108.841336,16.614 108.242,16.614 L102.732,16.614 L102.732,23.197 Z M99.977,14.294 L107.488,14.294 C107.932669,14.294 108.411164,14.2988333 108.9235,14.3085 C109.435836,14.3181667 109.943331,14.3471664 110.446,14.3955 C110.948669,14.4438336 111.417498,14.5163329 111.8525,14.613 C112.287502,14.7096672 112.659665,14.8546657 112.969,15.048 C113.64567,15.454002 114.220831,16.0146631 114.6945,16.73 C115.168169,17.4453369 115.405,18.3249948 115.405,19.369 C115.405,20.4710055 115.139169,21.4231627 114.6075,22.2255 C114.075831,23.0278373 113.317005,23.6223314 112.331,24.009 L112.331,24.067 C113.607006,24.337668 114.58333,24.9176622 115.26,25.807 C115.93667,26.6963378 116.275,27.7789936 116.275,29.055 C116.275,29.8090038 116.139668,30.5436631 115.869,31.259 C115.598332,31.9743369 115.197169,32.6074972 114.6655,33.1585 C114.133831,33.7095028 113.476504,34.154165 112.6935,34.4925 C111.910496,34.830835 111.006672,35 109.982,35 L99.977,35 L99.977,14.294 Z M102.732,32.68 L109.634,32.68 C110.852006,32.68 111.804163,32.3513366 112.4905,31.694 C113.176837,31.0366634 113.52,30.1280058 113.52,28.968 C113.52,28.29133 113.394335,27.7306689 113.143,27.286 C112.891665,26.8413311 112.558169,26.4885013 112.1425,26.2275 C111.726831,25.9664987 111.248336,25.7828339 110.707,25.6765 C110.165664,25.5701661 109.605003,25.517 109.025,25.517 L102.732,25.517 L102.732,32.68 Z M119.581,14.294 L122.046,14.294 L122.046,35 L119.581,35 L119.581,14.294 Z M138.286,35 L135.966,35 L135.966,32.622 L135.908,32.622 C135.385997,33.5500046 134.719004,34.2314978 133.907,34.6665 C133.094996,35.1015022 132.138006,35.319 131.036,35.319 C130.049995,35.319 129.228337,35.1885013 128.571,34.9275 C127.913663,34.6664987 127.382002,34.2943358 126.976,33.811 C126.569998,33.3276643 126.284834,32.7525033 126.1205,32.0855 C125.956166,31.4184967 125.874,30.6790041 125.874,29.867 L125.874,20.007 L128.339,20.007 L128.339,30.157 C128.339,31.0850046 128.609664,31.819664 129.151,32.361 C129.692336,32.902336 130.436662,33.173 131.384,33.173 C132.138004,33.173 132.790497,33.0570012 133.3415,32.825 C133.892503,32.5929988 134.351665,32.2643355 134.719,31.839 C135.086335,31.4136645 135.361832,30.9158362 135.5455,30.3455 C135.729168,29.7751638 135.821,29.1516701 135.821,28.475 L135.821,20.007 L138.286,20.007 L138.286,35 Z M152.409,26.068 C152.370333,25.4879971 152.239834,24.9370026 152.0175,24.415 C151.795166,23.8929974 151.495502,23.4435019 151.1185,23.0665 C150.741498,22.6894981 150.296836,22.3898344 149.7845,22.1675 C149.272164,21.9451656 148.70667,21.834 148.088,21.834 C147.449997,21.834 146.874836,21.9451656 146.3625,22.1675 C145.850164,22.3898344 145.410335,22.6943314 145.043,23.081 C144.675665,23.4676686 144.385668,23.9171641 144.173,24.4295 C143.960332,24.9418359 143.834667,25.4879971 143.796,26.068 L152.409,26.068 Z M154.787,30.244 C154.458332,31.9260084 153.733339,33.1923291 152.612,34.043 C151.490661,34.8936709 150.079342,35.319 148.378,35.319 C147.179327,35.319 146.140171,35.1256686 145.2605,34.739 C144.380829,34.3523314 143.641336,33.8110035 143.042,33.115 C142.442664,32.4189965 141.993168,31.5876715 141.6935,30.621 C141.393832,29.6543285 141.224667,28.6006724 141.186,27.46 C141.186,26.3193276 141.359998,25.2753381 141.708,24.328 C142.056002,23.3806619 142.544164,22.5590035 143.1725,21.863 C143.800836,21.1669965 144.545162,20.6256686 145.4055,20.239 C146.265838,19.8523314 147.208328,19.659 148.233,19.659 C149.567007,19.659 150.673829,19.9344972 151.5535,20.4855 C152.433171,21.0365028 153.138831,21.7373291 153.6705,22.588 C154.202169,23.4386709 154.569499,24.3666616 154.7725,25.372 C154.975501,26.3773384 155.057667,27.3343288 155.019,28.243 L143.796,28.243 C143.776667,28.9003366 143.853999,29.5238304 144.028,30.1135 C144.202001,30.7031696 144.482331,31.2251644 144.869,31.6795 C145.255669,32.1338356 145.748664,32.496332 146.348,32.767 C146.947336,33.037668 147.652996,33.173 148.465,33.173 C149.509005,33.173 150.364497,32.9313358 151.0315,32.448 C151.698503,31.9646643 152.138332,31.2300049 152.351,30.244 L154.787,30.244 Z M157.716,14.294 L162.269,14.294 L162.269,35 L157.716,35 L157.716,14.294 Z M165.836,20.007 L169.751,20.007 L169.751,22.095 L169.838,22.095 C170.360003,21.2249957 171.036663,20.5918353 171.868,20.1955 C172.699337,19.7991647 173.549996,19.601 174.42,19.601 C175.522006,19.601 176.42583,19.7508318 177.1315,20.0505 C177.83717,20.3501682 178.392998,20.7658307 178.799,21.2975 C179.205002,21.8291693 179.490166,22.4768295 179.6545,23.2405 C179.818834,24.0041705 179.901,24.8499954 179.901,25.778 L179.901,35 L175.783,35 L175.783,26.532 C175.783,25.2946605 175.589669,24.371503 175.203,23.7625 C174.816331,23.153497 174.130005,22.849 173.144,22.849 C172.022661,22.849 171.210669,23.1824967 170.708,23.8495 C170.205331,24.5165033 169.954,25.613659 169.954,27.141 L169.954,35 L165.836,35 L165.836,20.007 Z M186.223,30.128 C186.223,30.5726689 186.314832,30.9544984 186.4985,31.2735 C186.682168,31.5925016 186.918999,31.853499 187.209,32.0565 C187.499001,32.259501 187.832498,32.4093329 188.2095,32.506 C188.586502,32.6026672 188.977998,32.651 189.384,32.651 C189.674001,32.651 189.978498,32.617167 190.2975,32.5495 C190.616502,32.481833 190.906499,32.3755007 191.1675,32.2305 C191.428501,32.0854993 191.645999,31.8921679 191.82,31.6505 C191.994001,31.4088321 192.081,31.1043352 192.081,30.737 C192.081,30.1183302 191.670171,29.6543349 190.8485,29.345 C190.026829,29.0356651 188.881341,28.7263349 187.412,28.417 C186.812664,28.281666 186.227836,28.1221676 185.6575,27.9385 C185.087164,27.7548324 184.579669,27.5131682 184.135,27.2135 C183.690331,26.9138318 183.332668,26.5368356 183.062,26.0825 C182.791332,25.6281644 182.656,25.0723366 182.656,24.415 C182.656,23.4483285 182.844498,22.6556698 183.2215,22.037 C183.598502,21.4183302 184.09633,20.9301685 184.715,20.5725 C185.33367,20.2148315 186.029663,19.9635007 186.803,19.8185 C187.576337,19.6734993 188.368996,19.601 189.181,19.601 C189.993004,19.601 190.78083,19.6783326 191.5445,19.833 C192.30817,19.9876674 192.989664,20.2486648 193.589,20.616 C194.188336,20.9833352 194.686165,21.471497 195.0825,22.0805 C195.478835,22.689503 195.715666,23.4579954 195.793,24.386 L191.878,24.386 C191.82,23.5933294 191.520336,23.0568347 190.979,22.7765 C190.437664,22.4961653 189.79967,22.356 189.065,22.356 C188.832999,22.356 188.581668,22.3704999 188.311,22.3995 C188.040332,22.4285001 187.793834,22.4913329 187.5715,22.588 C187.349166,22.6846672 187.160667,22.8248324 187.006,23.0085 C186.851333,23.1921676 186.774,23.4386651 186.774,23.748 C186.774,24.1153352 186.909332,24.4149988 187.18,24.647 C187.450668,24.8790012 187.803498,25.0674993 188.2385,25.2125 C188.673502,25.3575007 189.171331,25.4879994 189.732,25.604 C190.292669,25.7200006 190.862997,25.845666 191.443,25.981 C192.042336,26.116334 192.627164,26.2806657 193.1975,26.474 C193.767836,26.6673343 194.275331,26.9234984 194.72,27.2425 C195.164669,27.5615016 195.522332,27.957831 195.793,28.4315 C196.063668,28.905169 196.199,29.4899965 196.199,30.186 C196.199,31.1720049 196.000835,31.9984967 195.6045,32.6655 C195.208165,33.3325033 194.691003,33.868998 194.053,34.275 C193.414997,34.681002 192.685171,34.9661658 191.8635,35.1305 C191.041829,35.2948342 190.205671,35.377 189.355,35.377 C188.484996,35.377 187.634337,35.2900009 186.803,35.116 C185.971663,34.9419991 185.23217,34.652002 184.5845,34.246 C183.93683,33.839998 183.405169,33.3035033 182.9895,32.6365 C182.573831,31.9694967 182.346667,31.1333384 182.308,30.128 L186.223,30.128 Z M212.671,35 L208.756,35 L208.756,32.912 L208.669,32.912 C208.146997,33.7820044 207.470337,34.4103314 206.639,34.797 C205.807663,35.1836686 204.957004,35.377 204.087,35.377 C202.984994,35.377 202.08117,35.2320015 201.3755,34.942 C200.66983,34.6519986 200.114002,34.2411693 199.708,33.7095 C199.301998,33.1778307 199.016834,32.5301705 198.8525,31.7665 C198.688166,31.0028295 198.606,30.1570046 198.606,29.229 L198.606,20.007 L202.724,20.007 L202.724,28.475 C202.724,29.7123395 202.917331,30.635497 203.304,31.2445 C203.690669,31.853503 204.376995,32.158 205.363,32.158 C206.484339,32.158 207.296331,31.8245033 207.799,31.1575 C208.301669,30.4904967 208.553,29.393341 208.553,27.866 L208.553,20.007 L212.671,20.007 L212.671,35 Z M215.803,20.007 L219.718,20.007 L219.718,22.791 L219.776,22.791 C219.969334,22.3269977 220.230332,21.8968353 220.559,21.5005 C220.887668,21.1041647 221.264665,20.7658347 221.69,20.4855 C222.115335,20.2051653 222.569664,19.9876674 223.053,19.833 C223.536336,19.6783326 224.038997,19.601 224.561,19.601 C224.831668,19.601 225.131332,19.6493329 225.46,19.746 L225.46,23.574 C225.266666,23.5353331 225.034668,23.5015001 224.764,23.4725 C224.493332,23.4434999 224.232335,23.429 223.981,23.429 C223.226996,23.429 222.589003,23.5546654 222.067,23.806 C221.544997,24.0573346 221.124502,24.4004978 220.8055,24.8355 C220.486498,25.2705022 220.259334,25.7779971 220.124,26.358 C219.988666,26.9380029 219.921,27.56633 219.921,28.243 L219.921,35 L215.803,35 L215.803,20.007 Z M226.91,24.618 C226.968,23.6513285 227.209665,22.8490032 227.635,22.211 C228.060335,21.5729968 228.601663,21.0606686 229.259,20.674 C229.916337,20.2873314 230.655829,20.0118342 231.4775,19.8475 C232.299171,19.6831658 233.125663,19.601 233.957,19.601 C234.711004,19.601 235.474663,19.6541661 236.248,19.7605 C237.021337,19.8668339 237.726997,20.0746651 238.365,20.384 C239.003003,20.6933349 239.524998,21.1234972 239.931,21.6745 C240.337002,22.2255028 240.54,22.9553288 240.54,23.864 L240.54,31.665 C240.54,32.3416701 240.578666,32.9893302 240.656,33.608 C240.733334,34.2266698 240.868666,34.6906651 241.062,35 L236.886,35 C236.808666,34.7679988 236.745834,34.5311679 236.6975,34.2895 C236.649166,34.0478321 236.615333,33.8013346 236.596,33.55 C235.938663,34.2266701 235.165338,34.700332 234.276,34.971 C233.386662,35.241668 232.478005,35.377 231.55,35.377 C230.834663,35.377 230.16767,35.2900009 229.549,35.116 C228.93033,34.9419991 228.389002,34.6713352 227.925,34.304 C227.460998,33.9366648 227.098501,33.4726695 226.8375,32.912 C226.576499,32.3513305 226.446,31.6843372 226.446,30.911 C226.446,30.0603291 226.595832,29.3595028 226.8955,28.8085 C227.195168,28.2574972 227.581831,27.8176683 228.0555,27.489 C228.529169,27.1603317 229.070497,26.9138342 229.6795,26.7495 C230.288503,26.5851658 230.90233,26.4546672 231.521,26.358 C232.13967,26.2613329 232.748664,26.1840003 233.348,26.126 C233.947336,26.0679997 234.478998,25.9810006 234.943,25.865 C235.407002,25.7489994 235.774332,25.5798344 236.045,25.3575 C236.315668,25.1351656 236.441333,24.8113355 236.422,24.386 C236.422,23.9413311 236.349501,23.5885013 236.2045,23.3275 C236.059499,23.0664987 235.866168,22.8635007 235.6245,22.7185 C235.382832,22.5734993 235.102502,22.4768336 234.7835,22.4285 C234.464498,22.3801664 234.121335,22.356 233.754,22.356 C232.941996,22.356 232.304002,22.5299983 231.84,22.878 C231.375998,23.2260017 231.105334,23.8059959 231.028,24.618 L226.91,24.618 Z M236.422,27.663 C236.247999,27.8176674 236.030501,27.9384996 235.7695,28.0255 C235.508499,28.1125004 235.228168,28.1849997 234.9285,28.243 C234.628832,28.3010003 234.314668,28.3493331 233.986,28.388 C233.657332,28.4266669 233.328668,28.4749997 233,28.533 C232.690665,28.5910003 232.386168,28.6683329 232.0865,28.765 C231.786832,28.8616672 231.525834,28.9921658 231.3035,29.1565 C231.081166,29.3208342 230.902334,29.5286654 230.767,29.78 C230.631666,30.0313346 230.564,30.3503314 230.564,30.737 C230.564,31.1043352 230.631666,31.4136654 230.767,31.665 C230.902334,31.9163346 231.085999,32.1144993 231.318,32.2595 C231.550001,32.4045007 231.820665,32.5059997 232.13,32.564 C232.439335,32.6220003 232.758332,32.651 233.087,32.651 C233.899004,32.651 234.527331,32.515668 234.972,32.245 C235.416669,31.974332 235.745332,31.6505019 235.958,31.2735 C236.170668,30.8964981 236.301166,30.5146686 236.3495,30.128 C236.397834,29.7413314 236.422,29.4320012 236.422,29.2 L236.422,27.663 Z M243.73,20.007 L247.645,20.007 L247.645,22.095 L247.732,22.095 C248.254003,21.2249957 248.930663,20.5918353 249.762,20.1955 C250.593337,19.7991647 251.443996,19.601 252.314,19.601 C253.416006,19.601 254.31983,19.7508318 255.0255,20.0505 C255.73117,20.3501682 256.286998,20.7658307 256.693,21.2975 C257.099002,21.8291693 257.384166,22.4768295 257.5485,23.2405 C257.712834,24.0041705 257.795,24.8499954 257.795,25.778 L257.795,35 L253.677,35 L253.677,26.532 C253.677,25.2946605 253.483669,24.371503 253.097,23.7625 C252.710331,23.153497 252.024005,22.849 251.038,22.849 C249.916661,22.849 249.104669,23.1824967 248.602,23.8495 C248.099331,24.5165033 247.848,25.613659 247.848,27.141 L247.848,35 L243.73,35 L243.73,20.007 Z M271.135,25.285 C270.864332,23.5643247 269.849342,22.704 268.09,22.704 C267.432663,22.704 266.881669,22.8538318 266.437,23.1535 C265.992331,23.4531682 265.629835,23.839831 265.3495,24.3135 C265.069165,24.787169 264.871001,25.3091638 264.755,25.8795 C264.638999,26.4498362 264.581,27.0153305 264.581,27.576 C264.581,28.117336 264.638999,28.6683305 264.755,29.229 C264.871001,29.7896695 265.059499,30.2971644 265.3205,30.7515 C265.581501,31.2058356 265.934331,31.5779986 266.379,31.868 C266.823669,32.1580015 267.364997,32.303 268.003,32.303 C268.989005,32.303 269.747831,32.0275028 270.2795,31.4765 C270.811169,30.9254972 271.144666,30.1860046 271.28,29.258 L275.253,29.258 C274.982332,31.2493433 274.209006,32.7669948 272.933,33.811 C271.656994,34.8550052 270.023343,35.377 268.032,35.377 C266.910661,35.377 265.881171,35.1885019 264.9435,34.8115 C264.005829,34.4344981 263.208337,33.9076701 262.551,33.231 C261.893663,32.55433 261.381335,31.7471714 261.014,30.8095 C260.646665,29.8718286 260.463,28.8423389 260.463,27.721 C260.463,26.5609942 260.632165,25.4831716 260.9705,24.4875 C261.308835,23.4918284 261.806663,22.6315036 262.464,21.9065 C263.121337,21.1814964 263.923662,20.616002 264.871,20.21 C265.818338,19.803998 266.900994,19.601 268.119,19.601 C269.008338,19.601 269.863829,19.7169988 270.6855,19.949 C271.507171,20.1810012 272.24183,20.533831 272.8895,21.0075 C273.53717,21.481169 274.063998,22.0708298 274.47,22.7765 C274.876002,23.4821702 275.108,24.3183285 275.166,25.285 L271.135,25.285 Z M287.665,25.894 C287.471666,24.8499948 287.128502,24.057336 286.6355,23.516 C286.142498,22.974664 285.393338,22.704 284.388,22.704 C283.730663,22.704 283.184502,22.8151656 282.7495,23.0375 C282.314498,23.2598344 281.966501,23.5353317 281.7055,23.864 C281.444499,24.1926683 281.260834,24.5406648 281.1545,24.908 C281.048166,25.2753352 280.985333,25.6039986 280.966,25.894 L287.665,25.894 Z M280.966,28.504 C281.024,29.8380067 281.36233,30.8046637 281.981,31.404 C282.59967,32.0033363 283.488994,32.303 284.649,32.303 C285.480337,32.303 286.195664,32.0951687 286.795,31.6795 C287.394336,31.2638313 287.761666,30.8240023 287.897,30.36 L291.522,30.36 C290.941997,32.158009 290.052673,33.4436628 288.854,34.217 C287.655327,34.9903372 286.205342,35.377 284.504,35.377 C283.324661,35.377 282.261338,35.1885019 281.314,34.8115 C280.366662,34.4344981 279.564337,33.8980035 278.907,33.202 C278.249663,32.5059965 277.742168,31.6746715 277.3845,30.708 C277.026832,29.7413285 276.848,28.6780058 276.848,27.518 C276.848,26.3966611 277.031665,25.3526715 277.399,24.386 C277.766335,23.4193285 278.28833,22.5831702 278.965,21.8775 C279.64167,21.1718298 280.448829,20.616002 281.3865,20.21 C282.324171,19.803998 283.363328,19.601 284.504,19.601 C285.780006,19.601 286.891662,19.8474975 287.839,20.3405 C288.786338,20.8335025 289.564497,21.4956625 290.1735,22.327 C290.782503,23.1583375 291.222332,24.1056614 291.493,25.169 C291.763668,26.2323387 291.860334,27.3439942 291.783,28.504 L280.966,28.504 Z" id="BigBlueInsurance" fill="#212121"></path>
                    <g id="Group-3">
                        <polygon id="Fill-1" fill="#5AAAFA" points="19.3512546 0.000118494424 0 19.3524187 0 45.6956343 6.50453067 45.6956343 6.50453067 22.047493 23.9507435 4.60058318"></polygon>
                        <polygon id="Fill-2" fill="#01478D" points="30.6450395 0.000118494424 7.98588522 22.662177 7.98588522 45.6956343 42.0130925 45.6956343 42.0127904 22.6615962 30.6455739 11.2951696 26.0458295 15.8945655 35.5087941 25.3574837 35.5087941 39.1914057 14.4899047 39.1914057 14.4901603 25.3556018 30.6455739 9.20030437 43.4925999 22.047493 43.4925999 45.6956343 49.9971306 45.6956343 49.9971306 19.3532551"></polygon>
                    </g>
                </g>
            </g>
        </g>
    </g>
</svg>