<?xml version="1.0" encoding="UTF-8"?>
<svg width="16px" height="16px" viewBox="0 0 16 16" version="1.1" xmlns="http://www.w3.org/2000/svg" xmlns:xlink="http://www.w3.org/1999/xlink">
    <!-- Generator: Sketch 52.4 (67378) - http://www.bohemiancoding.com/sketch -->
    <title>Fill 1 Copy 8</title>
    <desc>Created with Sketch.</desc>
    <g id="Page-1" stroke="none" stroke-width="1" fill="none" fill-rule="evenodd">
        <g id="Manage-Payees" transform="translate(-1218.000000, -452.000000)" fill="#5AAAFA">
            <path d="M1230,458.6 L1227.4,456 L1229,454.4 L1231.6,457 L1230,458.6 Z M1222.6,466 L1220,466 L1220,463.4 L1226,457.4 L1228.6,460 L1222.6,466 Z M1229.7,452.3 C1229.3,451.9 1228.7,451.9 1228.3,452.3 L1218.3,462.3 C1218.1,462.5 1218,462.7 1218,463 L1218,467 C1218,467.6 1218.4,468 1219,468 L1223,468 C1223.3,468 1223.5,467.9 1223.7,467.7 L1233.7,457.7 C1234.1,457.3 1234.1,456.7 1233.7,456.3 L1229.7,452.3 Z" id="Fill-1-Copy-8"></path>
        </g>
    </g>
</svg>