<?xml version="1.0" encoding="UTF-8"?>
<svg width="14px" height="16px" viewBox="0 0 14 16" version="1.1" xmlns="http://www.w3.org/2000/svg" xmlns:xlink="http://www.w3.org/1999/xlink">
    <!-- Generator: Sketch 52.4 (67378) - http://www.bohemiancoding.com/sketch -->
    <title>Fill 1</title>
    <desc>Created with Sketch.</desc>
    <g id="Page-1" stroke="none" stroke-width="1" fill="none" fill-rule="evenodd">
        <g id="Manage-Payees" transform="translate(-784.000000, -361.000000)" fill="#5AAAFA">
            <path d="M796,375 L786,375 L786,374.26 C786,373.429 786.534,372.691 787.33,372.422 C789.175,371.798 790.33,370.986 790.782,370 L791.218,370 C791.67,370.986 792.825,371.798 794.671,372.422 C795.466,372.69 796,373.429 796,374.26 L796,375 Z M789,365 C789,363.897 789.897,363 791,363 C792.103,363 793,363.897 793,365 L793,366 C793,367.103 792.103,368 791,368 C789.897,368 789,367.103 789,366 L789,365 Z M795.311,370.527 C794.15,370.134 793.461,369.702 793.168,369.352 C794.268,368.639 795,367.406 795,366 L795,365 C795,362.794 793.206,361 791,361 C788.794,361 787,362.794 787,365 L787,366 C787,367.406 787.732,368.639 788.832,369.352 C788.54,369.702 787.851,370.134 786.69,370.527 C785.081,371.07 784,372.57 784,374.26 L784,377 L798,377 L798,374.26 C798,372.57 796.919,371.07 795.311,370.527 Z" id="Fill-1"></path>
        </g>
    </g>
</svg>