<?xml version="1.0" encoding="UTF-8"?>
<svg width="22px" height="26px" viewBox="0 0 22 26" version="1.1" xmlns="http://www.w3.org/2000/svg" xmlns:xlink="http://www.w3.org/1999/xlink">
    <!-- Generator: Sketch 52.3 (67297) - http://www.bohemiancoding.com/sketch -->
    <title>Combined Shape</title>
    <desc>Created with Sketch.</desc>
    <g id="Page-1" stroke="none" stroke-width="1" fill="none" fill-rule="evenodd">
        <g id="Security-Assesment---All-OK" transform="translate(-168.000000, -343.000000)" fill="#5AAAFA">
            <path d="M187,364.666667 L183,364.666667 C182.448,364.666667 182,364.181333 182,363.583333 L182,354.916667 C182,354.318667 182.448,353.833333 183,353.833333 L187,353.833333 C187.552,353.833333 188,354.318667 188,354.916667 L188,363.583333 C188,364.181333 187.552,364.666667 187,364.666667 M188,351.666667 C189.103,351.666667 190,352.638417 190,353.833333 L190,366.833333 C190,368.02825 189.103,369 188,369 L182,369 C180.897,369 180,368.02825 180,366.833333 L180,353.833333 C180,352.638417 180.897,351.666667 182,351.666667 L188,351.666667 Z M178,361.416667 L178,366.833333 L170,366.833333 C168.895,366.833333 168,365.86375 168,364.666667 L168,345.166667 C168,343.969583 168.895,343 170,343 L184,343 C185.105,343 186,343.969583 186,345.166667 L186,349.5 L184,349.5 L184,346.25 C184,345.652 183.552,345.166667 183,345.166667 L171,345.166667 C170.448,345.166667 170,345.652 170,346.25 L170,360.333333 C170,360.931333 170.448,361.416667 171,361.416667 L178,361.416667 Z" id="Combined-Shape"></path>
        </g>
    </g>
</svg>