<?xml version="1.0" encoding="UTF-8"?>
<svg width="22px" height="23px" viewBox="0 0 22 23" version="1.1" xmlns="http://www.w3.org/2000/svg" xmlns:xlink="http://www.w3.org/1999/xlink">
    <!-- Generator: Sketch 52.6 (67491) - http://www.bohemiancoding.com/sketch -->
    <title>Group 5</title>
    <desc>Created with Sketch.</desc>
    <g id="Page-1" stroke="none" stroke-width="1" fill="none" fill-rule="evenodd">
        <g id="ecommerce-home" transform="translate(-1183.000000, -60.000000)" stroke="#444444">
            <g id="Group-5" transform="translate(1184.000000, 60.000000)">
                <path d="M7.1768,14.4971 L1.4708,17.9181 C0.8688,18.2791 0.4998,18.9301 0.4998,19.6321 L0.4998,22.5001 L20.4998,22.5001 L20.4998,19.6321 C20.4998,18.9291 20.1308,18.2781 19.5298,17.9171 L13.8228,14.4961" id="Stroke-1"></path>
                <path d="M10.5,15.5 C7.186,15.5 4.5,12.814 4.5,9.5 L4.5,6.5 C4.5,3.186 7.186,0.5 10.5,0.5 C13.814,0.5 16.5,3.186 16.5,6.5 L16.5,9.5 C16.5,12.814 13.814,15.5 10.5,15.5 Z" id="Stroke-3" stroke-linecap="square"></path>
            </g>
        </g>
    </g>
</svg>