<svg id="Logotype" xmlns="http://www.w3.org/2000/svg" width="150" height="16" viewBox="0 0 150 16"><defs><style>.cls-1{fill:#fff;}</style></defs><rect class="cls-1" width="150" height="16"/><polygon points="0.5 12.628 0.5 11.448 2.159 11.448 2.159 2.04 0.5 2.04 0.5 0.86 5.241 0.86 5.241 2.04 3.581 2.04 3.581 11.448 5.241 11.448 5.241 12.628 0.5 12.628"/><path d="M7.0753.86h4.86a3.15,3.15,0,0,1,2.3112.8261,2.96,2.96,0,0,1,.8381,2.2085,2.9409,2.9409,0,0,1-.1862,1.1128,2.3066,2.3066,0,0,1-.474.75,1.911,1.911,0,0,1-.6266.4385,2.9034,2.9034,0,0,1-.6265.1938v.1016a2.4019,2.4019,0,0,1,.72.1685,2.3407,2.3407,0,0,1,.7536.48,2.753,2.753,0,0,1,.6011.8428,2.8647,2.8647,0,0,1,.2454,1.2393,3.8852,3.8852,0,0,1-.2288,1.3486,3.311,3.311,0,0,1-.6348,1.0791,2.9657,2.9657,0,0,1-.9652.7168,2.8414,2.8414,0,0,1-1.2194.2612H7.0753ZM8.498,5.9517h3.2676a1.9194,1.9194,0,0,0,1.321-.4219,1.5389,1.5389,0,0,0,.4741-1.2139V3.7427a1.5409,1.5409,0,0,0-.4741-1.2139,1.9212,1.9212,0,0,0-1.321-.4214H8.498Zm0,5.4287h3.5051a2.0967,2.0967,0,0,0,1.4393-.4639A1.7152,1.7152,0,0,0,13.9673,9.56V8.9863a1.7177,1.7177,0,0,0-.5249-1.3574,2.099,2.099,0,0,0-1.4393-.4634H8.498Z"/><polygon points="27.344 2.714 27.26 2.714 26.26 4.687 23.432 9.813 20.605 4.687 19.606 2.714 19.521 2.714 19.521 12.628 18.133 12.628 18.133 0.86 20.029 0.86 23.416 7.199 23.5 7.199 26.904 0.86 28.733 0.86 28.733 12.628 27.344 12.628 27.344 2.714"/><path d="M38.08,12.8306a5.9607,5.9607,0,0,1-2.6416-.5318,6.0312,6.0312,0,0,1-1.8459-1.3764l1.6934-1.7046a3.8285,3.8285,0,0,0,2.9632,1.3364,2.1522,2.1522,0,0,0,1.4056-.3843,1.2653,1.2653,0,0,0,.4569-1.02,1.2262,1.2262,0,0,0-.2707-.81A1.7475,1.7475,0,0,0,38.74,7.8975l-1.1685-.15A4.5257,4.5257,0,0,1,34.82,6.6162a3.2618,3.2618,0,0,1-.8719-2.38,3.4083,3.4083,0,0,1,.3045-1.4516,3.2145,3.2145,0,0,1,.8723-1.1314A4.07,4.07,0,0,1,36.5132.9189a6.7906,6.7906,0,0,1,4.2246.1607A4.7851,4.7851,0,0,1,42.482,2.3125l-1.71,1.7227a3.4191,3.4191,0,0,0-1.0244-.793,3.3038,3.3038,0,0,0-1.5155-.3086,2.2333,2.2333,0,0,0-1.2868.3.9656.9656,0,0,0-.4233.8345,1.0521,1.0521,0,0,0,.33.8676,2.3009,2.3009,0,0,0,1.0757.3838l1.168.1856a4.9916,4.9916,0,0,1,2.7095,1.1225,3.1149,3.1149,0,0,1,.88,2.3711,3.887,3.887,0,0,1-.3044,1.5528,3.3275,3.3275,0,0,1-.889,1.2153,4.0988,4.0988,0,0,1-1.4476.7847A6.3989,6.3989,0,0,1,38.08,12.8306Z"/><path d="M48.4254,12.8306a4.7122,4.7122,0,0,1-1.8122-.3291,3.7417,3.7417,0,0,1-1.3459-.9273,3.8979,3.8979,0,0,1-.83-1.4585,6.201,6.201,0,0,1-.2791-1.9219,6.2333,6.2333,0,0,1,.2708-1.8969,4.0227,4.0227,0,0,1,.8044-1.458,3.5613,3.5613,0,0,1,1.3123-.9361,4.5346,4.5346,0,0,1,1.778-.3286,4.402,4.402,0,0,1,1.8879.3711,3.5565,3.5565,0,0,1,1.2868.9946,4.0094,4.0094,0,0,1,.7282,1.4414,6.3265,6.3265,0,0,1,.2287,1.7115v.7417H46.7491v.1338a1.9449,1.9449,0,0,0,.474,1.3794,1.9448,1.9448,0,0,0,1.49.51,2.3459,2.3459,0,0,0,1.27-.31,4.972,4.972,0,0,0,.9144-.7441l1.2531,1.5552a3.9521,3.9521,0,0,1-1.5493,1.082A5.738,5.738,0,0,1,48.4254,12.8306Zm-.0508-7.4185a1.499,1.499,0,0,0-1.194.4971,1.9491,1.9491,0,0,0-.4315,1.3237v.1348h3.1156V7.2158a2.1635,2.1635,0,0,0-.3641-1.3066A1.3041,1.3041,0,0,0,48.3746,5.4121Z"/><path d="M57.8568,12.8306a4.5344,4.5344,0,0,1-1.7779-.3291,3.5333,3.5333,0,0,1-1.304-.9273,3.9984,3.9984,0,0,1-.7956-1.4585,6.3722,6.3722,0,0,1-.2713-1.9219A6.2914,6.2914,0,0,1,53.9793,6.28a4.097,4.097,0,0,1,.7956-1.4585,3.4089,3.4089,0,0,1,1.304-.9273,4.6448,4.6448,0,0,1,1.7779-.32,3.9733,3.9733,0,0,1,2.26.607,3.3252,3.3252,0,0,1,1.2956,1.7031l-2.0321.8764a1.6962,1.6962,0,0,0-.4912-.86,1.4368,1.4368,0,0,0-1.0327-.354,1.3758,1.3758,0,0,0-1.1514.4956,2.1045,2.1045,0,0,0-.3895,1.3364v1.647a2.1024,2.1024,0,0,0,.3895,1.3359,1.3747,1.3747,0,0,0,1.1514.4961,1.4347,1.4347,0,0,0,1.109-.3965,2.6266,2.6266,0,0,0,.55-.9355l1.9475.8428A3.478,3.478,0,0,1,60.1,12.2354,4.0545,4.0545,0,0,1,57.8568,12.8306Z"/><path d="M68.3043,11.1445H68.22a3.1038,3.1038,0,0,1-.3133.6407,2.1708,2.1708,0,0,1-.4995.54,2.3519,2.3519,0,0,1-.72.3706,3.0963,3.0963,0,0,1-.9569.1353,2.4682,2.4682,0,0,1-2.0741-.9024A4.1336,4.1336,0,0,1,62.9533,9.34V3.7764H65.46V9.1211a2.2669,2.2669,0,0,0,.2878,1.2476,1.0848,1.0848,0,0,0,.9824.4384,2.0226,2.0226,0,0,0,.5752-.0844,1.6231,1.6231,0,0,0,.5083-.2442,1.2627,1.2627,0,0,0,.3557-.3965,1.1008,1.1008,0,0,0,.1354-.5561V3.7764H70.81v8.8515H68.3043Z"/><path d="M73.1808,12.6279V3.7764h2.5067V5.6987h.0841a2.72,2.72,0,0,1,.2375-.7168,2.1732,2.1732,0,0,1,.4486-.6152,2.104,2.104,0,0,1,.6686-.43,2.4017,2.4017,0,0,1,.9149-.16h.44V6.103h-.6266A3.5863,3.5863,0,0,0,76.22,6.39a1.0978,1.0978,0,0,0-.5327,1.0625v5.1758Z"/><path d="M81.3088,2.8325a1.5234,1.5234,0,0,1-1.1094-.3457,1.195,1.195,0,0,1-.347-.8852V1.231a1.1951,1.1951,0,0,1,.347-.8853,1.9515,1.9515,0,0,1,2.2179,0,1.195,1.195,0,0,1,.3469.8853v.3706a1.1949,1.1949,0,0,1-.3469.8852A1.521,1.521,0,0,1,81.3088,2.8325Zm-1.2531.9439h2.5062v8.8515H80.0557Z"/><path d="M88.0474,12.6279a2.7021,2.7021,0,0,1-1.9725-.6577,2.5774,2.5774,0,0,1-.6686-1.9219V5.7153H84.1532V3.7764H84.78a.8278.8278,0,0,0,.6939-.2442,1.1368,1.1368,0,0,0,.1867-.7v-1.45h2.2521V3.7764h1.76V5.7153h-1.76V10.689H89.538v1.9389Z"/><path d="M96.8865,3.7764h2.337l-3.421,10.2173a3.1188,3.1188,0,0,1-.956,1.5175,2.8007,2.8007,0,0,1-1.77.4888H91.5193V14.061h1.6763l.304-.978L90.3845,3.7764H92.873l1.304,4.1308.6441,2.5625h.1017l.66-2.5625Z"/><polygon points="106.741 12.628 102.813 0.86 104.337 0.86 106.284 6.794 107.588 11.212 107.673 11.212 109.011 6.794 110.974 0.86 112.447 0.86 108.468 12.628 106.741 12.628"/><path d="M116.935,12.8306a3.9349,3.9349,0,0,1-1.6167-.3208,3.4815,3.4815,0,0,1-1.2365-.9185,4.2076,4.2076,0,0,1-.7957-1.4331,5.8925,5.8925,0,0,1-.2795-1.88,5.9136,5.9136,0,0,1,.2795-1.8716,4.1941,4.1941,0,0,1,.7957-1.4414,3.4826,3.4826,0,0,1,1.2365-.9189,3.9332,3.9332,0,0,1,1.6167-.32,3.7267,3.7267,0,0,1,1.5746.3193,3.4809,3.4809,0,0,1,1.1857.8823,3.9383,3.9383,0,0,1,.7536,1.3355,5.2478,5.2478,0,0,1,.262,1.6968v.6386h-6.2821v.4043a2.97,2.97,0,0,0,.1779,1.0371,2.4388,2.4388,0,0,0,.5083.8345,2.3261,2.3261,0,0,0,.8122.5567,2.8067,2.8067,0,0,0,1.0928.2021,2.6712,2.6712,0,0,0,1.4476-.3877,2.5578,2.5578,0,0,0,.9569-1.1128l.9648.6958a3.3613,3.3613,0,0,1-1.3206,1.45A3.9973,3.9973,0,0,1,116.935,12.8306Zm0-7.9751a2.5915,2.5915,0,0,0-1.0156.1928,2.2813,2.2813,0,0,0-.7878.5445,2.5566,2.5566,0,0,0-.5161.83,2.8574,2.8574,0,0,0-.1867,1.0473v.1172h4.8257V7.4023a2.6383,2.6383,0,0,0-.6344-1.851A2.1716,2.1716,0,0,0,116.935,4.8555Z"/><path d="M122.8779,12.6279v-8.7h1.3547V5.53h.0851a2.5126,2.5126,0,0,1,2.5228-1.6016h.5248V5.2769H126.57a3.0659,3.0659,0,0,0-1.7184.4135,1.2172,1.2172,0,0,0-.6187,1.0367v5.9008Z"/><path d="M129.7024,1.8882a.8293.8293,0,0,1-.6353-.2105.7751.7751,0,0,1-.1945-.5483V.91a.7747.7747,0,0,1,.1945-.5479,1.063,1.063,0,0,1,1.27,0,.7753.7753,0,0,1,.1955.5479v.2192a.7757.7757,0,0,1-.1955.5483A.8284.8284,0,0,1,129.7024,1.8882Zm-.6773,2.04H130.38v8.7h-1.3547Z"/><path d="M133.664,5.1255h-1.4221V3.9282h1.4221V2.1748A2.1816,2.1816,0,0,1,134.1391.708a1.7864,1.7864,0,0,1,1.4388-.5561h1.3205V1.3486h-1.88v2.58h1.88V5.1255h-1.88v7.5024H133.664Z"/><path d="M144.1628,3.9282H145.5l-3.9118,10.7232a4.773,4.773,0,0,1-.3049.6489,1.2551,1.2551,0,0,1-.3724.4131,1.4846,1.4846,0,0,1-.55.2192,4.12,4.12,0,0,1-.8035.0674h-.695V14.8027h1.3724l.66-1.8515-3.2676-9.023h1.3548l2.1,5.9068.4057,1.4135h.085l.4741-1.4135Z"/></svg>