<?xml version="1.0" standalone="no"?>
<!DOCTYPE svg PUBLIC "-//W3C//DTD SVG 20010904//EN"
 "http://www.w3.org/TR/2001/REC-SVG-20010904/DTD/svg10.dtd">
<svg version="1.0" xmlns="http://www.w3.org/2000/svg"
 width="260.000000pt" height="260.000000pt" viewBox="0 0 260.000000 260.000000"
 preserveAspectRatio="xMidYMid meet">
<metadata>
Created by potrace 1.11, written by Peter Selinger 2001-2013
</metadata>
<g transform="translate(0.000000,260.000000) scale(0.100000,-0.100000)"
fill="#000000" stroke="none">
<path d="M1449 2008 c0 -7 0 -185 0 -396 l-1 -384 53 -49 c29 -27 56 -49 61
-49 4 0 8 -4 8 -9 0 -13 41 -25 49 -15 18 26 120 102 126 96 5 -4 5 -2 2 4 -3
6 3 18 14 27 18 16 19 33 19 402 l0 385 -165 0 c-125 0 -165 -3 -166 -12z"/>
<path d="M1049 1838 c-3 -81 2 -572 6 -577 3 -3 10 0 14 8 5 7 18 18 29 24 12
7 49 31 82 55 75 52 103 53 150 7 27 -28 36 -32 42 -21 5 8 7 126 6 263 l-3
248 -162 3 c-127 2 -163 0 -164 -10z"/>
<path d="M663 1683 c-17 -6 -19 -713 -3 -713 10 0 22 8 55 38 7 6 18 12 23 12
5 0 17 9 27 20 10 11 24 20 30 20 7 0 15 7 19 15 3 8 11 15 18 15 7 0 42 24
78 53 l65 53 3 224 c1 124 0 235 -3 248 -5 22 -8 22 -153 21 -81 0 -153 -3
-159 -6z"/>
<path d="M2243 1509 c-6 -6 -28 -13 -49 -16 -22 -3 -48 -10 -58 -15 -11 -6
-42 -17 -70 -24 -28 -7 -71 -18 -96 -24 -52 -14 -110 -40 -110 -50 0 -4 14
-21 30 -38 17 -18 30 -38 30 -45 0 -8 -29 -37 -65 -66 -36 -29 -78 -65 -95
-80 -56 -49 -65 -56 -72 -54 -4 2 -10 -6 -13 -17 -4 -11 -12 -20 -20 -20 -7 0
-15 -7 -19 -15 -3 -8 -16 -15 -29 -15 -23 0 -67 33 -67 50 0 6 -3 9 -7 8 -8
-3 -43 25 -93 73 -15 14 -35 29 -44 32 -10 4 -14 11 -11 17 3 5 0 10 -7 10 -8
0 -21 8 -30 18 -38 38 -60 57 -68 57 -5 0 -11 3 -15 7 -4 4 -16 -2 -28 -13
-11 -10 -27 -19 -36 -19 -8 0 -12 -3 -8 -6 3 -4 -35 -34 -86 -67 -51 -34 -94
-65 -95 -69 -2 -5 -8 -6 -13 -2 -5 3 -9 1 -9 -4 0 -9 -77 -62 -91 -62 -5 0 -9
-4 -9 -8 0 -4 -44 -37 -97 -73 -54 -35 -101 -68 -105 -74 -4 -5 -8 -6 -8 -1 0
5 -10 -2 -23 -15 -13 -13 -29 -25 -37 -27 -7 -2 -18 -9 -24 -16 -12 -13 -67
-50 -77 -51 -3 0 -13 -8 -22 -17 -10 -9 -26 -20 -37 -23 -11 -3 -20 -11 -20
-16 0 -5 -11 -14 -25 -19 -14 -5 -25 -14 -25 -20 0 -5 -6 -10 -14 -10 -7 0
-19 -7 -26 -15 -10 -12 -9 -15 8 -15 11 0 22 7 26 15 3 8 17 15 31 15 14 0 28
7 31 15 4 8 12 15 20 15 7 0 39 15 71 34 32 18 68 37 81 40 12 4 22 12 22 17
0 5 7 9 16 9 9 0 27 9 41 20 14 11 32 20 40 20 8 0 19 5 26 11 7 6 35 23 64
37 29 15 96 50 150 77 54 28 100 53 103 56 3 4 30 18 61 33 30 14 59 29 62 33
21 20 86 5 72 -17 -3 -4 5 -10 17 -13 12 -4 20 -9 17 -12 -3 -3 19 -31 50 -64
31 -32 97 -102 148 -155 50 -53 98 -96 106 -96 8 0 28 13 45 30 18 16 34 30
37 30 3 0 13 8 23 18 31 29 103 92 107 92 1 0 27 23 56 50 29 28 57 50 61 50
4 0 31 23 60 50 60 57 92 64 128 25 13 -14 27 -25 31 -25 7 0 34 72 50 135 6
21 14 44 19 50 4 5 11 24 14 40 3 17 12 48 20 70 8 22 15 48 16 58 0 9 7 17
15 17 11 0 15 11 15 40 0 37 -2 40 -28 40 -15 0 -33 -5 -39 -11z"/>
</g>
</svg>
