<?xml version="1.0" encoding="UTF-8"?>
<svg width="85px" height="85px" viewBox="0 0 85 85" version="1.1" xmlns="http://www.w3.org/2000/svg" xmlns:xlink="http://www.w3.org/1999/xlink">
    <!-- Generator: Sketch 52.3 (67297) - http://www.bohemiancoding.com/sketch -->
    <title>Group 7</title>
    <desc>Created with Sketch.</desc>
    <g id="Page-1" stroke="none" stroke-width="1" fill="none" fill-rule="evenodd" stroke-linecap="square">
        <g id="New-Account-Success" transform="translate(-678.000000, -322.000000)" stroke="#FFFFFF" stroke-width="2">
            <g id="Group-7" transform="translate(679.000000, 323.000000)">
                <path d="M57,55.9236 C51.6960174,54.8078 45.0824271,54 37.0509263,54 C21.1760294,54 10.6963174,57.2634 5.05460137,59.7218 C1.96512413,61.0672 0,64.0744 0,67.3938 L0,82 L39.9009975,82" id="Stroke-1"></path>
                <path d="M17,19.6 C17,8.7752 25.9542857,0 37,0 C48.0457143,0 57,8.7752 57,19.6 C57,30.4248 48.0457143,42 37,42 C25.9542857,42 17,30.4248 17,19.6 Z" id="Stroke-3"></path>
                <polyline id="Stroke-5" points="54 73.4285714 62.4 82 82 62"></polyline>
            </g>
        </g>
    </g>
</svg>