<?xml version="1.0" encoding="UTF-8"?>
<svg width="202px" height="33px" viewBox="0 0 202 33" version="1.1" xmlns="http://www.w3.org/2000/svg" xmlns:xlink="http://www.w3.org/1999/xlink">
    <!-- Generator: Sketch 57.1 (83088) - https://sketch.com -->
    <title>Group 5</title>
    <desc>Created with Sketch.</desc>
    <g id="Page-1" stroke="none" stroke-width="1" fill="none" fill-rule="evenodd">
        <g id="Insurance-Login-Copy" transform="translate(-210.000000, -669.000000)">
            <g id="Group-5" transform="translate(210.000000, 669.000000)">
                <path d="M5.12568234,8.00018939 C5.46648836,8.00018939 5.79191967,8.1314384 6.03150886,8.36643662 L6.03150886,8.36643662 L9.49978664,11.750161 L35.8750975,11.750161 C38.7014812,11.750161 41,13.992644 41,16.7501231 C41,19.5076022 38.7014812,21.7500852 35.8750975,21.7500852 L35.8750975,21.7500852 L28.4785819,21.7500852 L22.9219064,32.3212551 C22.7028168,32.737502 22.2620752,33 21.7816155,33 L21.7816155,33 L15.3754874,33 C14.9283396,33 14.515785,32.7725017 14.2826019,32.4012545 C14.0494189,32.0300073 14.0327629,31.5662609 14.2364778,31.1787638 L14.2364778,31.1787638 L19.1922585,21.7500852 L5.12568234,21.7500852 C4.57347409,21.7500852 4.0840459,21.4063378 3.90979922,20.8963417 L3.90979922,20.8963417 L0.0661223229,9.64642692 C-0.0645626914,9.26517981 0.000779815743,8.84643298 0.241650234,8.52018545 C0.483801879,8.19268793 0.870732019,8.00018939 1.28200545,8.00018939 L1.28200545,8.00018939 Z M21.7813593,-1.23545618e-12 C22.2669438,-1.23545618e-12 22.7102479,0.267497973 22.926775,0.691244763 L22.926775,0.691244763 L27.0574464,8.74993371 L17.7864978,8.81368323 L14.2285342,1.87248581 C14.0299442,1.48498875 14.0504438,1.02499223 14.2849081,0.656245028 C14.5193724,0.288747813 14.9306458,0.063749517 15.3752311,0.063749517 L15.3752311,0.063749517 Z" id="Combined-Shape-Copy-4" fill="#5AAAFA"></path>
                <path d="M53.58,7.72 L53.58,6.58 L69.99,6.58 L69.99,7.72 L62.43,7.72 L62.43,28 L61.11,28 L61.11,7.72 L53.58,7.72 Z M72.39,16 L72.48,16 C72.6200007,15.4999975 72.8749982,15.0300022 73.245,14.59 C73.6150019,14.1499978 74.0649974,13.7700016 74.595,13.45 C75.1250027,13.1299984 75.7149968,12.8850008 76.365,12.715 C77.0150033,12.5449991 77.6899965,12.4699999 78.39,12.49 L78.39,13.63 C77.789997,13.5499996 77.1050039,13.609999 76.335,13.81 C75.5649962,14.010001 74.8300035,14.4499966 74.13,15.13 C73.8499986,15.4300015 73.6050011,15.7199986 73.395,16 C73.184999,16.2800014 73.0100007,16.5899983 72.87,16.93 C72.7299993,17.2700017 72.6200004,17.6499979 72.54,18.07 C72.4599996,18.4900021 72.4100001,18.9899971 72.39,19.57 L72.39,28 L71.25,28 L71.25,12.58 L72.39,12.58 L72.39,16 Z M91.8,28 L90.66,28 L90.66,24.7 L90.6,24.7 C90.399999,25.2800029 90.1150019,25.7949977 89.745,26.245 C89.3749982,26.6950022 88.9450025,27.08 88.455,27.4 C87.9649976,27.7200016 87.4300029,27.9599992 86.85,28.12 C86.2699971,28.2800008 85.680003,28.36 85.08,28.36 C84.1799955,28.36 83.4150032,28.2500011 82.785,28.03 C82.1549969,27.8099989 81.640002,27.5200018 81.24,27.16 C80.839998,26.7999982 80.5250012,26.3950022 80.295,25.945 C80.0649989,25.4949977 79.9000005,25.0400023 79.8,24.58 C79.6999995,24.1199977 79.6400001,23.6750021 79.62,23.245 C79.5999999,22.8149978 79.59,22.4400016 79.59,22.12 L79.59,12.58 L80.73,12.58 L80.73,22.33 C80.73,22.730002 80.7599997,23.2149971 80.82,23.785 C80.8800003,24.3550028 81.0549986,24.9049973 81.345,25.435 C81.6350015,25.9650026 82.0699971,26.4199981 82.65,26.8 C83.2300029,27.1800019 84.0499947,27.37 85.11,27.37 C85.9700043,27.37 86.7449966,27.2100016 87.435,26.89 C88.1250035,26.5699984 88.7099976,26.1250028 89.19,25.555 C89.6700024,24.9849971 90.0349988,24.3050039 90.285,23.515 C90.5350013,22.724996 90.66,21.8600047 90.66,20.92 L90.66,12.58 L91.8,12.58 L91.8,28 Z M95.7,22.87 C95.7400002,23.5900036 95.8999986,24.2249972 96.18,24.775 C96.4600014,25.3250027 96.8249978,25.794998 97.275,26.185 C97.7250023,26.5750019 98.249997,26.869999 98.85,27.07 C99.450003,27.270001 100.099997,27.37 100.8,27.37 C101.300003,27.37 101.834997,27.3250004 102.405,27.235 C102.975003,27.1449995 103.504998,26.9800012 103.995,26.74 C104.485002,26.4999988 104.889998,26.1650021 105.21,25.735 C105.530002,25.3049978 105.69,24.7600033 105.69,24.1 C105.69,23.2399957 105.430003,22.5900022 104.91,22.15 C104.389997,21.7099978 103.735004,21.3700012 102.945,21.13 C102.154996,20.8899988 101.305005,20.6950007 100.395,20.545 C99.4849955,20.3949992 98.635004,20.1700015 97.845,19.87 C97.0549961,19.5699985 96.4000026,19.1450027 95.88,18.595 C95.3599974,18.0449972 95.1,17.2400053 95.1,16.18 C95.1,15.4199962 95.2699983,14.7850025 95.61,14.275 C95.9500017,13.7649974 96.3849974,13.3600015 96.915,13.06 C97.4450027,12.7599985 98.0399967,12.5450006 98.7,12.415 C99.3600033,12.2849993 100.019997,12.22 100.68,12.22 C101.480004,12.22 102.229997,12.3099991 102.93,12.49 C103.630004,12.6700009 104.234997,12.959998 104.745,13.36 C105.255003,13.760002 105.654999,14.2699969 105.945,14.89 C106.235001,15.5100031 106.38,16.2599956 106.38,17.14 L105.24,17.14 C105.24,16.4399965 105.125001,15.8400025 104.895,15.34 C104.664999,14.8399975 104.345002,14.4350015 103.935,14.125 C103.524998,13.8149984 103.040003,13.5850007 102.48,13.435 C101.919997,13.2849992 101.320003,13.21 100.68,13.21 C100.159997,13.21 99.6350027,13.2599995 99.105,13.36 C98.5749974,13.4600005 98.1000021,13.6299988 97.68,13.87 C97.2599979,14.1100012 96.9150014,14.4199981 96.645,14.8 C96.3749987,15.1800019 96.24,15.6399973 96.24,16.18 C96.24,16.8000031 96.3899985,17.2999981 96.69,17.68 C96.9900015,18.0600019 97.3849976,18.3649988 97.875,18.595 C98.3650025,18.8250011 98.914997,19.0099993 99.525,19.15 C100.135003,19.2900007 100.749997,19.4299993 101.37,19.57 C102.130004,19.7100007 102.844997,19.874999 103.515,20.065 C104.185003,20.2550009 104.764998,20.5149983 105.255,20.845 C105.745002,21.1750016 106.129999,21.5999974 106.41,22.12 C106.690001,22.6400026 106.83,23.299996 106.83,24.1 C106.83,24.9400042 106.640002,25.6299973 106.26,26.17 C105.879998,26.7100027 105.400003,27.1449983 104.82,27.475 C104.239997,27.8050016 103.595004,28.0349993 102.885,28.165 C102.174996,28.2950006 101.480003,28.36 100.8,28.36 C99.9199956,28.36 99.1050038,28.2450011 98.355,28.015 C97.6049963,27.7849988 96.9500028,27.4350023 96.39,26.965 C95.8299972,26.4949976 95.3900016,25.9200034 95.07,25.24 C94.7499984,24.5599966 94.5800001,23.7700045 94.56,22.87 L95.7,22.87 Z M115.26,13.57 L111.9,13.57 L111.9,24.34 C111.9,24.9600031 111.969999,25.4499982 112.11,25.81 C112.250001,26.1700018 112.464999,26.444999 112.755,26.635 C113.045001,26.8250009 113.394998,26.9399998 113.805,26.98 C114.215002,27.0200002 114.689997,27.0300001 115.23,27.01 L115.23,28 C114.649997,28.0400002 114.085003,28.0350002 113.535,27.985 C112.984997,27.9349997 112.500002,27.7850012 112.08,27.535 C111.659998,27.2849987 111.325001,26.9100025 111.075,26.41 C110.824999,25.9099975 110.72,25.2200044 110.76,24.34 L110.76,13.57 L107.91,13.57 L107.91,12.58 L110.76,12.58 L110.76,7.78 L111.9,7.78 L111.9,12.58 L115.26,12.58 L115.26,13.57 Z M118.08,6.58 L121.98,6.58 L128.73,24.58 L135.51,6.58 L139.41,6.58 L139.41,28 L136.71,28 L136.71,10.18 L136.65,10.18 L129.96,28 L127.53,28 L120.84,10.18 L120.78,10.18 L120.78,28 L118.08,28 L118.08,6.58 Z M154.5,18.76 C154.46,18.159997 154.325001,17.5900027 154.095,17.05 C153.864999,16.5099973 153.555002,16.0450019 153.165,15.655 C152.774998,15.264998 152.315003,14.9550011 151.785,14.725 C151.254997,14.4949988 150.670003,14.38 150.03,14.38 C149.369997,14.38 148.775003,14.4949988 148.245,14.725 C147.714997,14.9550011 147.260002,15.269998 146.88,15.67 C146.499998,16.070002 146.200001,16.5349973 145.98,17.065 C145.759999,17.5950026 145.63,18.159997 145.59,18.76 L154.5,18.76 Z M156.96,23.08 C156.619998,24.8200087 155.870006,26.13 154.71,27.01 C153.549994,27.8900044 152.090009,28.33 150.33,28.33 C149.089994,28.33 148.015005,28.13 147.105,27.73 C146.194995,27.329998 145.430003,26.7700036 144.81,26.05 C144.189997,25.3299964 143.725002,24.470005 143.415,23.47 C143.104998,22.469995 142.93,21.3800059 142.89,20.2 C142.89,19.0199941 143.069998,17.9400049 143.43,16.96 C143.790002,15.9799951 144.294997,15.13 144.945,14.41 C145.595003,13.6899964 146.364996,13.13 147.255,12.73 C148.145004,12.329998 149.119995,12.13 150.18,12.13 C151.560007,12.13 152.704995,12.4149971 153.615,12.985 C154.525005,13.5550028 155.254997,14.2799956 155.805,15.16 C156.355003,16.0400044 156.734999,16.9999948 156.945,18.04 C157.155001,19.0800052 157.24,20.0699953 157.2,21.01 L145.59,21.01 C145.57,21.6900034 145.649999,22.3349969 145.83,22.945 C146.010001,23.555003 146.299998,24.0949976 146.7,24.565 C147.100002,25.0350023 147.609997,25.4099986 148.23,25.69 C148.850003,25.9700014 149.579996,26.11 150.42,26.11 C151.500005,26.11 152.384997,25.8600025 153.075,25.36 C153.765003,24.8599975 154.219999,24.1000051 154.44,23.08 L156.96,23.08 Z M172.53,21.25 C172.53,21.9500035 172.460001,22.7199958 172.32,23.56 C172.179999,24.4000042 171.860003,25.1849963 171.36,25.915 C170.859998,26.6450036 170.140005,27.2549975 169.2,27.745 C168.259995,28.2350024 166.990008,28.48 165.39,28.48 C164.489996,28.48 163.620004,28.3550012 162.78,28.105 C161.939996,27.8549987 161.190003,27.4650026 160.53,26.935 C159.869997,26.4049973 159.34,25.7250041 158.94,24.895 C158.539998,24.0649958 158.34,23.0600059 158.34,21.88 L158.34,20.02 L162.6,20.02 L162.6,20.98 C162.6,21.5000026 162.64,21.9799978 162.72,22.42 C162.8,22.8600022 162.939999,23.2349984 163.14,23.545 C163.34,23.8550015 163.614998,24.0999991 163.965,24.28 C164.315002,24.4600009 164.769997,24.55 165.33,24.55 C165.950003,24.55 166.429998,24.4400011 166.77,24.22 C167.110002,23.9999989 167.354999,23.7150017 167.505,23.365 C167.655001,23.0149982 167.745,22.635002 167.775,22.225 C167.805,21.8149979 167.82,21.4200019 167.82,21.04 L167.82,6.58 L172.53,6.58 L172.53,21.25 Z M186.66,18.58 C186.459999,17.4999946 186.105003,16.6800028 185.595,16.12 C185.084997,15.5599972 184.310005,15.28 183.27,15.28 C182.589997,15.28 182.025002,15.3949988 181.575,15.625 C181.124998,15.8550011 180.765001,16.1399983 180.495,16.48 C180.224999,16.8200017 180.035001,17.1799981 179.925,17.56 C179.814999,17.9400019 179.75,18.28 179.73,18.58 L186.66,18.58 Z M179.73,21.28 C179.79,22.6600069 180.139997,23.6599969 180.78,24.28 C181.420003,24.9000031 182.339994,25.21 183.54,25.21 C184.400004,25.21 185.139997,24.9950021 185.76,24.565 C186.380003,24.1349978 186.759999,23.6800024 186.9,23.2 L190.65,23.2 C190.049997,25.0600093 189.130006,26.389996 187.89,27.19 C186.649994,27.990004 185.150009,28.39 183.39,28.39 C182.169994,28.39 181.070005,28.1950019 180.09,27.805 C179.109995,27.414998 178.280003,26.8600036 177.6,26.14 C176.919997,25.4199964 176.395002,24.560005 176.025,23.56 C175.654998,22.559995 175.47,21.460006 175.47,20.26 C175.47,19.0999942 175.659998,18.020005 176.04,17.02 C176.420002,16.019995 176.959997,15.1550036 177.66,14.425 C178.360004,13.6949963 179.194995,13.1200021 180.165,12.7 C181.135005,12.2799979 182.209994,12.07 183.39,12.07 C184.710007,12.07 185.859995,12.3249974 186.84,12.835 C187.820005,13.3450025 188.624997,14.0299957 189.255,14.89 C189.885003,15.7500043 190.339999,16.7299945 190.62,17.83 C190.900001,18.9300055 191,20.079994 190.92,21.28 L179.73,21.28 Z M198.84,12.49 L201.96,12.49 L201.96,15.34 L198.84,15.34 L198.84,23.02 C198.84,23.7400036 198.959999,24.2199988 199.2,24.46 C199.440001,24.7000012 199.919996,24.82 200.64,24.82 C200.880001,24.82 201.109999,24.8100001 201.33,24.79 C201.550001,24.7699999 201.759999,24.7400002 201.96,24.7 L201.96,28 C201.599998,28.0600003 201.200002,28.0999999 200.76,28.12 C200.319998,28.1400001 199.890002,28.15 199.47,28.15 C198.809997,28.15 198.185003,28.1050004 197.595,28.015 C197.004997,27.9249995 196.485002,27.7500013 196.035,27.49 C195.584998,27.2299987 195.230001,26.8600024 194.97,26.38 C194.709999,25.8999976 194.58,25.2700039 194.58,24.49 L194.58,15.34 L192,15.34 L192,12.49 L194.58,12.49 L194.58,7.84 L198.84,7.84 L198.84,12.49 Z" id="TrustMeJet" fill="#222222" fill-rule="nonzero"></path>
            </g>
        </g>
    </g>
</svg>
