<?xml version="1.0" encoding="UTF-8"?>
<svg width="86px" height="79px" viewBox="0 0 86 79" version="1.1" xmlns="http://www.w3.org/2000/svg" xmlns:xlink="http://www.w3.org/1999/xlink">
    <!-- Generator: Sketch 52.3 (67297) - http://www.bohemiancoding.com/sketch -->
    <title>Group 11</title>
    <desc>Created with Sketch.</desc>
    <g id="Page-1" stroke="none" stroke-width="1" fill="none" fill-rule="evenodd">
        <g id="Failed" transform="translate(-677.000000, -325.000000)">
            <g id="Group-11" transform="translate(679.000000, 327.000000)">
                <polygon id="Stroke-1" stroke="#FFFFFF" stroke-width="2" stroke-linecap="square" points="0 75.3513514 41 0 82 75.3513514"></polygon>
                <path d="M40.4459459,28.8108108 L40.4459459,50.972973" id="Stroke-3" stroke="#FFFFFF" stroke-width="2" stroke-linecap="square"></path>
                <g id="Group-10" transform="translate(38.783784, 58.729730)">
                    <path d="M2.47359279,0 C3.29063784,0 3.95107027,0.742986486 3.95107027,1.66216216 C3.95107027,2.58133784 3.29063784,3.32432432 2.47359279,3.32432432 C1.65802523,3.32432432 0.996115315,2.58133784 0.996115315,1.66216216 C0.996115315,0.742986486 1.65802523,0 2.47359279,0 Z" id="Stroke-4" stroke="#FFFFFF" stroke-width="2" stroke-linecap="square"></path>
                    <path d="M2.47359279,0 C3.29063784,0 3.95107027,0.742986486 3.95107027,1.66216216 C3.95107027,2.58133784 3.29063784,3.32432432 2.47359279,3.32432432 C1.65802523,3.32432432 0.996115315,2.58133784 0.996115315,1.66216216 C0.996115315,0.742986486 1.65802523,0 2.47359279,0" id="Fill-6" fill="#444444"></path>
                    <path d="M2.47359279,0 C3.29063784,0 3.95107027,0.742986486 3.95107027,1.66216216 C3.95107027,2.58133784 3.29063784,3.32432432 2.47359279,3.32432432 C1.65802523,3.32432432 0.996115315,2.58133784 0.996115315,1.66216216 C0.996115315,0.742986486 1.65802523,0 2.47359279,0 Z" id="Stroke-8" stroke="#FFFFFF"></path>
                </g>
            </g>
        </g>
    </g>
</svg>