<?xml version="1.0" encoding="UTF-8"?>
<svg width="68px" height="66px" viewBox="0 0 68 66" version="1.1" xmlns="http://www.w3.org/2000/svg" xmlns:xlink="http://www.w3.org/1999/xlink">
    <!-- Generator: sketchtool 52.5 (67469) - http://www.bohemiancoding.com/sketch -->
    <title>A2BFBF96-559B-491D-BA21-E011C45A36B5</title>
    <desc>Created with sketchtool.</desc>
    <g id="Page-1" stroke="none" stroke-width="1" fill="none" fill-rule="evenodd">
        <g id="fingerprint" transform="translate(-687.000000, -111.000000)" stroke="#FFFFFF" stroke-width="2">
            <g id="Group-25" transform="translate(688.000000, 112.000000)">
                <path d="M6,15 C0.930635362,21.7992767 -1.23712152,30.3432188 0.705330267,39" id="Stroke-1"></path>
                <path d="M48,3.22351519 C41.5311093,0.301508953 33.9383794,-0.780715578 26.2593168,0.586093923 C19.9252262,1.71240908 14.3757025,4.35517467 10,8" id="Stroke-3"></path>
                <path d="M65,25 C63.4893392,17.6518084 59.4730499,11.4243338 54,7" id="Stroke-5"></path>
                <path d="M65.4300177,32 C65.4900177,29.6958881 65.2120177,27.3523273 64.5620177,25" id="Stroke-7"></path>
                <path d="M0.79,38.062 C0.916,38.692 1.058,39.32 1.21,39.938" id="Stroke-9"></path>
                <path d="M25,63 C32.1788643,54.8199915 35.5963301,43.4975293 33.2820718,32" id="Stroke-11"></path>
                <path d="M33.2245702,64 C39.7122002,54.540832 42.6529094,40.9955361 40.0633949,30.4573977 C38.8874027,25.6049391 34.9615997,23.3074009 30.6131971,24.182792 C26.2677091,25.056729 23.4785528,29.080329 24.355811,33.6157855 C26.2895677,43.6144387 22.870884,53.2088416 16,59.6230445" id="Stroke-13"></path>
                <path d="M16.9519739,38 C17.4284907,44.651982 14.3287565,50.9434828 9,55" id="Stroke-15"></path>
                <path d="M50,34 C49.8315497,32.0863361 49.5404558,30.1602099 49.1267183,28.2299296 L49.1281959,28.2285449 C47.3535575,19.9798505 38.7803251,14.6404237 29.9780594,16.3034558 C22.7805042,17.6646219 17.6605024,23.2823746 17,29.7946475" id="Stroke-17"></path>
                <path d="M44,62 C47.4406541,56.1388355 49.5297434,49.6950643 50,43" id="Stroke-19"></path>
                <path d="M25,9 C13.6164699,12.749582 6.55053268,24.8231469 8.96775122,37.1954301 L8.97926864,37.1924577 C9.86754967,41.7356493 8.20040311,46.2000743 5,49" id="Stroke-21"></path>
                <path d="M55.96252,55 C58.2920297,46.462896 58.6996571,37.2859046 56.7924906,28.0384537 L56.7880759,28.0384537 C54.4629809,16.7706843 44.3267442,8.99137947 33,9" id="Stroke-23"></path>
            </g>
        </g>
    </g>
</svg>