<?xml version="1.0" encoding="UTF-8"?>
<svg width="49px" height="45px" viewBox="0 0 49 45" version="1.1" xmlns="http://www.w3.org/2000/svg" xmlns:xlink="http://www.w3.org/1999/xlink">
    <!-- Generator: Sketch 50.2 (55047) - http://www.bohemiancoding.com/sketch -->
    <title>Group 5</title>
    <desc>Created with Sketch.</desc>
    <defs></defs>
    <g id="Page-1" stroke="none" stroke-width="1" fill="none" fill-rule="evenodd">
        <g id="Home---Widget" transform="translate(-1108.000000, -943.000000)" stroke="#00468C" stroke-width="2">
            <g id="Group-5" transform="translate(1110.000000, 945.000000)">
                <path d="M37.7843769,29.1387135 C38.9782849,30.2879875 40.9125494,30.2869164 42.1064574,29.1365713 C42.1409185,29.1033677 42.1753795,29.0680219 42.2087289,29.031605 C43.2914723,27.8801887 43.2592346,26.1171831 42.1353602,25.0043259 L31,14" id="Stroke-1"></path>
                <path d="M27,35 L28.2204669,36.2886307 C29.2598444,37.3870539 29.2598444,39.1686307 28.2204669,40.2660581 C27.884697,40.6215768 27.4649847,40.8745228 27.005659,41" id="Stroke-3" stroke-linecap="square"></path>
                <path d="M35.2262365,27 L38.123957,29.8980577 C39.2916637,31.0633753 39.2916637,32.9558343 38.1260591,34.1222027 L38.123957,34.1243042 C36.9573013,35.2917234 35.0664783,35.2917234 33.8977205,34.125355 C33.8977205,34.1243042 33.8966694,34.1243042 33.8966694,34.1243042 L31,31.2262465" id="Stroke-5" stroke-linecap="square"></path>
                <path d="M33.1420793,33 C34.2859736,34.1449313 34.2859736,35.9992222 33.1420793,37.1420793 C31.997148,38.2859736 30.1438942,38.2859736 29,37.1420793" id="Stroke-7" stroke-linecap="square"></path>
                <path d="M5.90577035,28.7174276 L6.71742763,27.9057704 C7.92620944,26.6980765 9.88571984,26.6980765 11.0934136,27.9057704 C12.3021955,29.1145522 12.3021955,31.0740626 11.0934136,32.2817564 L10.2817564,33.0934136 C9.07406256,34.3021955 7.11455217,34.3021955 5.90577035,33.0934136 C4.69807655,31.8846318 4.69807655,29.9262094 5.90577035,28.7174276 Z" id="Stroke-9" stroke-linecap="square"></path>
                <path d="M15.8232026,36.2023884 L16.2023385,35.8232367 C17.299942,34.7255878 19.079194,34.7255878 20.1767974,35.8232367 C21.2744009,36.9208857 21.2744009,38.7002115 20.1767974,39.7968653 L19.7976615,40.1760169 C18.700058,41.274661 16.920806,41.274661 15.8232026,40.1760169 C14.7255991,39.0793631 14.7255991,37.3000373 15.8232026,36.2023884 Z" id="Stroke-11" stroke-linecap="square"></path>
                <path d="M7.182563,27.7604107 L6.75687245,28.1857164 C5.66832089,29.2722712 3.9037322,29.2712586 2.81619419,28.1836911 C2.78376062,28.1512869 2.75234061,28.1188826 2.72193414,28.0844531 C1.73473747,26.995873 1.76311684,25.328067 2.78781482,24.2739164 L3.21350537,23.8384844 C4.28178595,22.7468664 6.03015786,22.7175001 7.13593975,23.7716506 C8.25084358,24.8339023 8.29239909,26.598921 7.2281727,27.7128169 L7.182563,27.7604107 Z" id="Stroke-13" stroke-linecap="square"></path>
                <path d="M41.7636003,18 L41.7636003,14.3987195 L45,11.142095 L33.7351714,0 L31.7199732,1.99430909 L26.6604016,1.99430909 C24.1424826,1.99430909 21.724892,2.97492442 19.9340842,4.725947 L12.7438828,12.1216433 C11.7254957,13.1673484 11.7567809,14.8319402 12.812926,15.8392317 C13.7148027,16.6992709 15.1021394,16.8198471 16.1421025,16.1273342 L23.8015819,11.2455984 C26.3432344,14.0967455 30.739344,14.3709763 33.6229762,11.8570158 C33.8764942,11.6350702 34.114909,11.3949849 34.3339053,11.1388938" id="Stroke-15" stroke-linecap="square"></path>
                <polyline id="Stroke-17" stroke-linecap="square" points="3.1875 18 3.1875 14.3987195 0 11.142095 11.094625 0 13.079375 1.99430909 17 1.99430909"></polyline>
                <path d="M10.8470859,33.0633559 L11.0631453,32.8462818 C12.1925932,31.7179061 14.0244901,31.7179061 15.1529141,32.8462818 C16.282362,33.9767055 16.282362,35.8075003 15.1529141,36.9358761 L14.9368547,37.1529502 C13.8074068,38.2823499 11.9765338,38.2823499 10.8470859,37.1529502 C9.71763802,36.0235505 9.71763802,34.1927557 10.8470859,33.0633559 Z" id="Stroke-19" stroke-linecap="square"></path>
            </g>
        </g>
    </g>
</svg>