<?xml version="1.0" encoding="UTF-8"?>
<svg xmlns="http://www.w3.org/2000/svg" xmlns:xlink="http://www.w3.org/1999/xlink" width="16px" height="16px" viewBox="0 0 50 50"  version="1.1">
<g id="surface1">
<path style=" stroke:none;fill-rule:nonzero;fill:#808080;fill-opacity:1;" d="M 41 4 L 9 4 C 6.238281 4 4 6.238281 4 9 L 4 41 C 4 43.761719 6.238281 46 9 46 L 41 46 C 43.761719 46 46 43.761719 46 41 L 46 9 C 46 6.238281 43.761719 4 41 4 Z M 27 37.621094 C 27 37.851563 26.808594 38 26.519531 38 L 23.480469 38 C 23.191406 38 23 37.851563 23 37.621094 L 23 20.378906 C 23 20.148438 23.191406 20 23.480469 20 L 26.519531 20 C 26.808594 20 27 20.148438 27 20.378906 Z M 27 15.570313 C 27 15.828125 26.820313 16 26.539063 16 L 23.449219 16 C 23.179688 16 23 15.828125 23 15.570313 L 23 12.429688 C 23 12.171875 23.179688 12 23.449219 12 L 26.539063 12 C 26.820313 12 27 12.171875 27 12.429688 Z "/>
</g>
</svg>
