<?xml version="1.0" encoding="UTF-8"?>
<svg width="42px" height="47px" viewBox="0 0 42 47" version="1.1" xmlns="http://www.w3.org/2000/svg" xmlns:xlink="http://www.w3.org/1999/xlink">
    <!-- Generator: Sketch 52.5 (67469) - http://www.bohemiancoding.com/sketch -->
    <title>Group 10</title>
    <desc>Created with Sketch.</desc>
    <g id="Page-1" stroke="none" stroke-width="1" fill="none" fill-rule="evenodd">
        <g id="Insurance-Home" transform="translate(-1099.000000, -1112.000000)" stroke="#00468C" stroke-width="2">
            <g id="Group-10" transform="translate(1100.000000, 1113.000000)">
                <polyline id="Stroke-1" stroke-linecap="square" points="16 44 18 31 22 31 24 44"></polyline>
                <path d="M15.48,25 L1.942,33.0017109 C0.737,33.7139154 0,34.9964745 0,36.3804956 L0,44 L40,44 L40,36.3804956 C40,34.9964745 39.263,33.7139154 38.058,33.0017109 L24.52,25" id="Stroke-3"></path>
                <path d="M9,11.6627879 C9.95804355,11.8736642 10.9470885,12 11.970135,12 C15.8903132,12 19.4294741,10.4659226 21.9705896,8 C24.2946952,10.2540964 27.4758398,11.7235811 31,11.9601045" id="Stroke-5"></path>
                <path d="M9,12 C9,6 13.373,0 20,0 C26.627,0 31,6 31,12 C31,21 25,26 20,26 C15,26 9,21 9,12 Z" id="Stroke-7" stroke-linecap="square"></path>
            </g>
        </g>
    </g>
</svg>