<?xml version="1.0" encoding="UTF-8"?>
<svg width="46px" height="45px" viewBox="0 0 46 45" version="1.1" xmlns="http://www.w3.org/2000/svg" xmlns:xlink="http://www.w3.org/1999/xlink">
    <!-- Generator: Sketch 52.5 (67469) - http://www.bohemiancoding.com/sketch -->
    <title>Group 13</title>
    <desc>Created with Sketch.</desc>
    <g id="Page-1" stroke="none" stroke-width="1" fill="none" fill-rule="evenodd" stroke-linecap="square">
        <g id="Insurance-Home" transform="translate(-779.000000, -1110.000000)" stroke="#00468C" stroke-width="2">
            <g id="Group-13" transform="translate(780.000000, 1111.000000)">
                <polyline id="Stroke-1" points="0 20.0001 13 20.0001 18 13.0001 26 27.0001 31 20.0001 44 20.0001"></polyline>
                <path d="M42.8223,14.0001 C42.9373,13.3391 42.9973,12.6701 43.0003,12.0001 C43.0003,5.4001 37.8443,0.0001 31.5453,0.0001 C27.6343,-0.0049 24.0103,2.0461 22.0003,5.4001 C19.9903,2.0461 16.3653,-0.0049 12.4553,0.0001 C6.1553,0.0001 1.0003,5.4001 1.0003,12.0001 C1.0033,12.6701 1.0623,13.3391 1.1783,14.0001" id="Stroke-3"></path>
                <path d="M7.0791,26.0001 C11.5031,31.8201 16.5021,37.1811 22.0001,42.0001 C27.4981,37.1811 32.4971,31.8201 36.9211,26.0001" id="Stroke-5"></path>
            </g>
        </g>
    </g>
</svg>