<?xml version="1.0" encoding="utf-8"?>
<!-- Generator: Adobe Illustrator 21.0.2, SVG Export Plug-In . SVG Version: 6.00 Build 0)  -->
<svg width="237px" height="42px" version="1.1" id="Layer_1" xmlns="http://www.w3.org/2000/svg" xmlns:xlink="http://www.w3.org/1999/xlink" x="0px" y="0px"
	 viewBox="0 0 237 42" style="enable-background:new 0 0 237 42;" xml:space="preserve">
<style type="text/css">
	.st0{enable-background:new    ;}
	.st1{fill:#212121;}
	.st2{font-family:'HelveticaNeue-Light';}
	.st3{font-size:29px;}
	.st4{fill:#5AAAFA;}
	.st5{fill:#00468C;}
</style>
<title>Group</title>
<desc>Created with Sketch.</desc>
<g class="st0">
	<path class="st1" d="M79.8,10.3c0.9,0,1.7,0.1,2.5,0.2c0.8,0.2,1.5,0.4,2.1,0.8c0.6,0.4,1.1,0.9,1.5,1.6c0.4,0.6,0.6,1.5,0.6,2.4
		c0,0.5-0.1,1.1-0.3,1.6c-0.2,0.5-0.4,1-0.7,1.4c-0.3,0.4-0.7,0.8-1.1,1.1s-0.9,0.5-1.5,0.6v0.1c1.3,0.2,2.4,0.7,3.2,1.6
		c0.8,0.9,1.2,2.1,1.2,3.4c0,0.3,0,0.7-0.1,1.1c-0.1,0.4-0.2,0.8-0.3,1.3c-0.2,0.4-0.4,0.9-0.8,1.3c-0.3,0.4-0.8,0.8-1.3,1.1
		c-0.6,0.3-1.2,0.6-2,0.8S81,31,79.8,31h-8.8V10.3H79.8z M79.8,19.4c0.8,0,1.5-0.1,2.1-0.3c0.6-0.2,1.1-0.4,1.5-0.8
		c0.4-0.3,0.7-0.7,0.9-1.1c0.2-0.4,0.3-0.9,0.3-1.4c0-2.6-1.6-3.9-4.7-3.9h-6.8v7.4H79.8z M79.8,29.3c0.7,0,1.4-0.1,2.1-0.2
		c0.7-0.1,1.2-0.4,1.7-0.7s0.9-0.8,1.2-1.3c0.3-0.6,0.4-1.2,0.4-2.1c0-1.3-0.5-2.3-1.4-3c-0.9-0.7-2.3-1-4-1h-6.8v8.3H79.8z"/>
	<path class="st1" d="M91.9,10.3v2.9h-1.8v-2.9H91.9z M91.9,16v15h-1.8V16H91.9z"/>
	<path class="st1" d="M107.7,32.8c-0.2,0.9-0.6,1.6-1.1,2.3c-0.5,0.6-1.2,1.1-2,1.4c-0.8,0.3-1.9,0.5-3.1,0.5
		c-0.8,0-1.5-0.1-2.2-0.3c-0.7-0.2-1.4-0.4-1.9-0.8s-1-0.8-1.4-1.4c-0.4-0.6-0.6-1.3-0.7-2h1.8c0.1,0.6,0.3,1,0.6,1.4
		c0.3,0.4,0.6,0.7,1,0.9c0.4,0.2,0.8,0.4,1.3,0.5c0.5,0.1,1,0.2,1.5,0.2c1.7,0,2.9-0.5,3.7-1.5c0.8-1,1.1-2.4,1.1-4.2v-2h-0.1
		c-0.4,0.9-1,1.7-1.9,2.2s-1.8,0.8-2.9,0.8c-1.2,0-2.2-0.2-3.1-0.6c-0.9-0.4-1.6-0.9-2.1-1.6c-0.6-0.7-1-1.5-1.2-2.5s-0.4-1.9-0.4-3
		c0-1,0.1-2,0.4-2.9c0.3-0.9,0.7-1.7,1.3-2.4c0.6-0.7,1.3-1.2,2.1-1.6c0.8-0.4,1.8-0.6,2.9-0.6c0.6,0,1.1,0.1,1.6,0.2
		c0.5,0.2,0.9,0.4,1.3,0.7c0.4,0.3,0.8,0.6,1.1,1c0.3,0.4,0.6,0.8,0.7,1.2h0.1V16h1.8v13.7C108.1,30.9,108,31.9,107.7,32.8z
		 M103.5,28.8c0.6-0.3,1.1-0.8,1.5-1.3c0.4-0.6,0.7-1.2,0.9-1.9c0.2-0.7,0.3-1.5,0.3-2.2c0-0.7-0.1-1.5-0.3-2.2
		c-0.2-0.7-0.5-1.4-0.8-2c-0.4-0.6-0.9-1.1-1.5-1.4s-1.3-0.6-2.2-0.6c-0.9,0-1.6,0.2-2.2,0.5s-1.1,0.8-1.5,1.4
		c-0.4,0.6-0.7,1.2-0.9,2c-0.2,0.7-0.3,1.5-0.3,2.3c0,0.8,0.1,1.5,0.3,2.2c0.2,0.7,0.5,1.3,0.9,1.9c0.4,0.6,0.9,1,1.5,1.3
		c0.6,0.3,1.4,0.5,2.2,0.5C102.2,29.3,102.9,29.1,103.5,28.8z"/>
</g>
<text transform="matrix(1 0 0 1 109.8317 31)" class="st1 st2 st3"> </text>
<g class="st0">
	<path class="st1" d="M117.5,10.3c0.4,0,0.9,0,1.4,0c0.5,0,1,0,1.5,0.1c0.5,0,1,0.1,1.4,0.2s0.8,0.2,1.1,0.4c0.7,0.4,1.3,1,1.7,1.7
		c0.5,0.7,0.7,1.6,0.7,2.6c0,1.1-0.3,2.1-0.8,2.9c-0.5,0.8-1.3,1.4-2.3,1.8v0.1c1.3,0.3,2.3,0.9,2.9,1.7c0.7,0.9,1,2,1,3.2
		c0,0.8-0.1,1.5-0.4,2.2c-0.3,0.7-0.7,1.3-1.2,1.9c-0.5,0.6-1.2,1-2,1.3c-0.8,0.3-1.7,0.5-2.7,0.5h-10V10.3H117.5z M118.2,19.2
		c1.6,0,2.7-0.3,3.4-0.8c0.7-0.6,1-1.4,1-2.5c0-0.7-0.1-1.3-0.3-1.7c-0.2-0.4-0.6-0.8-1-1c-0.4-0.2-0.9-0.4-1.4-0.4
		c-0.5-0.1-1.1-0.1-1.7-0.1h-5.5v6.6H118.2z M119.6,28.7c1.2,0,2.2-0.3,2.9-1s1-1.6,1-2.7c0-0.7-0.1-1.2-0.4-1.7
		c-0.3-0.4-0.6-0.8-1-1.1c-0.4-0.3-0.9-0.4-1.4-0.6s-1.1-0.2-1.7-0.2h-6.3v7.2H119.6z"/>
	<path class="st1" d="M132,10.3V31h-2.5V10.3H132z"/>
	<path class="st1" d="M146,31v-2.4h-0.1c-0.5,0.9-1.2,1.6-2,2c-0.8,0.4-1.8,0.7-2.9,0.7c-1,0-1.8-0.1-2.5-0.4
		c-0.7-0.3-1.2-0.6-1.6-1.1c-0.4-0.5-0.7-1.1-0.9-1.7s-0.2-1.4-0.2-2.2V16h2.5v10.2c0,0.9,0.3,1.7,0.8,2.2s1.3,0.8,2.2,0.8
		c0.8,0,1.4-0.1,2-0.3c0.6-0.2,1-0.6,1.4-1c0.4-0.4,0.6-0.9,0.8-1.5s0.3-1.2,0.3-1.9V16h2.5v15H146z"/>
	<path class="st1" d="M162.6,30c-1.1,0.9-2.5,1.3-4.2,1.3c-1.2,0-2.2-0.2-3.1-0.6s-1.6-0.9-2.2-1.6c-0.6-0.7-1-1.5-1.3-2.5
		s-0.5-2-0.5-3.2c0-1.1,0.2-2.2,0.5-3.1c0.3-0.9,0.8-1.8,1.5-2.5c0.6-0.7,1.4-1.2,2.2-1.6c0.9-0.4,1.8-0.6,2.8-0.6
		c1.3,0,2.4,0.3,3.3,0.8s1.6,1.3,2.1,2.1c0.5,0.9,0.9,1.8,1.1,2.8c0.2,1,0.3,2,0.2,2.9h-11.2c0,0.7,0.1,1.3,0.2,1.9
		c0.2,0.6,0.5,1.1,0.8,1.6s0.9,0.8,1.5,1.1c0.6,0.3,1.3,0.4,2.1,0.4c1,0,1.9-0.2,2.6-0.7s1.1-1.2,1.3-2.2h2.4
		C164.5,27.9,163.7,29.2,162.6,30z M162,20.4c-0.2-0.5-0.5-1-0.9-1.3s-0.8-0.7-1.3-0.9c-0.5-0.2-1.1-0.3-1.7-0.3
		c-0.6,0-1.2,0.1-1.7,0.3c-0.5,0.2-1,0.5-1.3,0.9s-0.7,0.8-0.9,1.3s-0.3,1.1-0.4,1.6h8.6C162.4,21.5,162.2,20.9,162,20.4z"/>
</g>
<text transform="matrix(1 0 0 1 165.7141 31)" class="st1 st2 st3"> </text>
<g class="st0">
	<path class="st1" d="M177.5,10.3c1,0,1.9,0.1,2.7,0.3c0.8,0.2,1.5,0.5,2.1,0.9c0.6,0.4,1,0.9,1.3,1.6c0.3,0.7,0.5,1.5,0.5,2.4
		c0,1-0.2,1.9-0.7,2.6s-1.2,1.3-2.1,1.7c1.3,0.4,2.2,1,2.9,1.9s0.9,2,0.9,3.3c0,1-0.2,1.9-0.6,2.7s-1,1.4-1.6,1.9s-1.5,0.8-2.3,1.1
		c-0.9,0.2-1.8,0.3-2.7,0.3h-10V10.3H177.5z M176.9,18.7c0.8,0,1.5-0.2,2-0.6c0.5-0.4,0.8-1,0.8-1.9c0-0.5-0.1-0.9-0.3-1.2
		c-0.2-0.3-0.4-0.6-0.7-0.7s-0.6-0.3-1-0.4c-0.4-0.1-0.8-0.1-1.2-0.1h-4.3v4.8H176.9z M177.1,27.5c0.4,0,0.9,0,1.3-0.1
		c0.4-0.1,0.8-0.2,1.1-0.4c0.3-0.2,0.6-0.5,0.7-0.8c0.2-0.3,0.3-0.8,0.3-1.3c0-1.1-0.3-1.8-0.9-2.3c-0.6-0.5-1.4-0.7-2.4-0.7h-5v5.7
		H177.1z"/>
	<path class="st1" d="M187.5,20.6c0.1-1,0.3-1.8,0.7-2.4c0.4-0.6,1-1.2,1.6-1.5s1.4-0.7,2.2-0.8c0.8-0.2,1.6-0.2,2.5-0.2
		c0.8,0,1.5,0.1,2.3,0.2c0.8,0.1,1.5,0.3,2.1,0.6c0.6,0.3,1.2,0.7,1.6,1.3c0.4,0.6,0.6,1.3,0.6,2.2v7.8c0,0.7,0,1.3,0.1,1.9
		c0.1,0.6,0.2,1.1,0.4,1.4h-4.2c-0.1-0.2-0.1-0.5-0.2-0.7c0-0.2-0.1-0.5-0.1-0.7c-0.7,0.7-1.4,1.2-2.3,1.4c-0.9,0.3-1.8,0.4-2.7,0.4
		c-0.7,0-1.4-0.1-2-0.3c-0.6-0.2-1.2-0.4-1.6-0.8c-0.5-0.4-0.8-0.8-1.1-1.4c-0.3-0.6-0.4-1.2-0.4-2c0-0.9,0.1-1.6,0.4-2.1
		s0.7-1,1.2-1.3c0.5-0.3,1-0.6,1.6-0.7c0.6-0.2,1.2-0.3,1.8-0.4s1.2-0.2,1.8-0.2s1.1-0.1,1.6-0.3c0.5-0.1,0.8-0.3,1.1-0.5
		c0.3-0.2,0.4-0.5,0.4-1c0-0.4-0.1-0.8-0.2-1.1c-0.1-0.3-0.3-0.5-0.6-0.6c-0.2-0.1-0.5-0.2-0.8-0.3s-0.7-0.1-1-0.1
		c-0.8,0-1.5,0.2-1.9,0.5s-0.7,0.9-0.8,1.7H187.5z M197,23.7c-0.2,0.2-0.4,0.3-0.7,0.4s-0.5,0.2-0.8,0.2c-0.3,0.1-0.6,0.1-0.9,0.1
		c-0.3,0-0.7,0.1-1,0.1c-0.3,0.1-0.6,0.1-0.9,0.2c-0.3,0.1-0.6,0.2-0.8,0.4c-0.2,0.2-0.4,0.4-0.5,0.6c-0.1,0.3-0.2,0.6-0.2,1
		c0,0.4,0.1,0.7,0.2,0.9c0.1,0.3,0.3,0.4,0.6,0.6c0.2,0.1,0.5,0.2,0.8,0.3c0.3,0.1,0.6,0.1,1,0.1c0.8,0,1.4-0.1,1.9-0.4
		c0.4-0.3,0.8-0.6,1-1c0.2-0.4,0.3-0.8,0.4-1.1c0-0.4,0.1-0.7,0.1-0.9V23.7z"/>
	<path class="st1" d="M208.3,16v2.1h0.1c0.5-0.9,1.2-1.5,2-1.9c0.8-0.4,1.7-0.6,2.6-0.6c1.1,0,2,0.2,2.7,0.5
		c0.7,0.3,1.3,0.7,1.7,1.2c0.4,0.5,0.7,1.2,0.9,1.9c0.2,0.8,0.2,1.6,0.2,2.5V31h-4.1v-8.5c0-1.2-0.2-2.2-0.6-2.8
		c-0.4-0.6-1.1-0.9-2.1-0.9c-1.1,0-1.9,0.3-2.4,1c-0.5,0.7-0.8,1.8-0.8,3.3V31h-4.1V16H208.3z"/>
	<path class="st1" d="M226,10.3v11.1l5.2-5.4h4.9l-5.7,5.5l6.3,9.5h-5l-4.1-6.7l-1.6,1.5V31h-4.1V10.3H226z"/>
</g>
<polygon id="Fill-1" class="st4" points="11,10 21,10 21,25 11,32 "/>
<polygon id="Fill-2" class="st4" points="23,5 33,5 33,21.4 29.6,18.5 23,23 "/>
<polygon id="Fill-3" class="st4" points="35,0 35,23.9 39.6,28 45,23.5 45,0 "/>
<polygon id="Fill-4" class="st5" points="47.2,19.1 49.9,21.8 39.8,30.2 29.7,21.4 0,42 29,26.7 40,38.4 54.2,26.3 56.6,28.8 61,15 
	"/>
</svg>
