<?xml version="1.0" encoding="UTF-8"?>
<svg width="220px" height="38px" viewBox="0 0 220 38" version="1.1" xmlns="http://www.w3.org/2000/svg" xmlns:xlink="http://www.w3.org/1999/xlink">
    <!-- Generator: Sketch 52.6 (67491) - http://www.bohemiancoding.com/sketch -->
    <title>Group 3</title>
    <desc>Created with Sketch.</desc>
    <g id="Page-1" stroke="none" stroke-width="1" fill="none" fill-rule="evenodd">
        <g id="ecommerce-home" transform="translate(-132.000000, -52.000000)">
            <g id="Group-3" transform="translate(132.000000, 52.000000)">
                <text id="TrustMeShop" font-family="HelveticaNeue-Thin, Helvetica Neue" font-size="29" font-weight="300" line-spacing="39" fill="#212121">
                    <tspan x="53" y="28">Trust</tspan>
                    <tspan x="108.715" y="28" font-family="HelveticaNeue, Helvetica Neue" font-weight="normal">Me</tspan>
                    <tspan x="149.715" y="28" font-family="HelveticaNeue-Bold, Helvetica Neue" font-weight="bold">Shop</tspan>
                </text>
                <path d="M34.882823,9.66666667 C34.882823,8.74611111 34.1735348,8 33.2984114,8 C32.4232881,8 31.7139998,8.74611111 31.7139998,9.66666667 C31.7139998,11.505 30.1148004,13 28.1490737,13 C26.183347,13 24.5841475,11.505 24.5841475,9.66666667 C24.5841475,8.74611111 23.8748593,8 22.9997359,8 C22.1246126,8 21.4153243,8.74611111 21.4153243,9.66666667 C21.4153243,11.505 19.8161249,13 17.8503982,13 C15.8846715,13 14.2854721,11.505 14.2854721,9.66666667 C14.2854721,8.74611111 13.5761838,8 12.7010604,8 C11.8259371,8 11.1166488,8.74611111 11.1166488,9.66666667 C11.1166488,13.9083333 4.3818432,14.1177778 4,9.95333333 L6.64438298,3 L39.355617,3 L42,9.95333333 C41.6186849,14.1077778 34.882823,13.9272222 34.882823,9.66666667 Z M39,35 L35.8,35 L35.8,20.9221373 C35.8,20.0581736 35.0837333,19.3579303 34.2,19.3579303 L11.8,19.3579303 C10.9162667,19.3579303 10.2,20.0581736 10.2,20.9221373 L10.2,35 L7,35 L7,16.2185669 C9.03466667,16.3160691 11.2,15.5271874 12.6,14 C13.8485333,15.3624243 15.7162667,16.2295163 17.8,16.2295163 C19.8837333,16.2295163 21.7514667,15.3624243 23,14 C24.2485333,15.3624243 26.1162667,16.2295163 28.2,16.2295163 C30.2837333,16.2295163 32.1514667,15.3624243 33.4,14 C34.7973333,15.5251018 36.9616,16.3186761 39,16.2185669 L39,35 Z M13,35 L33,35 L33,22 L13,22 L13,35 Z M41.6710714,0.994861111 C41.42625,0.39425 40.8353571,0 40.1785714,0 L4.82142857,0 C4.16464286,0 3.57375,0.39425 3.32892857,0.994861111 L0.114642857,8.91152778 C0.0391071429,9.09888889 0,9.29838889 0,9.5 C0,11.7578333 1.29107143,13.7296111 3.21428571,14.8511389 L3.21428571,36.4166667 C3.21428571,37.2911944 3.93375,38 4.82142857,38 L40.1785714,38 C41.06625,38 41.7857143,37.2911944 41.7857143,36.4166667 L41.7857143,14.8511389 C43.7089286,13.7296111 45,11.7578333 45,9.5 C45,9.29838889 44.9608929,9.09888889 44.8853571,8.91152778 L41.6710714,0.994861111 Z" id="Fill-1" fill="#5AAAFA"></path>
            </g>
        </g>
    </g>
</svg>
