<?xml version="1.0" encoding="UTF-8"?>
<svg width="145px" height="25px" viewBox="0 0 145 25" version="1.1" xmlns="http://www.w3.org/2000/svg" xmlns:xlink="http://www.w3.org/1999/xlink">
    <!-- Generator: Sketch 50.2 (55047) - http://www.bohemiancoding.com/sketch -->
    <title>Group 8</title>
    <desc>Created with Sketch.</desc>
    <defs></defs>
    <g id="Page-1" stroke="none" stroke-width="1" fill="none" fill-rule="evenodd">
        <g id="Home---Widget" transform="translate(-1057.000000, -218.000000)" fill="#FFFFFF">
            <g id="Group-8" transform="translate(1057.000000, 218.000000)">
                <path d="M34,6 L42.8385399,6 L42.8385399,7.54057772 L35.7903226,7.54057772 L35.7903226,11.911967 L41.9716469,11.911967 L41.9716469,13.4525447 L35.7903226,13.4525447 L35.7903226,19.7496561 L34,19.7496561 L34,6 Z M46.2495756,8.00275103 L44.647708,8.00275103 L44.647708,6 L46.2495756,6 L46.2495756,8.00275103 Z M44.647708,9.79367263 L46.2495756,9.79367263 L46.2495756,19.7496561 L44.647708,19.7496561 L44.647708,9.79367263 Z M48.7371817,9.79367263 L50.2448217,9.79367263 L50.2448217,11.3727648 L50.2825127,11.3727648 C50.9483904,10.1659729 52.0037279,9.56258597 53.4485569,9.56258597 C54.0893071,9.56258597 54.6232576,9.6524521 55.0504244,9.83218707 C55.4775913,10.011922 55.8230887,10.2622634 56.086927,10.5832187 C56.3507653,10.904174 56.5360776,11.2861051 56.6428693,11.7290234 C56.749661,12.1719417 56.803056,12.6629959 56.803056,13.2022008 L56.803056,19.7496561 L55.2011885,19.7496561 L55.2011885,13.0096286 C55.2011885,12.3933944 55.0252989,11.9055497 54.6735144,11.5460798 C54.32173,11.1866098 53.8380336,11.0068776 53.2224109,11.0068776 C52.7324254,11.0068776 52.3084059,11.0839057 51.9503396,11.2379642 C51.5922733,11.3920228 51.2938891,11.6102691 51.0551783,11.8927098 C50.8164674,12.1751504 50.6374369,12.5057294 50.5180815,12.8844567 C50.3987261,13.2631839 50.3390492,13.67721 50.3390492,14.1265475 L50.3390492,19.7496561 L48.7371817,19.7496561 L48.7371817,9.79367263 Z M67.8465195,19.7111417 C67.5701175,19.8780384 67.1869294,19.9614856 66.696944,19.9614856 C66.2823409,19.9614856 65.9525479,19.8427339 65.7075552,19.605227 C65.4625624,19.36772 65.3400679,18.97937 65.3400679,18.4401651 C64.9003374,18.97937 64.388373,19.36772 63.8041596,19.605227 C63.2199461,19.8427339 62.5886282,19.9614856 61.9101868,19.9614856 C61.4704562,19.9614856 61.0527184,19.9101335 60.656961,19.8074278 C60.2612035,19.7047221 59.9188469,19.5442469 59.6298812,19.3259972 C59.3409154,19.1077476 59.1116307,18.8221017 58.9420204,18.4690509 C58.77241,18.1160001 58.6876061,17.6891359 58.6876061,17.1884457 C58.6876061,16.6235643 58.7818327,16.1613957 58.9702886,15.8019257 C59.1587446,15.4424558 59.4068745,15.1503909 59.7146859,14.9257221 C60.0224973,14.7010534 60.3742765,14.5309497 60.770034,14.4154058 C61.1657915,14.2998619 61.5709657,14.2035767 61.9855688,14.1265475 C62.4252993,14.03668 62.8430371,13.9692804 63.2387946,13.9243466 C63.6345521,13.8794129 63.9831903,13.8152228 64.2847199,13.7317744 C64.5862494,13.648326 64.8249567,13.5263649 65.0008489,13.3658872 C65.1767411,13.2054096 65.2646859,12.9711157 65.2646859,12.6629986 C65.2646859,12.3035287 65.1987273,12.0146733 65.0668081,11.7964237 C64.934889,11.5781741 64.7652812,11.4112798 64.5579796,11.2957359 C64.3506781,11.180192 64.1182526,11.1031639 63.8606961,11.0646492 C63.6031396,11.0261346 63.3487279,11.0068776 63.0974533,11.0068776 C62.4190119,11.0068776 61.8536525,11.1384673 61.4013582,11.4016506 C60.949064,11.664834 60.7040749,12.1623072 60.6663837,12.8940853 L59.0645161,12.8940853 C59.0896436,12.2778511 59.215279,11.7579113 59.4414261,11.3342503 C59.6675733,10.9105894 59.9690983,10.5671723 60.3460102,10.303989 C60.7229221,10.0408057 61.1532234,9.85144487 61.636927,9.73590096 C62.1206306,9.62035706 62.6388767,9.56258597 63.1916808,9.56258597 C63.6314114,9.56258597 64.0679944,9.59468102 64.5014431,9.65887208 C64.9348918,9.72306314 65.3275025,9.85465283 65.6792869,10.0536451 C66.0310714,10.2526374 66.3137511,10.5318643 66.5273345,10.8913343 C66.7409179,11.2508042 66.847708,11.7193919 66.847708,12.2971114 L66.847708,17.4195323 C66.847708,17.8046787 66.8696942,18.0871151 66.9136672,18.2668501 C66.9576403,18.446585 67.1052619,18.5364512 67.3565365,18.5364512 C67.4947375,18.5364512 67.6580636,18.5043561 67.8465195,18.4401651 L67.8465195,19.7111417 Z M65.2458404,14.607978 C65.0448207,14.7620365 64.7809864,14.8743692 64.4543294,14.9449794 C64.1276724,15.0155895 63.7853159,15.0733606 63.4272496,15.1182944 C63.0691833,15.1632281 62.7079814,15.2145802 62.3436333,15.2723521 C61.9792851,15.3301241 61.652633,15.4231997 61.3636672,15.5515818 C61.0747014,15.679964 60.839135,15.8629057 60.656961,16.1004127 C60.4747869,16.3379196 60.3837012,16.6620796 60.3837012,17.0729023 C60.3837012,17.3425048 60.4370962,17.5703796 60.5438879,17.7565337 C60.6506797,17.9426878 60.7888786,18.0935345 60.958489,18.2090784 C61.1280993,18.3246223 61.3259751,18.4080694 61.5521222,18.4594223 C61.7782694,18.5107751 62.0169767,18.5364512 62.2682513,18.5364512 C62.7959279,18.5364512 63.2482154,18.4626326 63.6251273,18.3149931 C64.0020392,18.1673537 64.309846,17.9812024 64.5485569,17.7565337 C64.7872677,17.531865 64.9631573,17.2879426 65.0762309,17.0247593 C65.1893045,16.7615759 65.2458404,16.5144441 65.2458404,16.2833563 L65.2458404,14.607978 Z M69.3353141,9.79367263 L70.8429542,9.79367263 L70.8429542,11.3727648 L70.8806452,11.3727648 C71.5465229,10.1659729 72.6018603,9.56258597 74.0466893,9.56258597 C74.6874395,9.56258597 75.2213901,9.6524521 75.6485569,9.83218707 C76.0757237,10.011922 76.4212211,10.2622634 76.6850594,10.5832187 C76.9488978,10.904174 77.13421,11.2861051 77.2410017,11.7290234 C77.3477934,12.1719417 77.4011885,12.6629959 77.4011885,13.2022008 L77.4011885,19.7496561 L75.7993209,19.7496561 L75.7993209,13.0096286 C75.7993209,12.3933944 75.6234313,11.9055497 75.2716469,11.5460798 C74.9198624,11.1866098 74.4361661,11.0068776 73.8205433,11.0068776 C73.3305578,11.0068776 72.9065383,11.0839057 72.548472,11.2379642 C72.1904057,11.3920228 71.8920216,11.6102691 71.6533107,11.8927098 C71.4145998,12.1751504 71.2355694,12.5057294 71.1162139,12.8844567 C70.9968585,13.2631839 70.9371817,13.67721 70.9371817,14.1265475 L70.9371817,19.7496561 L69.3353141,19.7496561 L69.3353141,9.79367263 Z M86.4281834,12.9903714 C86.3025461,12.361299 86.0387117,11.8734543 85.6366723,11.5268226 C85.234633,11.1801908 84.6944007,11.0068776 84.0159593,11.0068776 C83.4380277,11.0068776 82.9543313,11.1160007 82.5648557,11.3342503 C82.1753801,11.5524999 81.8644324,11.8413554 81.6320034,12.2008253 C81.3995744,12.5602952 81.2331075,12.9743214 81.1325976,13.4429161 C81.0320878,13.9115108 80.9818336,14.3961461 80.9818336,14.8968363 C80.9818336,15.3590119 81.0352287,15.8083426 81.1420204,16.2448418 C81.2488121,16.681341 81.415279,17.0696911 81.6414261,17.4099037 C81.8675733,17.7501163 82.1628165,18.0229242 82.5271647,18.2283356 C82.8915129,18.433747 83.324955,18.5364512 83.8275042,18.5364512 C84.6190192,18.5364512 85.2377737,18.3246239 85.6837861,17.9009629 C86.1297985,17.4773019 86.4030555,16.880334 86.5035654,16.1100413 L88.1431239,16.1100413 C87.9672317,17.3425096 87.5180851,18.292523 86.7956706,18.96011 C86.0732562,19.6276971 85.090159,19.9614856 83.8463497,19.9614856 C83.1050897,19.9614856 82.4486446,19.8395244 81.8769949,19.5955983 C81.3053452,19.3516723 80.8279306,19.0050458 80.4447368,18.5557084 C80.0615431,18.106371 79.7725816,17.5703837 79.5778438,16.9477304 C79.383106,16.3250771 79.2857385,15.6414526 79.2857385,14.8968363 C79.2857385,14.15222 79.3799651,13.4557575 79.5684211,12.8074278 C79.756877,12.1590981 80.0426976,11.5942252 80.4258913,11.1127923 C80.8090851,10.6313594 81.2896406,10.2526378 81.8675722,9.97661623 C82.4455037,9.70059468 83.1176532,9.56258597 83.8840407,9.56258597 C84.4368449,9.56258597 84.955091,9.62998557 85.4387946,9.7647868 C85.9224982,9.89958802 86.3496586,10.1082058 86.7202886,10.3906465 C87.0909187,10.6730872 87.3955845,11.0293422 87.6342954,11.4594223 C87.8730063,11.8895024 88.0237688,12.3998136 88.0865874,12.9903714 L86.4281834,12.9903714 Z M96.6989813,13.8184319 C96.6738539,13.4332856 96.58905,13.067402 96.4445671,12.7207703 C96.3000842,12.3741386 96.1053493,12.0756546 95.8603565,11.8253095 C95.6153638,11.5749644 95.3264023,11.3759751 94.9934635,11.2283356 C94.6605247,11.0806962 94.2930411,11.0068776 93.8910017,11.0068776 C93.4763986,11.0068776 93.1026332,11.0806962 92.7696944,11.2283356 C92.4367556,11.3759751 92.150935,11.5781739 91.9122241,11.8349381 C91.6735132,12.0917023 91.4850601,12.3901863 91.3468591,12.7303989 C91.2086581,13.0706115 91.126995,13.4332856 91.1018676,13.8184319 L96.6989813,13.8184319 Z M98.2443124,16.5914718 C98.030729,17.7083962 97.5595962,18.5492865 96.8308998,19.1141678 C96.1022035,19.6790491 95.185065,19.9614856 94.0794567,19.9614856 C93.3005054,19.9614856 92.6252151,19.8331054 92.0535654,19.5763411 C91.4819156,19.3195769 91.0013602,18.9601124 90.6118846,18.4979367 C90.2224089,18.0357611 89.9303066,17.4837263 89.7355688,16.8418157 C89.5408309,16.1999051 89.4309,15.500233 89.4057725,14.7427785 C89.4057725,13.985324 89.5188444,13.292071 89.7449915,12.6629986 C89.9711387,12.0339262 90.2883681,11.4883104 90.6966893,11.0261348 C91.1050105,10.5639592 91.5887069,10.2044946 92.1477929,9.9477304 C92.7068789,9.69096616 93.3193515,9.56258597 93.9852292,9.56258597 C94.8521266,9.56258597 95.5713893,9.74552774 96.143039,10.1114168 C96.7146888,10.4773058 97.173258,10.942684 97.5187606,11.5075653 C97.8642632,12.0724467 98.1029705,12.6886716 98.2348896,13.3562586 C98.3668088,14.0238456 98.4202039,14.6593276 98.3950764,15.2627235 L91.1018676,15.2627235 C91.0893038,15.6992227 91.139558,16.1132488 91.2526316,16.5048143 C91.3657051,16.8963798 91.5478765,17.2430063 91.7991511,17.5447043 C92.0504257,17.8464022 92.370796,18.0871151 92.7602716,18.2668501 C93.1497473,18.446585 93.6083165,18.5364512 94.1359932,18.5364512 C94.8144346,18.5364512 95.3703713,18.3759759 95.80382,18.0550206 C96.2372687,17.7340653 96.5230893,17.2462206 96.6612903,16.5914718 L98.2443124,16.5914718 Z M103.106452,11.565337 L106.102886,11.565337 C106.630563,11.565337 107.064005,11.4369568 107.403226,11.1801926 C107.742447,10.9234283 107.912054,10.5061927 107.912054,9.92847318 C107.912054,9.60751788 107.855518,9.34433849 107.742445,9.1389271 C107.629371,8.93351571 107.478609,8.77304047 107.290153,8.65749656 C107.101697,8.54195265 106.884976,8.46171503 106.639983,8.41678129 C106.39499,8.37184755 106.140579,8.34938102 105.87674,8.34938102 L103.106452,8.34938102 L103.106452,11.565337 Z M100.147708,6 L106.479796,6 C107.120546,6 107.704751,6.05777109 108.232428,6.17331499 C108.760105,6.2888589 109.212392,6.47821968 109.589304,6.74140303 C109.966216,7.00458637 110.258318,7.35442239 110.46562,7.7909216 C110.672921,8.2274208 110.77657,8.76661761 110.77657,9.4085282 C110.77657,10.1017916 110.622667,10.6795025 110.314856,11.1416781 C110.007044,11.6038538 109.551616,11.9825753 108.948557,12.2778542 C109.777763,12.5217802 110.396517,12.9486444 110.804839,13.5584594 C111.21316,14.1682745 111.417317,14.9032511 111.417317,15.7634113 C111.417317,16.4566747 111.2854,17.0568521 111.021562,17.5639615 C110.757724,18.0710709 110.402804,18.485097 109.956791,18.8060523 C109.510779,19.1270076 109.001955,19.3645109 108.430306,19.5185695 C107.858656,19.672628 107.27131,19.7496561 106.668251,19.7496561 L100.147708,19.7496561 L100.147708,6 Z M103.106452,17.4002751 L106.272496,17.4002751 C106.561462,17.4002751 106.837859,17.3713896 107.101698,17.3136176 C107.365536,17.2558457 107.597962,17.1595605 107.798981,17.0247593 C108.000001,16.8899581 108.160186,16.7070163 108.279542,16.4759285 C108.398897,16.2448407 108.458574,15.9495662 108.458574,15.5900963 C108.458574,14.8839946 108.263839,14.3801024 107.874363,14.0784044 C107.484888,13.7767064 106.969782,13.6258597 106.329032,13.6258597 L103.106452,13.6258597 L103.106452,17.4002751 Z M113.019185,12.8555708 C113.056876,12.2136602 113.213921,11.6808824 113.490323,11.2572215 C113.766725,10.8335605 114.118504,10.493353 114.545671,10.2365887 C114.972837,9.97982448 115.453393,9.79688271 115.987351,9.68775791 C116.52131,9.57863311 117.058401,9.52407153 117.598642,9.52407153 C118.088627,9.52407153 118.584887,9.55937608 119.087436,9.62998624 C119.589986,9.70059641 120.048555,9.83860512 120.463158,10.0440165 C120.877761,10.2494279 121.216977,10.5350738 121.480815,10.9009629 C121.744653,11.2668519 121.87657,11.7514871 121.87657,12.3548831 L121.87657,17.5350757 C121.87657,17.9844131 121.901698,18.4144867 121.951952,18.8253095 C122.002207,19.2361323 122.090152,19.5442447 122.215789,19.7496561 L119.502037,19.7496561 C119.451782,19.5955976 119.410951,19.4383318 119.379542,19.2778542 C119.348132,19.1173765 119.326146,18.9536918 119.313582,18.786795 C118.886416,19.2361325 118.383874,19.5506639 117.805942,19.7303989 C117.228011,19.9101339 116.637524,20 116.034465,20 C115.569607,20 115.136165,19.9422289 114.734126,19.826685 C114.332086,19.7111411 113.980307,19.5314088 113.678778,19.2874828 C113.377248,19.0435568 113.141682,18.7354443 112.972071,18.3631362 C112.802461,17.990828 112.717657,17.5479164 112.717657,17.0343879 C112.717657,16.4695066 112.815024,16.0041284 113.009762,15.6382393 C113.2045,15.2723503 113.455771,14.9802854 113.763582,14.7620358 C114.071394,14.5437862 114.423173,14.3801014 114.81893,14.2709766 C115.214688,14.1618518 115.61358,14.0751952 116.01562,14.0110041 C116.417659,13.9468131 116.813411,13.895461 117.202886,13.8569464 C117.592362,13.8184317 117.937859,13.7606606 118.239389,13.6836314 C118.540918,13.6066021 118.779626,13.4942694 118.955518,13.34663 C119.13141,13.1989906 119.213073,12.9839537 119.200509,12.7015131 C119.200509,12.4062342 119.153396,12.1719403 119.059168,11.9986245 C118.96494,11.8253086 118.839305,11.6905094 118.682258,11.5942228 C118.525211,11.4979362 118.34304,11.4337461 118.135739,11.4016506 C117.928437,11.3695551 117.705434,11.3535076 117.466723,11.3535076 C116.939047,11.3535076 116.52445,11.4690497 116.22292,11.7001376 C115.921391,11.9312254 115.745501,12.3163659 115.695246,12.8555708 L113.019185,12.8555708 Z M119.200509,14.8775791 C119.087436,14.9802848 118.946096,15.0605224 118.776486,15.1182944 C118.606875,15.1760663 118.424704,15.2242089 118.229966,15.2627235 C118.035228,15.3012382 117.831071,15.3333332 117.617487,15.3590096 C117.403904,15.3846861 117.190324,15.4167811 116.97674,15.4552957 C116.775721,15.4938104 116.577845,15.5451624 116.383107,15.6093535 C116.188369,15.6735446 116.018761,15.7602012 115.874278,15.869326 C115.729796,15.9784508 115.613583,16.1164595 115.525637,16.2833563 C115.437691,16.450253 115.393718,16.6620803 115.393718,16.9188446 C115.393718,17.1627706 115.437691,17.3681789 115.525637,17.5350757 C115.613583,17.7019724 115.732936,17.8335621 115.883701,17.9298487 C116.034466,18.0261353 116.210356,18.0935349 116.411375,18.1320495 C116.612395,18.1705642 116.819693,18.1898212 117.033277,18.1898212 C117.560953,18.1898212 117.969269,18.099955 118.258234,17.9202201 C118.5472,17.7404851 118.76078,17.5254483 118.898981,17.2751032 C119.037182,17.024758 119.121986,16.7712072 119.153396,16.5144429 C119.184805,16.2576787 119.200509,16.0522704 119.200509,15.8982118 L119.200509,14.8775791 Z M123.949576,9.79367263 L126.493718,9.79367263 L126.493718,11.1801926 L126.550255,11.1801926 C126.889475,10.602473 127.329199,10.1820279 127.86944,9.91884457 C128.40968,9.65566122 128.962476,9.52407153 129.527844,9.52407153 C130.243976,9.52407153 130.831322,9.62356618 131.289898,9.82255846 C131.748474,10.0215507 132.109676,10.2975682 132.373514,10.650619 C132.637353,11.0036698 132.822665,11.4337435 132.929457,11.9408528 C133.036248,12.4479622 133.089643,13.0096255 133.089643,13.6258597 L133.089643,19.7496561 L130.413582,19.7496561 L130.413582,14.1265475 C130.413582,13.3049019 130.287947,12.6918865 130.036672,12.2874828 C129.785398,11.8830791 129.339392,11.6808803 128.698642,11.6808803 C127.969945,11.6808803 127.442277,11.9023362 127.11562,12.3452545 C126.788963,12.7881728 126.625637,13.5167304 126.625637,14.5309491 L126.625637,19.7496561 L123.949576,19.7496561 L123.949576,9.79367263 Z M135.369949,6 L138.04601,6 L138.04601,13.3755158 L141.419355,9.79367263 L144.585399,9.79367263 L140.910526,13.4525447 L145,19.7496561 L141.758574,19.7496561 L139.082513,15.301238 L138.04601,16.3218707 L138.04601,19.7496561 L135.369949,19.7496561 L135.369949,6 Z" id="FinanceBank-Copy"></path>
                <g id="Group-6-Copy">
                    <polygon id="Fill-1" points="0 0 0 20.2345748 3.48355324 14.2242415 4.59657793 12.2973175 6.62998843 13.2690737 8.98446373 14.3922654 12.5359757 7.85699113 13.7517411 5.61863426 15.9403329 6.97031713 19.066434 8.90045177 23.3585355 2.62202932 25.1511474 0"></polygon>
                    <polygon id="Path" points="19.5860239 11.8189309 14.5067785 8.65162654 9.88130478 17.238505 5.46345293 15.1050293 0.00535108025 24.6197851 25.1554282 24.6197851 25.1554282 3.59325039"></polygon>
                </g>
            </g>
        </g>
    </g>
</svg>