<?xml version="1.0" encoding="UTF-8"?>
<svg width="16px" height="16px" viewBox="0 0 16 16" version="1.1" xmlns="http://www.w3.org/2000/svg" xmlns:xlink="http://www.w3.org/1999/xlink">
    <!-- Generator: Sketch 52.6 (67491) - http://www.bohemiancoding.com/sketch -->
    <title>Fill 1 Copy 8</title>
    <desc>Created with Sketch.</desc>
    <g id="Page-1" stroke="none" stroke-width="1" fill="none" fill-rule="evenodd">
        <g id="airline-manage-account" transform="translate(-487.000000, -425.000000)" fill="#000000">
            <path d="M499,431.6 L496.4,429 L498,427.4 L500.6,430 L499,431.6 Z M491.6,439 L489,439 L489,436.4 L495,430.4 L497.6,433 L491.6,439 Z M498.7,425.3 C498.3,424.9 497.7,424.9 497.3,425.3 L487.3,435.3 C487.1,435.5 487,435.7 487,436 L487,440 C487,440.6 487.4,441 488,441 L492,441 C492.3,441 492.5,440.9 492.7,440.7 L502.7,430.7 C503.1,430.3 503.1,429.7 502.7,429.3 L498.7,425.3 Z" id="Fill-1-Copy-8"></path>
        </g>
    </g>
</svg>