<svg id="quote_sprite" xmlns="http://www.w3.org/2000/svg">
  <defs>
    <style>
      .cls-1, .cls-16, .cls-3 {
        fill: #e6e6e6;
      }

      .cls-1, .cls-10, .cls-5, .cls-7 {
        stroke: #8e8e8e;
      }

      .cls-1, .cls-10, .cls-11, .cls-12, .cls-13, .cls-14, .cls-15, .cls-2, .cls-3, .cls-4, .cls-5, .cls-7, .cls-8, .cls-9 {
        stroke-linecap: round;
      }

      .cls-1, .cls-11, .cls-13, .cls-15, .cls-2, .cls-3, .cls-4, .cls-5, .cls-7, .cls-8, .cls-9 {
        stroke-linejoin: round;
      }

      .cls-1, .cls-10, .cls-11, .cls-12, .cls-13, .cls-14, .cls-15, .cls-2, .cls-3, .cls-4, .cls-5, .cls-6, .cls-7, .cls-8, .cls-9 {
        stroke-width: 2px;
      }

      .cls-10, .cls-11, .cls-12, .cls-13, .cls-18, .cls-2, .cls-5, .cls-6 {
        fill: #fff;
      }

      .cls-15, .cls-2, .cls-6 {
        stroke: #e1261c;
      }

      .cls-11, .cls-12, .cls-3, .cls-8 {
        stroke: #6e6e6e;
      }

      .cls-14, .cls-17, .cls-4 {
        fill: #f3f3f3;
      }

      .cls-13, .cls-14, .cls-4, .cls-9 {
        stroke: #505050;
      }

      .cls-10, .cls-12, .cls-14, .cls-6 {
        stroke-miterlimit: 10;
      }

      .cls-15, .cls-7, .cls-8, .cls-9 {
        fill: none;
      }
    </style>

<view id="auto_default" viewBox="0 0 80 80"/>
<view id="auto_hover" viewBox="0 80 80 80"/>
<view id="auto_active" viewBox="0 160 80 80"/>
<view id="auto_selected" viewBox="0 240 80 80"/>

<view id="homeowners_default" viewBox="80 0 80 80"/>
<view id="homeowners_hover" viewBox="80 80 80 80"/>
<view id="homeowners_active" viewBox="80 160 80 80"/>
<view id="homeowners_selected" viewBox="80 240 80 80"/>

<view id="life_default" viewBox="160 0 80 80"/>
<view id="life_hover" viewBox="160 80 80 80"/>
<view id="life_active" viewBox="160 160 80 80"/>
<view id="life_selected" viewBox="160 240 80 80"/>

<view id="long_term_care_default" viewBox="240 0 80 80"/>
<view id="long_term_care_hover" viewBox="240 80 80 80"/>
<view id="long_term_care_active" viewBox="240 160 80 80"/>
<view id="long_term_care_selected" viewBox="240 240 80 80"/>

<view id="condo_owners_default" viewBox="320 0 80 80"/>
<view id="condo_owners_hover" viewBox="320 80 80 80"/>
<view id="condo_owners_active" viewBox="320 160 80 80"/>
<view id="condo_owners_selected" viewBox="320 240 80 80"/>

<view id="renters_default" viewBox="400 0 80 80"/>
<view id="renters_hover" viewBox="400 80 80 80"/>
<view id="renters_active" viewBox="400 160 80 80"/>
<view id="renters_selected" viewBox="400 240 80 80"/>

<view id="hospital_income_default" viewBox="480 0 80 80"/>
<view id="hospital_income_hover" viewBox="480 80 80 80"/>
<view id="hospital_income_active" viewBox="480 160 80 80"/>
<view id="hospital_income_selected" viewBox="480 240 80 80"/>

<view id="medicare_supplement_default" viewBox="560 0 80 80"/>
<view id="medicare_supplement_hover" viewBox="560 80 80 80"/>
<view id="medicare_supplement_active" viewBox="560 160 80 80"/>
<view id="medicare_supplement_selected" viewBox="560 240 80 80"/>

<view id="small_business_default" viewBox="640 0 80 80"/>
<view id="small_business_hover" viewBox="640 80 80 80"/>
<view id="small_business_active" viewBox="640 160 80 80"/>
<view id="small_business_selected" viewBox="640 240 80 80"/>

<view id="pet_insurance_default" viewBox="720 0 80 80"/>
<view id="pet_insurance_hover" viewBox="720 80 80 80"/>
<view id="pet_insurance_active" viewBox="720 160 80 80"/>
<view id="pet_insurance_selected" viewBox="720 240 80 80"/>
      
  </defs>
  <title>quote_sprite</title>
  <g id="pet_insurance_selected">
    <path class="cls-1" d="M748.618,281.642l-5.3,10c-4.4,8.3,3.1,18.1,11.3,14.7l.5-.2a12.193,12.193,0,0,1,9.9,0l.5.2c8.1,3.5,15.7-6.3,11.3-14.7l-5.3-10C765.918,272.742,754.118,272.742,748.618,281.642Z"/>
    <ellipse class="cls-2" cx="750.01" cy="260.925" rx="6" ry="8" transform="translate(-12.631 39.622) rotate(-3.001)"/>
    <ellipse class="cls-2" cx="735.215" cy="276.057" rx="5" ry="7" transform="translate(-48.673 228.43) rotate(-17.103)"/>
    <ellipse class="cls-2" cx="784.785" cy="276.072" rx="7" ry="5" transform="translate(290.122 944.96) rotate(-72.897)"/>
    <ellipse class="cls-2" cx="769.998" cy="260.95" rx="8" ry="6" transform="translate(467.726 1015.685) rotate(-86.895)"/>
  </g>
  <g id="pet_insurance_hover">
    <path class="cls-3" d="M748.618,201.642l-5.3,10c-4.4,8.3,3.1,18.1,11.3,14.7l.5-.2a12.193,12.193,0,0,1,9.9,0l.5.2c8.1,3.5,15.7-6.3,11.3-14.7l-5.3-10C765.918,192.742,754.118,192.742,748.618,201.642Z"/>
    <ellipse class="cls-2" cx="750.01" cy="180.925" rx="6" ry="8" transform="translate(-8.443 39.512) rotate(-3.001)"/>
    <ellipse class="cls-2" cx="735.215" cy="196.057" rx="5" ry="7" transform="translate(-25.145 224.892) rotate(-17.103)"/>
    <ellipse class="cls-2" cx="784.785" cy="196.072" rx="7" ry="5" transform="translate(366.585 888.487) rotate(-72.897)"/>
    <ellipse class="cls-2" cx="769.998" cy="180.95" rx="8" ry="6" transform="translate(547.609 940.017) rotate(-86.895)"/>
  </g>
  <g id="pet_insurance_active">
    <path class="cls-4" d="M748.618,121.642l-5.3,10c-4.4,8.3,3.1,18.1,11.3,14.7l.5-.2a12.193,12.193,0,0,1,9.9,0l.5.2c8.1,3.5,15.7-6.3,11.3-14.7l-5.3-10C765.918,112.742,754.118,112.742,748.618,121.642Z"/>
    <ellipse class="cls-2" cx="750.01" cy="100.925" rx="6" ry="8" transform="translate(-4.255 39.403) rotate(-3.001)"/>
    <ellipse class="cls-2" cx="735.215" cy="116.057" rx="5" ry="7" transform="translate(-1.618 221.354) rotate(-17.103)"/>
    <ellipse class="cls-2" cx="784.785" cy="116.072" rx="7" ry="5" transform="translate(443.047 832.015) rotate(-72.897)"/>
    <ellipse class="cls-2" cx="769.998" cy="100.95" rx="8" ry="6" transform="translate(627.491 864.35) rotate(-86.895)"/>
  </g>
  <g id="pet_insurance_default">
    <path class="cls-5" d="M748.618,41.642l-5.3,10c-4.4,8.3,3.1,18.1,11.3,14.7l.5-.2a12.193,12.193,0,0,1,9.9,0l.5.2c8.1,3.5,15.7-6.3,11.3-14.7l-5.3-10C765.918,32.742,754.118,32.742,748.618,41.642Z"/>
    <ellipse class="cls-2" cx="750.01" cy="20.925" rx="6" ry="8" transform="translate(-0.067 39.293) rotate(-3.001)"/>
    <ellipse class="cls-2" cx="735.215" cy="36.057" rx="5" ry="7" transform="translate(21.91 217.816) rotate(-17.103)"/>
    <ellipse class="cls-2" cx="784.785" cy="36.072" rx="7" ry="5" transform="translate(519.509 775.542) rotate(-72.897)"/>
    <ellipse class="cls-2" cx="769.998" cy="20.95" rx="8" ry="6" transform="translate(707.374 788.683) rotate(-86.895)"/>
  </g>
  <g id="small_business_selected">
    <path class="cls-1" d="M711.25,276.795c0,.129-.936.2-1.563.2a8.46,8.46,0,0,1-3.9-.962l-3.679-1.887-3.16,1.607a8.961,8.961,0,0,1-8.078,0l-3.192-1.607-3.195,1.607a9.016,9.016,0,0,1-8.1,0l-3.2-1.607-3.2,1.607a9.02,9.02,0,0,1-8.106,0l-3.2-1.607-3.59,1.8a9.7,9.7,0,0,1-4.3,1.044,17.79,17.79,0,0,1-2.032-.2v32.8a1.817,1.817,0,0,0,1.813,1.822h36.125V292.4a1.817,1.817,0,0,1,1.813-1.822h8.438a1.817,1.817,0,0,1,1.813,1.822v19.018h10.687a1.817,1.817,0,0,0,1.813-1.822Z"/>
    <path class="cls-1" d="M711.844,276.771a8.92,8.92,0,0,1-5.913-.761l-3.753-1.887-3.2,1.607a9.02,9.02,0,0,1-8.106,0l-3.2-1.607-3.2,1.607a9.02,9.02,0,0,1-8.106,0l-3.2-1.607-3.2,1.607a9.02,9.02,0,0,1-8.106,0l-3.2-1.607-3.753,1.887a8.921,8.921,0,0,1-5.913.761l-.646-.112-4.615-1.475v-9.9l10.094-9.165h53.167l9.239,9.165v9.9l-4.187,1.475Z"/>
    <path class="cls-1" d="M707.5,256.123v-5.718a1.823,1.823,0,0,0-1.812-1.822H655.563a1.823,1.823,0,0,0-1.812,1.822v5.718Z"/>
    <path class="cls-2" d="M672.5,298.285a1.817,1.817,0,0,1-1.812,1.822H659.313a1.817,1.817,0,0,1-1.812-1.822v-8.922a1.817,1.817,0,0,1,1.813-1.822h11.375a1.817,1.817,0,0,1,1.813,1.822Z"/>
  </g>
  <g id="small_business_hover">
    <path class="cls-3" d="M711.25,196.795c0,.129-.936.2-1.563.2a8.46,8.46,0,0,1-3.9-.962l-3.679-1.887-3.16,1.607a8.961,8.961,0,0,1-8.078,0l-3.192-1.607-3.195,1.607a9.016,9.016,0,0,1-8.1,0l-3.2-1.607-3.2,1.607a9.02,9.02,0,0,1-8.106,0l-3.2-1.607-3.59,1.8a9.7,9.7,0,0,1-4.3,1.044,17.79,17.79,0,0,1-2.032-.2v32.8a1.817,1.817,0,0,0,1.813,1.822h36.125V212.4a1.817,1.817,0,0,1,1.813-1.822h8.438a1.817,1.817,0,0,1,1.813,1.822v19.018h10.687a1.817,1.817,0,0,0,1.813-1.822Z"/>
    <path class="cls-3" d="M711.844,196.771a8.92,8.92,0,0,1-5.913-.761l-3.753-1.887-3.2,1.607a9.02,9.02,0,0,1-8.106,0l-3.2-1.607-3.2,1.607a9.02,9.02,0,0,1-8.106,0l-3.2-1.607-3.2,1.607a9.02,9.02,0,0,1-8.106,0l-3.2-1.607-3.753,1.887a8.921,8.921,0,0,1-5.913.761l-.646-.112-4.615-1.475v-9.9l10.094-9.165h53.167l9.239,9.165v9.9l-4.187,1.475Z"/>
    <path class="cls-3" d="M707.5,176.123v-5.718a1.823,1.823,0,0,0-1.812-1.822H655.563a1.823,1.823,0,0,0-1.812,1.822v5.718Z"/>
    <path class="cls-6" d="M672.5,218.285a1.817,1.817,0,0,1-1.812,1.822H659.313a1.817,1.817,0,0,1-1.812-1.822v-8.922a1.817,1.817,0,0,1,1.813-1.822h11.375a1.817,1.817,0,0,1,1.813,1.822Z"/>
  </g>
  <g id="small_business_active">
    <path class="cls-4" d="M711.25,116.795c0,.129-.936.2-1.563.2a8.46,8.46,0,0,1-3.9-.962l-3.679-1.887-3.16,1.607a8.961,8.961,0,0,1-8.078,0l-3.192-1.607-3.195,1.607a9.016,9.016,0,0,1-8.1,0l-3.2-1.607-3.2,1.607a9.02,9.02,0,0,1-8.106,0l-3.2-1.607-3.59,1.8a9.7,9.7,0,0,1-4.3,1.044,17.79,17.79,0,0,1-2.032-.2v32.8a1.817,1.817,0,0,0,1.813,1.822h36.125V132.4a1.817,1.817,0,0,1,1.813-1.822h8.438a1.817,1.817,0,0,1,1.813,1.822v19.018h10.687a1.817,1.817,0,0,0,1.813-1.822Z"/>
    <path class="cls-4" d="M711.844,116.771a8.92,8.92,0,0,1-5.913-.761l-3.753-1.887-3.2,1.607a9.02,9.02,0,0,1-8.106,0l-3.2-1.607-3.2,1.607a9.02,9.02,0,0,1-8.106,0l-3.2-1.607-3.2,1.607a9.02,9.02,0,0,1-8.106,0l-3.2-1.607-3.753,1.887a8.921,8.921,0,0,1-5.913.761l-.646-.112-4.615-1.475v-9.9l10.094-9.165h53.167l9.239,9.165v9.9l-4.187,1.475Z"/>
    <path class="cls-4" d="M707.5,96.123V90.406a1.823,1.823,0,0,0-1.812-1.822H655.563a1.823,1.823,0,0,0-1.812,1.822v5.718Z"/>
    <path class="cls-2" d="M672.5,138.285a1.817,1.817,0,0,1-1.812,1.822H659.313a1.817,1.817,0,0,1-1.812-1.822v-8.922a1.817,1.817,0,0,1,1.813-1.822h11.375a1.817,1.817,0,0,1,1.813,1.822Z"/>
  </g>
  <g id="small_business_default">
    <path class="cls-5" d="M711.25,36.795c0,.129-.936.2-1.563.2a8.46,8.46,0,0,1-3.9-.962L702.1,34.148l-3.16,1.607a8.961,8.961,0,0,1-8.078,0l-3.192-1.607-3.195,1.607a9.016,9.016,0,0,1-8.1,0l-3.2-1.607-3.2,1.607a9.02,9.02,0,0,1-8.106,0l-3.2-1.607-3.59,1.8a9.7,9.7,0,0,1-4.3,1.044,17.79,17.79,0,0,1-2.032-.2v32.8a1.817,1.817,0,0,0,1.813,1.822h36.125V52.4a1.817,1.817,0,0,1,1.813-1.822h8.438A1.817,1.817,0,0,1,698.75,52.4V71.417h10.687a1.817,1.817,0,0,0,1.813-1.822Z"/>
    <path class="cls-5" d="M711.844,36.771a8.92,8.92,0,0,1-5.913-.761l-3.753-1.887-3.2,1.607a9.02,9.02,0,0,1-8.106,0l-3.2-1.607-3.2,1.607a9.02,9.02,0,0,1-8.106,0l-3.2-1.607-3.2,1.607a9.02,9.02,0,0,1-8.106,0l-3.2-1.607-3.753,1.887a8.921,8.921,0,0,1-5.913.761l-.646-.112-4.615-1.475v-9.9l10.094-9.165h53.167l9.239,9.165v9.9l-4.187,1.475Z"/>
    <path class="cls-5" d="M707.5,16.123V10.406a1.823,1.823,0,0,0-1.812-1.822H655.563a1.823,1.823,0,0,0-1.812,1.822v5.718Z"/>
    <path class="cls-2" d="M672.5,58.285a1.817,1.817,0,0,1-1.812,1.822H659.313a1.817,1.817,0,0,1-1.812-1.822V49.362a1.817,1.817,0,0,1,1.813-1.822h11.375a1.817,1.817,0,0,1,1.813,1.822Z"/>
  </g>
  <g id="medicare_supplement_selected">
    <polyline id="_Path_48" data-name=" Path 48" class="cls-7" points="582.41 253.839 582.41 245.329 607.93 245.329 607.93 253.839"/>
    <polyline class="cls-1" points="618 304.859 563.27 304.859 563.27 253.839 627.08 253.839 627.08 282"/>
    <path id="_Path_51" data-name=" Path 51" class="cls-1" d="M619.65,306.819c-.11.1-.22.18-.32.28a3.35,3.35,0,0,0-1,3c.34,1.6,1.84,2.68,3.25,3.34a15,15,0,0,0,10.64.48,7.48,7.48,0,0,0,3.95-2.61,3.11,3.11,0,0,0,0-3.54,5.34,5.34,0,0,0-.83-1"/>
    <path id="_Path_52" data-name=" Path 52" class="cls-1" d="M619.65,301.349c-.11.1-.22.18-.32.28a3.35,3.35,0,0,0-1,3c.34,1.6,1.84,2.68,3.25,3.34a15,15,0,0,0,10.59.5,7.48,7.48,0,0,0,4-2.63,3.11,3.11,0,0,0,0-3.54,5.34,5.34,0,0,0-.83-1"/>
    <path id="_Path_53" data-name=" Path 53" class="cls-1" d="M619.65,295.949c-.11.1-.22.18-.32.28a3.35,3.35,0,0,0-1,3c.34,1.6,1.84,2.68,3.25,3.34a15,15,0,0,0,10.64.48,7.48,7.48,0,0,0,3.95-2.58,3.11,3.11,0,0,0,0-3.54,5.34,5.34,0,0,0-.83-1"/>
    <path id="_Path_54" data-name=" Path 54" class="cls-1" d="M619.65,290.539c-.11.1-.22.18-.32.28a3.35,3.35,0,0,0-1,3c.34,1.6,1.84,2.68,3.25,3.34a15,15,0,0,0,10.64.48,7.48,7.48,0,0,0,3.95-2.61,3.11,3.11,0,0,0,0-3.56,5.34,5.34,0,0,0-.83-1"/>
    <path id="_Path_50" data-name=" Path 50" class="cls-1" d="M627.49,282.619c-2.79,0-6.15.62-8.16,2.71a3.35,3.35,0,0,0-1,3c.34,1.6,1.84,2.68,3.25,3.34a15,15,0,0,0,10.63.48,7.47,7.47,0,0,0,3.96-2.61,3.11,3.11,0,0,0,0-3.54C634.45,283.339,630.42,282.619,627.49,282.619Z"/>
    <polygon id="_Path_49" data-name=" Path 49" class="cls-2" points="605.8 275.099 599.42 275.099 599.42 268.719 590.92 268.719 590.92 275.099 584.54 275.099 584.54 283.599 590.92 283.599 590.92 289.979 599.42 289.979 599.42 283.599 605.8 283.599 605.8 275.099"/>
  </g>
  <g id="medicare_supplement_hover">
    <polyline id="_Path_48-2" data-name=" Path 48" class="cls-8" points="582.41 173.839 582.41 165.329 607.93 165.329 607.93 173.839"/>
    <polyline class="cls-3" points="618 224.859 563.27 224.859 563.27 173.839 627.08 173.839 627.08 202"/>
    <path id="_Path_51-2" data-name=" Path 51" class="cls-3" d="M619.65,226.819c-.11.1-.22.18-.32.28a3.35,3.35,0,0,0-1,3c.34,1.6,1.84,2.68,3.25,3.34a15,15,0,0,0,10.64.48,7.48,7.48,0,0,0,3.95-2.61,3.11,3.11,0,0,0,0-3.54,5.34,5.34,0,0,0-.83-1"/>
    <path id="_Path_52-2" data-name=" Path 52" class="cls-3" d="M619.65,221.349c-.11.1-.22.18-.32.28a3.35,3.35,0,0,0-1,3c.34,1.6,1.84,2.68,3.25,3.34a15,15,0,0,0,10.59.5,7.48,7.48,0,0,0,4-2.63,3.11,3.11,0,0,0,0-3.54,5.34,5.34,0,0,0-.83-1"/>
    <path id="_Path_53-2" data-name=" Path 53" class="cls-3" d="M619.65,215.949c-.11.1-.22.18-.32.28a3.35,3.35,0,0,0-1,3c.34,1.6,1.84,2.68,3.25,3.34a15,15,0,0,0,10.64.48,7.48,7.48,0,0,0,3.95-2.58,3.11,3.11,0,0,0,0-3.54,5.34,5.34,0,0,0-.83-1"/>
    <path id="_Path_54-2" data-name=" Path 54" class="cls-3" d="M619.65,210.539c-.11.1-.22.18-.32.28a3.35,3.35,0,0,0-1,3c.34,1.6,1.84,2.68,3.25,3.34a15,15,0,0,0,10.64.48,7.48,7.48,0,0,0,3.95-2.61,3.11,3.11,0,0,0,0-3.56,5.34,5.34,0,0,0-.83-1"/>
    <path id="_Path_50-2" data-name=" Path 50" class="cls-3" d="M627.49,202.619c-2.79,0-6.15.62-8.16,2.71a3.35,3.35,0,0,0-1,3c.34,1.6,1.84,2.68,3.25,3.34a15,15,0,0,0,10.63.48,7.47,7.47,0,0,0,3.96-2.61,3.11,3.11,0,0,0,0-3.54C634.45,203.339,630.42,202.619,627.49,202.619Z"/>
    <polygon id="_Path_49-2" data-name=" Path 49" class="cls-2" points="605.8 195.099 599.42 195.099 599.42 188.719 590.92 188.719 590.92 195.099 584.54 195.099 584.54 203.599 590.92 203.599 590.92 209.979 599.42 209.979 599.42 203.599 605.8 203.599 605.8 195.099"/>
  </g>
  <g id="medicare_supplement_active">
    <polyline id="_Path_48-3" data-name=" Path 48" class="cls-9" points="582.41 93.839 582.41 85.329 607.93 85.329 607.93 93.839"/>
    <polyline class="cls-4" points="618 144.859 563.27 144.859 563.27 93.839 627.08 93.839 627.08 122"/>
    <path id="_Path_51-3" data-name=" Path 51" class="cls-4" d="M619.65,146.819c-.11.1-.22.18-.32.28a3.35,3.35,0,0,0-1,3c.34,1.6,1.84,2.68,3.25,3.34a15,15,0,0,0,10.64.48,7.48,7.48,0,0,0,3.95-2.61,3.11,3.11,0,0,0,0-3.54,5.34,5.34,0,0,0-.83-1"/>
    <path id="_Path_52-3" data-name=" Path 52" class="cls-4" d="M619.65,141.349c-.11.1-.22.18-.32.28a3.35,3.35,0,0,0-1,3c.34,1.6,1.84,2.68,3.25,3.34a15,15,0,0,0,10.59.5,7.48,7.48,0,0,0,4-2.63,3.11,3.11,0,0,0,0-3.54,5.34,5.34,0,0,0-.83-1"/>
    <path id="_Path_53-3" data-name=" Path 53" class="cls-4" d="M619.65,135.949c-.11.1-.22.18-.32.28a3.35,3.35,0,0,0-1,3c.34,1.6,1.84,2.68,3.25,3.34a15,15,0,0,0,10.64.48,7.48,7.48,0,0,0,3.95-2.58,3.11,3.11,0,0,0,0-3.54,5.34,5.34,0,0,0-.83-1"/>
    <path id="_Path_54-3" data-name=" Path 54" class="cls-4" d="M619.65,130.539c-.11.1-.22.18-.32.28a3.35,3.35,0,0,0-1,3c.34,1.6,1.84,2.68,3.25,3.34a15,15,0,0,0,10.64.48,7.48,7.48,0,0,0,3.95-2.61,3.11,3.11,0,0,0,0-3.56,5.34,5.34,0,0,0-.83-1"/>
    <path id="_Path_50-3" data-name=" Path 50" class="cls-4" d="M627.49,122.619c-2.79,0-6.15.62-8.16,2.71a3.35,3.35,0,0,0-1,3c.34,1.6,1.84,2.68,3.25,3.34a15,15,0,0,0,10.63.48,7.47,7.47,0,0,0,3.96-2.61,3.11,3.11,0,0,0,0-3.54C634.45,123.339,630.42,122.619,627.49,122.619Z"/>
    <polygon id="_Path_49-3" data-name=" Path 49" class="cls-2" points="605.8 115.099 599.42 115.099 599.42 108.719 590.92 108.719 590.92 115.099 584.54 115.099 584.54 123.599 590.92 123.599 590.92 129.979 599.42 129.979 599.42 123.599 605.8 123.599 605.8 115.099"/>
  </g>
  <g id="medicare_supplement_default">
    <polyline id="_Path_48-4" data-name=" Path 48" class="cls-5" points="582.41 13.839 582.41 5.329 607.93 5.329 607.93 13.839"/>
    <polyline class="cls-5" points="618 64.859 563.27 64.859 563.27 13.839 627.08 13.839 627.08 42"/>
    <path id="_Path_51-4" data-name=" Path 51" class="cls-5" d="M619.65,66.819c-.11.1-.22.18-.32.28a3.35,3.35,0,0,0-1,3c.34,1.6,1.84,2.68,3.25,3.34a15,15,0,0,0,10.64.48,7.48,7.48,0,0,0,3.95-2.61,3.11,3.11,0,0,0,0-3.54,5.34,5.34,0,0,0-.83-1"/>
    <path id="_Path_52-4" data-name=" Path 52" class="cls-5" d="M619.65,61.349c-.11.1-.22.18-.32.28a3.35,3.35,0,0,0-1,3c.34,1.6,1.84,2.68,3.25,3.34a15,15,0,0,0,10.59.5,7.48,7.48,0,0,0,4-2.63,3.11,3.11,0,0,0,0-3.54,5.34,5.34,0,0,0-.83-1"/>
    <path id="_Path_53-4" data-name=" Path 53" class="cls-5" d="M619.65,55.949c-.11.1-.22.18-.32.28a3.35,3.35,0,0,0-1,3c.34,1.6,1.84,2.68,3.25,3.34a15,15,0,0,0,10.64.48,7.48,7.48,0,0,0,3.95-2.58,3.11,3.11,0,0,0,0-3.54,5.34,5.34,0,0,0-.83-1"/>
    <path id="_Path_54-4" data-name=" Path 54" class="cls-5" d="M619.65,50.539c-.11.1-.22.18-.32.28a3.35,3.35,0,0,0-1,3c.34,1.6,1.84,2.68,3.25,3.34a15,15,0,0,0,10.64.48,7.48,7.48,0,0,0,3.95-2.61,3.11,3.11,0,0,0,0-3.56,5.34,5.34,0,0,0-.83-1"/>
    <path id="_Path_50-4" data-name=" Path 50" class="cls-5" d="M627.49,42.619c-2.79,0-6.15.62-8.16,2.71a3.35,3.35,0,0,0-1,3c.34,1.6,1.84,2.68,3.25,3.34a15,15,0,0,0,10.63.48,7.47,7.47,0,0,0,3.96-2.61,3.11,3.11,0,0,0,0-3.54C634.45,43.339,630.42,42.619,627.49,42.619Z"/>
    <polygon id="_Path_49-4" data-name=" Path 49" class="cls-2" points="605.8 35.099 599.42 35.099 599.42 28.719 590.92 28.719 590.92 35.099 584.54 35.099 584.54 43.599 590.92 43.599 590.92 49.979 599.42 49.979 599.42 43.599 605.8 43.599 605.8 35.099"/>
  </g>
  <g id="hospital_income_selected">
    <path id="_Path_110" data-name=" Path 110" class="cls-1" d="M537.222,297V254.6h-11.11a10.17,10.17,0,0,1-20.34,0H494.7v56.52h16.26V292.94h10v18.18H528"/>
    <ellipse id="_Path_113" data-name=" Path 113" class="cls-5" cx="515.942" cy="254.15" rx="10.19" ry="10.39"/>
    <line id="_Path_114" data-name=" Path 114" class="cls-10" x1="511.372" y1="254.11" x2="520.502" y2="254.11"/>
    <line id="_Path_115" data-name=" Path 115" class="cls-10" x1="515.942" y1="258.62" x2="515.942" y2="249.48"/>
    <rect id="_Path_116" data-name=" Path 116" class="cls-5" x="499.142" y="268.01" width="13.94" height="7.12" rx="2.09" ry="2.09"/>
    <rect id="_Path_117" data-name=" Path 117" class="cls-5" x="518.792" y="268.01" width="13.94" height="7.12" rx="2.09" ry="2.09"/>
    <rect id="_Path_118" data-name=" Path 118" class="cls-5" x="499.142" y="279.42" width="13.94" height="7.12" rx="2.09" ry="2.09"/>
    <rect id="_Path_119" data-name=" Path 119" class="cls-5" x="518.792" y="279.42" width="13.94" height="7.12" rx="2.09" ry="2.09"/>
    <path id="_Path_120" data-name=" Path 120" class="cls-2" d="M535.562,316.25s10.2-2.8,9.72-16.73c-5.46.87-9.72-3-9.72-3h-.23s-4.26,3.9-9.72,3c-.48,13.93,9.72,16.73,9.72,16.73Z"/>
  </g>
  <g id="hospital_income_hover">
    <path id="_Path_110-2" data-name=" Path 110" class="cls-3" d="M537.222,217V174.6h-11.11a10.17,10.17,0,0,1-20.34,0H494.7v56.52h16.26V212.94h10v18.18H528"/>
    <ellipse id="_Path_113-2" data-name=" Path 113" class="cls-11" cx="515.942" cy="174.15" rx="10.19" ry="10.39"/>
    <line id="_Path_114-2" data-name=" Path 114" class="cls-12" x1="511.372" y1="174.11" x2="520.502" y2="174.11"/>
    <line id="_Path_115-2" data-name=" Path 115" class="cls-12" x1="515.942" y1="178.62" x2="515.942" y2="169.48"/>
    <rect id="_Path_116-2" data-name=" Path 116" class="cls-11" x="499.142" y="188.01" width="13.94" height="7.12" rx="2.09" ry="2.09"/>
    <rect id="_Path_117-2" data-name=" Path 117" class="cls-11" x="518.792" y="188.01" width="13.94" height="7.12" rx="2.09" ry="2.09"/>
    <rect id="_Path_118-2" data-name=" Path 118" class="cls-11" x="499.142" y="199.42" width="13.94" height="7.12" rx="2.09" ry="2.09"/>
    <rect id="_Path_119-2" data-name=" Path 119" class="cls-11" x="518.792" y="199.42" width="13.94" height="7.12" rx="2.09" ry="2.09"/>
    <path id="_Path_120-2" data-name=" Path 120" class="cls-2" d="M535.562,236.25s10.2-2.8,9.72-16.73c-5.46.87-9.72-3-9.72-3h-.23s-4.26,3.9-9.72,3c-.48,13.93,9.72,16.73,9.72,16.73Z"/>
  </g>
  <g id="hospital_income_active">
    <path id="_Path_110-3" data-name=" Path 110" class="cls-4" d="M537.222,137V94.6h-11.11a10.17,10.17,0,0,1-20.34,0H494.7v56.52h16.26V132.94h10v18.18H528"/>
    <ellipse id="_Path_113-3" data-name=" Path 113" class="cls-13" cx="515.942" cy="94.15" rx="10.19" ry="10.39"/>
    <line id="_Path_114-3" data-name=" Path 114" class="cls-14" x1="511.372" y1="94.11" x2="520.502" y2="94.11"/>
    <line id="_Path_115-3" data-name=" Path 115" class="cls-14" x1="515.942" y1="98.62" x2="515.942" y2="89.48"/>
    <rect id="_Path_116-3" data-name=" Path 116" class="cls-13" x="499.142" y="108.01" width="13.94" height="7.12" rx="2.09" ry="2.09"/>
    <rect id="_Path_117-3" data-name=" Path 117" class="cls-13" x="518.792" y="108.01" width="13.94" height="7.12" rx="2.09" ry="2.09"/>
    <rect id="_Path_118-3" data-name=" Path 118" class="cls-13" x="499.142" y="119.42" width="13.94" height="7.12" rx="2.09" ry="2.09"/>
    <rect id="_Path_119-3" data-name=" Path 119" class="cls-13" x="518.792" y="119.42" width="13.94" height="7.12" rx="2.09" ry="2.09"/>
    <path id="_Path_120-3" data-name=" Path 120" class="cls-2" d="M535.562,156.25s10.2-2.8,9.72-16.73c-5.46.87-9.72-3-9.72-3h-.23s-4.26,3.9-9.72,3c-.48,13.93,9.72,16.73,9.72,16.73Z"/>
  </g>
  <g id="hospital_income_default">
    <path id="_Path_110-4" data-name=" Path 110" class="cls-5" d="M537.222,57V14.6h-11.11a10.17,10.17,0,0,1-20.34,0H494.7V71.12h16.26V52.94h10V71.12H528"/>
    <ellipse id="_Path_113-4" data-name=" Path 113" class="cls-5" cx="515.942" cy="14.15" rx="10.19" ry="10.39"/>
    <line id="_Path_114-4" data-name=" Path 114" class="cls-10" x1="511.372" y1="14.11" x2="520.502" y2="14.11"/>
    <line id="_Path_115-4" data-name=" Path 115" class="cls-10" x1="515.942" y1="18.62" x2="515.942" y2="9.48"/>
    <rect id="_Path_116-4" data-name=" Path 116" class="cls-5" x="499.142" y="28.01" width="13.94" height="7.12" rx="2.09" ry="2.09"/>
    <rect id="_Path_117-4" data-name=" Path 117" class="cls-5" x="518.792" y="28.01" width="13.94" height="7.12" rx="2.09" ry="2.09"/>
    <rect id="_Path_118-4" data-name=" Path 118" class="cls-5" x="499.142" y="39.42" width="13.94" height="7.12" rx="2.09" ry="2.09"/>
    <rect id="_Path_119-4" data-name=" Path 119" class="cls-5" x="518.792" y="39.42" width="13.94" height="7.12" rx="2.09" ry="2.09"/>
    <path id="_Path_120-4" data-name=" Path 120" class="cls-2" d="M535.562,76.25s10.2-2.8,9.72-16.73c-5.46.87-9.72-3-9.72-3h-.23s-4.26,3.9-9.72,3c-.48,13.93,9.72,16.73,9.72,16.73Z"/>
  </g>
  <g id="renters_selected">
    <path id="_Path_146" data-name=" Path 146" class="cls-1" d="M449.861,291.11h-39.47v-8.63h-3.08a1.85,1.85,0,0,1-1.85-1.85h0v-16.7a2.33,2.33,0,0,1,1.23-1.85,58.12,58.12,0,0,1,46.87,0,2.32,2.32,0,0,1,1.23,1.85v16.7a1.86,1.86,0,0,1-1.85,1.85h-3.08Z"/>
    <path id="_Path_147" data-name=" Path 147" class="cls-1" d="M455.411,282.46h-5.55v8.63h-39.47v-8.63h-5.55a2,2,0,0,0-1.85,2.06v24.41a1.86,1.86,0,0,0,1.85,1.85h3.08v3.15c0,1,1.44,1.85,2.47,1.85h3.08a1.85,1.85,0,0,0,1.85-1.85h0v-3.11h29.6v3.11a1.85,1.85,0,0,0,1.85,1.85h3.7a1.85,1.85,0,0,0,1.85-1.85v-3.11h3.08a1.85,1.85,0,0,0,1.86-1.84q0-.025,0-.05V284.31A1.85,1.85,0,0,0,455.411,282.46Z"/>
    <line id="_Path_148" data-name=" Path 148" class="cls-1" x1="465.891" y1="314.22" x2="465.891" y2="259.02"/>
    <line id="_Path_149" data-name=" Path 149" class="cls-1" x1="457.261" y1="315.76" x2="474.521" y2="315.76"/>
    <path id="_Path_150" data-name=" Path 150" class="cls-2" d="M457.131,259.02a1.86,1.86,0,0,1-1-.3,2.57,2.57,0,0,1-1.33-1.55v-.86a1.84,1.84,0,0,1,.15-.72l4.32-10.21a1.85,1.85,0,0,1,1.72-1.16h9.84a1.85,1.85,0,0,1,1.71,1.15l4.32,10.22a1.85,1.85,0,0,1,.15.72v.86a2.57,2.57,0,0,1-1.33,1.55,1.86,1.86,0,0,1-1,.3Z"/>
  </g>
  <g id="renters_hover">
    <path id="_Path_146-2" data-name=" Path 146" class="cls-3" d="M449.861,211.11h-39.47v-8.63h-3.08a1.85,1.85,0,0,1-1.85-1.85h0v-16.7a2.33,2.33,0,0,1,1.23-1.85,58.12,58.12,0,0,1,46.87,0,2.32,2.32,0,0,1,1.23,1.85v16.7a1.86,1.86,0,0,1-1.85,1.85h-3.08Z"/>
    <path id="_Path_147-2" data-name=" Path 147" class="cls-3" d="M455.411,202.46h-5.55v8.63h-39.47v-8.63h-5.55a2,2,0,0,0-1.85,2.06v24.41a1.86,1.86,0,0,0,1.85,1.85h3.08v3.15c0,1,1.44,1.85,2.47,1.85h3.08a1.85,1.85,0,0,0,1.85-1.85h0v-3.11h29.6v3.11a1.85,1.85,0,0,0,1.85,1.85h3.7a1.85,1.85,0,0,0,1.85-1.85v-3.11h3.08a1.85,1.85,0,0,0,1.86-1.84q0-.025,0-.05V204.31A1.85,1.85,0,0,0,455.411,202.46Z"/>
    <line id="_Path_148-2" data-name=" Path 148" class="cls-3" x1="465.891" y1="234.22" x2="465.891" y2="179.02"/>
    <line id="_Path_149-2" data-name=" Path 149" class="cls-3" x1="457.261" y1="235.76" x2="474.521" y2="235.76"/>
    <path id="_Path_150-2" data-name=" Path 150" class="cls-2" d="M457.131,179.02a1.86,1.86,0,0,1-1-.3,2.57,2.57,0,0,1-1.33-1.55v-.86a1.84,1.84,0,0,1,.15-.72l4.32-10.21a1.85,1.85,0,0,1,1.72-1.16h9.84a1.85,1.85,0,0,1,1.71,1.15l4.32,10.22a1.85,1.85,0,0,1,.15.72v.86a2.57,2.57,0,0,1-1.33,1.55,1.86,1.86,0,0,1-1,.3Z"/>
  </g>
  <g id="renters_active">
    <path id="_Path_146-3" data-name=" Path 146" class="cls-4" d="M449.861,131.11h-39.47v-8.63h-3.08a1.85,1.85,0,0,1-1.85-1.85h0v-16.7a2.33,2.33,0,0,1,1.23-1.85,58.12,58.12,0,0,1,46.87,0,2.32,2.32,0,0,1,1.23,1.85v16.7a1.86,1.86,0,0,1-1.85,1.85h-3.08Z"/>
    <path id="_Path_147-3" data-name=" Path 147" class="cls-4" d="M455.411,122.46h-5.55v8.63h-39.47v-8.63h-5.55a2,2,0,0,0-1.85,2.06v24.41a1.86,1.86,0,0,0,1.85,1.85h3.08v3.15c0,1,1.44,1.85,2.47,1.85h3.08a1.85,1.85,0,0,0,1.85-1.85h0v-3.11h29.6v3.11a1.85,1.85,0,0,0,1.85,1.85h3.7a1.85,1.85,0,0,0,1.85-1.85v-3.11h3.08a1.85,1.85,0,0,0,1.86-1.84q0-.025,0-.05V124.31A1.85,1.85,0,0,0,455.411,122.46Z"/>
    <line id="_Path_148-3" data-name=" Path 148" class="cls-9" x1="465.891" y1="154.22" x2="465.891" y2="99.02"/>
    <line id="_Path_149-3" data-name=" Path 149" class="cls-9" x1="457.261" y1="155.76" x2="474.521" y2="155.76"/>
    <path id="_Path_150-3" data-name=" Path 150" class="cls-2" d="M457.131,99.02a1.86,1.86,0,0,1-1-.3,2.57,2.57,0,0,1-1.33-1.55v-.86a1.84,1.84,0,0,1,.15-.72l4.32-10.21a1.85,1.85,0,0,1,1.72-1.16h9.84a1.85,1.85,0,0,1,1.71,1.15l4.32,10.22a1.85,1.85,0,0,1,.15.72v.86a2.57,2.57,0,0,1-1.33,1.55,1.86,1.86,0,0,1-1,.3Z"/>
  </g>
  <g id="renters_default">
    <path id="_Path_146-4" data-name=" Path 146" class="cls-5" d="M449.861,51.11h-39.47V42.48h-3.08a1.85,1.85,0,0,1-1.85-1.85h0V23.93a2.33,2.33,0,0,1,1.23-1.85,58.12,58.12,0,0,1,46.87,0,2.32,2.32,0,0,1,1.23,1.85v16.7a1.86,1.86,0,0,1-1.85,1.85h-3.08Z"/>
    <path id="_Path_147-4" data-name=" Path 147" class="cls-5" d="M455.411,42.46h-5.55v8.63h-39.47V42.46h-5.55a2,2,0,0,0-1.85,2.06V68.93a1.86,1.86,0,0,0,1.85,1.85h3.08v3.15c0,1,1.44,1.85,2.47,1.85h3.08a1.85,1.85,0,0,0,1.85-1.85h0V70.82h29.6v3.11a1.85,1.85,0,0,0,1.85,1.85h3.7a1.85,1.85,0,0,0,1.85-1.85V70.82h3.08a1.85,1.85,0,0,0,1.86-1.84q0-.025,0-.05V44.31A1.85,1.85,0,0,0,455.411,42.46Z"/>
    <line id="_Path_148-4" data-name=" Path 148" class="cls-5" x1="465.891" y1="74.22" x2="465.891" y2="19.02"/>
    <line id="_Path_149-4" data-name=" Path 149" class="cls-5" x1="457.261" y1="75.76" x2="474.521" y2="75.76"/>
    <path id="_Path_150-4" data-name=" Path 150" class="cls-2" d="M457.131,19.02a1.86,1.86,0,0,1-1-.3,2.57,2.57,0,0,1-1.33-1.55v-.86a1.84,1.84,0,0,1,.15-.72l4.32-10.21a1.85,1.85,0,0,1,1.72-1.16h9.84a1.85,1.85,0,0,1,1.71,1.15l4.32,10.22a1.85,1.85,0,0,1,.15.72v.86a2.57,2.57,0,0,1-1.33,1.55,1.86,1.86,0,0,1-1,.3Z"/>
  </g>
  <g id="condo_owners_selected">
    <path id="_Path_191" data-name=" Path 191" class="cls-1" d="M332.18,243.75v72.5h22.31V298.81a2,2,0,0,1,1.916-2.08q.087,0,.174,0h7.09a2.06,2.06,0,0,1,2,2.08v17.44h22.29v-72.5Z"/>
    <rect id="_Path_192" data-name=" Path 192" class="cls-5" x="340.55" y="280" width="13.94" height="7.12" rx="2.09" ry="2.09"/>
    <rect id="_Path_193" data-name=" Path 193" class="cls-5" x="340.55" y="266.06" width="13.94" height="7.12" rx="2.09" ry="2.09"/>
    <rect id="_Path_197" data-name=" Path 197" class="cls-5" x="365.65" y="252.11" width="13.94" height="7.12" rx="2.09" ry="2.09"/>
    <rect id="_Path_194" data-name=" Path 194" class="cls-2" x="340.55" y="252.11" width="13.94" height="7.12" rx="2.09" ry="2.09"/>
    <rect id="_Path_195" data-name=" Path 195" class="cls-2" x="365.65" y="280" width="13.94" height="7.12" rx="2.09" ry="2.09"/>
    <rect id="_Path_196" data-name=" Path 196" class="cls-2" x="365.65" y="266.06" width="13.94" height="7.12" rx="2.09" ry="2.09"/>
    <line id="_Path_198" data-name=" Path 198" class="cls-5" x1="391.55" y1="243.75" x2="328.45" y2="243.75"/>
  </g>
  <g id="condo_owners_hover">
    <path id="_Path_191-2" data-name=" Path 191" class="cls-3" d="M332.18,163.75v72.5h22.31V218.81a2,2,0,0,1,1.916-2.08q.087,0,.174,0h7.09a2.06,2.06,0,0,1,2,2.08v17.44h22.29v-72.5Z"/>
    <rect id="_Path_192-2" data-name=" Path 192" class="cls-11" x="340.55" y="200" width="13.94" height="7.12" rx="2.09" ry="2.09"/>
    <rect id="_Path_193-2" data-name=" Path 193" class="cls-11" x="340.55" y="186.06" width="13.94" height="7.12" rx="2.09" ry="2.09"/>
    <rect id="_Path_197-2" data-name=" Path 197" class="cls-11" x="365.65" y="172.11" width="13.94" height="7.12" rx="2.09" ry="2.09"/>
    <rect id="_Path_194-2" data-name=" Path 194" class="cls-2" x="340.55" y="172.11" width="13.94" height="7.12" rx="2.09" ry="2.09"/>
    <rect id="_Path_195-2" data-name=" Path 195" class="cls-2" x="365.65" y="200" width="13.94" height="7.12" rx="2.09" ry="2.09"/>
    <rect id="_Path_196-2" data-name=" Path 196" class="cls-2" x="365.65" y="186.06" width="13.94" height="7.12" rx="2.09" ry="2.09"/>
    <line id="_Path_198-2" data-name=" Path 198" class="cls-3" x1="391.55" y1="163.75" x2="328.45" y2="163.75"/>
  </g>
  <g id="condo_owners_active">
    <path id="_Path_191-3" data-name=" Path 191" class="cls-4" d="M332.18,83.75v72.5h22.31V138.81a2,2,0,0,1,1.916-2.08q.087,0,.174,0h7.09a2.06,2.06,0,0,1,2,2.08v17.44h22.29V83.75Z"/>
    <rect id="_Path_192-3" data-name=" Path 192" class="cls-13" x="340.55" y="120" width="13.94" height="7.12" rx="2.09" ry="2.09"/>
    <rect id="_Path_193-3" data-name=" Path 193" class="cls-13" x="340.55" y="106.06" width="13.94" height="7.12" rx="2.09" ry="2.09"/>
    <rect id="_Path_197-3" data-name=" Path 197" class="cls-13" x="365.65" y="92.11" width="13.94" height="7.12" rx="2.09" ry="2.09"/>
    <rect id="_Path_194-3" data-name=" Path 194" class="cls-2" x="340.55" y="92.11" width="13.94" height="7.12" rx="2.09" ry="2.09"/>
    <rect id="_Path_195-3" data-name=" Path 195" class="cls-2" x="365.65" y="120" width="13.94" height="7.12" rx="2.09" ry="2.09"/>
    <rect id="_Path_196-3" data-name=" Path 196" class="cls-2" x="365.65" y="106.06" width="13.94" height="7.12" rx="2.09" ry="2.09"/>
    <line id="_Path_198-3" data-name=" Path 198" class="cls-4" x1="391.55" y1="83.75" x2="328.45" y2="83.75"/>
  </g>
  <g id="condo_owners_default">
    <path id="_Path_191-4" data-name=" Path 191" class="cls-5" d="M332.18,3.75v72.5h22.31V58.81a2,2,0,0,1,1.916-2.08q.087,0,.174,0h7.09a2.06,2.06,0,0,1,2,2.08V76.25h22.29V3.75Z"/>
    <rect id="_Path_192-4" data-name=" Path 192" class="cls-5" x="340.55" y="40" width="13.94" height="7.12" rx="2.09" ry="2.09"/>
    <rect id="_Path_193-4" data-name=" Path 193" class="cls-5" x="340.55" y="26.06" width="13.94" height="7.12" rx="2.09" ry="2.09"/>
    <rect id="_Path_197-4" data-name=" Path 197" class="cls-5" x="365.65" y="12.11" width="13.94" height="7.12" rx="2.09" ry="2.09"/>
    <rect id="_Path_194-4" data-name=" Path 194" class="cls-2" x="340.55" y="12.11" width="13.94" height="7.12" rx="2.09" ry="2.09"/>
    <rect id="_Path_195-4" data-name=" Path 195" class="cls-2" x="365.65" y="40" width="13.94" height="7.12" rx="2.09" ry="2.09"/>
    <rect id="_Path_196-4" data-name=" Path 196" class="cls-2" x="365.65" y="26.06" width="13.94" height="7.12" rx="2.09" ry="2.09"/>
    <line id="_Path_198-4" data-name=" Path 198" class="cls-5" x1="391.55" y1="3.75" x2="328.45" y2="3.75"/>
  </g>
  <g id="long_term_care_selected">
    <path class="cls-1" d="M304.6,247.49H293.08v5h-25v-5H255.4a1.79,1.79,0,0,0-1.8,1.78h0v65.2a1.79,1.79,0,0,0,1.8,1.78h49.2a1.8,1.8,0,0,0,1.8-1.78v-65.2a1.79,1.79,0,0,0-1.8-1.78Z"/>
    <path class="cls-5" d="M293.08,252.49h-25v-6.74a2,2,0,0,1,2-2h21a2,2,0,0,1,2,2v6.74Z"/>
    <polyline id="_Path_204" data-name=" Path 204" class="cls-15" points="296.62 282.51 287.67 282.51 284.01 296.12 278.13 268.96 273.01 282.51 263.38 282.51"/>
  </g>
  <g id="long_term_care_hover">
    <path class="cls-3" d="M304.6,167.49H293.08v5h-25v-5H255.4a1.79,1.79,0,0,0-1.8,1.78h0v65.2a1.79,1.79,0,0,0,1.8,1.78h49.2a1.8,1.8,0,0,0,1.8-1.78v-65.2a1.79,1.79,0,0,0-1.8-1.78Z"/>
    <path class="cls-11" d="M293.08,172.49h-25v-6.74a2,2,0,0,1,2-2h21a2,2,0,0,1,2,2v6.74Z"/>
    <polyline id="_Path_204-2" data-name=" Path 204" class="cls-15" points="296.62 202.51 287.67 202.51 284.01 216.12 278.13 188.96 273.01 202.51 263.38 202.51"/>
  </g>
  <g id="long_term_care_active">
    <path class="cls-4" d="M304.6,87.49H293.08v5h-25v-5H255.4a1.79,1.79,0,0,0-1.8,1.78h0v65.2a1.79,1.79,0,0,0,1.8,1.78h49.2a1.8,1.8,0,0,0,1.8-1.78V89.27a1.79,1.79,0,0,0-1.8-1.78Z"/>
    <path class="cls-13" d="M293.08,92.49h-25V85.75a2,2,0,0,1,2-2h21a2,2,0,0,1,2,2v6.74Z"/>
    <polyline id="_Path_204-3" data-name=" Path 204" class="cls-15" points="296.62 122.51 287.67 122.51 284.01 136.12 278.13 108.96 273.01 122.51 263.38 122.51"/>
  </g>
  <g id="long_term_care_default">
    <path class="cls-5" d="M304.6,7.49H293.08v5h-25v-5H255.4a1.79,1.79,0,0,0-1.8,1.78h0v65.2a1.79,1.79,0,0,0,1.8,1.78h49.2a1.8,1.8,0,0,0,1.8-1.78V9.27a1.79,1.79,0,0,0-1.8-1.78Z"/>
    <path class="cls-5" d="M293.08,12.49h-25V5.75a2,2,0,0,1,2-2h21a2,2,0,0,1,2,2v6.74Z"/>
    <polyline id="_Path_204-4" data-name=" Path 204" class="cls-2" points="296.62 42.51 287.67 42.51 284.01 56.12 278.13 28.96 273.01 42.51 263.38 42.51"/>
  </g>
  <g id="life_selected">
    <path id="_Path_246" data-name=" Path 246" class="cls-16" d="M177.1,278.207c-3.28,1.84-5.63,4.88-7.88,8-2,2.77-2.11,6.72-2.19,10.1-.05,2.25,0,4.51-.12,6.76h19.88a14.54,14.54,0,0,1,28.58,0h17.88c-.1-2.25-.07-4.51-.12-6.76-.08-3.38-.53-10.72-2.19-13.71a20.07,20.07,0,0,0-8-8.08"/>
    <path id="_Path_246-2" data-name=" Path 246" class="cls-7" d="M177.1,278.207c-3.28,1.84-5.63,4.88-7.88,8-2,2.77-2.11,6.72-2.19,10.1-.05,2.25,0,4.51-.12,6.76h66.34c-.1-2.25-.07-4.51-.12-6.76-.08-3.38-.53-10.72-2.19-13.71a20.07,20.07,0,0,0-8-8.08"/>
    <path id="_Path_248" data-name=" Path 248" class="cls-1" d="M213.67,257.007a10.84,10.84,0,0,0-10.58,11.07,11.14,11.14,0,0,0,5.69,9.81,10.1,10.1,0,0,0,8.23.69,11,11,0,0,0,7.25-10.5A10.84,10.84,0,0,0,213.67,257.007Z"/>
    <path id="_Path_249" data-name=" Path 249" class="cls-1" d="M185.67,260.647a10.84,10.84,0,0,0-10.58,11.07,11.14,11.14,0,0,0,5.69,9.81,10.1,10.1,0,0,0,8.23.69,11,11,0,0,0,7.25-10.5A10.84,10.84,0,0,0,185.67,260.647Z"/>
    <path id="_Path_247" data-name=" Path 247" class="cls-2" d="M215.37,303.077a14.54,14.54,0,0,0-28.58,0"/>
    <path id="_Path_250" data-name=" Path 250" class="cls-2" d="M201.08,274.367a8.25,8.25,0,0,0-8.08,8.41,8.48,8.48,0,0,0,4.33,7.47,7.69,7.69,0,0,0,6.27.53,8.4,8.4,0,0,0,5.52-8A8.25,8.25,0,0,0,201.08,274.367Z"/>
    <line id="_Path_252" data-name=" Path 252" class="cls-1" x1="163" y1="303.087" x2="237" y2="303.087"/>
  </g>
  <g id="life_hover">
    <path id="_Path_246-3" data-name=" Path 246" class="cls-16" d="M177.1,198.207c-3.28,1.84-5.63,4.88-7.88,8-2,2.77-2.11,6.72-2.19,10.1-.05,2.25,0,4.51-.12,6.76h19.88a14.54,14.54,0,0,1,28.58,0h17.88c-.1-2.25-.07-4.51-.12-6.76-.08-3.38-.53-10.72-2.19-13.71a20.07,20.07,0,0,0-8-8.08"/>
    <path id="_Path_246-4" data-name=" Path 246" class="cls-8" d="M177.1,198.207c-3.28,1.84-5.63,4.88-7.88,8-2,2.77-2.11,6.72-2.19,10.1-.05,2.25,0,4.51-.12,6.76h66.34c-.1-2.25-.07-4.51-.12-6.76-.08-3.38-.53-10.72-2.19-13.71a20.07,20.07,0,0,0-8-8.08"/>
    <path id="_Path_248-2" data-name=" Path 248" class="cls-3" d="M213.67,177.007a10.84,10.84,0,0,0-10.58,11.07,11.14,11.14,0,0,0,5.69,9.81,10.1,10.1,0,0,0,8.23.69,11,11,0,0,0,7.25-10.5A10.84,10.84,0,0,0,213.67,177.007Z"/>
    <path id="_Path_249-2" data-name=" Path 249" class="cls-3" d="M185.67,180.647a10.84,10.84,0,0,0-10.58,11.07,11.14,11.14,0,0,0,5.69,9.81,10.1,10.1,0,0,0,8.23.69,11,11,0,0,0,7.25-10.5A10.84,10.84,0,0,0,185.67,180.647Z"/>
    <path id="_Path_247-2" data-name=" Path 247" class="cls-2" d="M215.37,223.077a14.54,14.54,0,0,0-28.58,0"/>
    <path id="_Path_250-2" data-name=" Path 250" class="cls-2" d="M201.08,194.367a8.25,8.25,0,0,0-8.08,8.41,8.48,8.48,0,0,0,4.33,7.47,7.69,7.69,0,0,0,6.27.53,8.4,8.4,0,0,0,5.52-8A8.25,8.25,0,0,0,201.08,194.367Z"/>
    <line id="_Path_252-2" data-name=" Path 252" class="cls-3" x1="163" y1="223.087" x2="237" y2="223.087"/>
  </g>
  <g id="life_active">
    <path id="_Path_246-5" data-name=" Path 246" class="cls-17" d="M177.1,118.207c-3.28,1.84-5.63,4.88-7.88,8-2,2.77-2.11,6.72-2.19,10.1-.05,2.25,0,4.51-.12,6.76h19.88a14.54,14.54,0,0,1,28.58,0h17.88c-.1-2.25-.07-4.51-.12-6.76-.08-3.38-.53-10.72-2.19-13.71a20.07,20.07,0,0,0-8-8.08"/>
    <path id="_Path_246-6" data-name=" Path 246" class="cls-9" d="M177.1,118.207c-3.28,1.84-5.63,4.88-7.88,8-2,2.77-2.11,6.72-2.19,10.1-.05,2.25,0,4.51-.12,6.76h66.34c-.1-2.25-.07-4.51-.12-6.76-.08-3.38-.53-10.72-2.19-13.71a20.07,20.07,0,0,0-8-8.08"/>
    <path id="_Path_248-3" data-name=" Path 248" class="cls-4" d="M213.67,97.007a10.84,10.84,0,0,0-10.58,11.07,11.14,11.14,0,0,0,5.69,9.81,10.1,10.1,0,0,0,8.23.69,11,11,0,0,0,7.25-10.5A10.84,10.84,0,0,0,213.67,97.007Z"/>
    <path id="_Path_249-3" data-name=" Path 249" class="cls-4" d="M185.67,100.647a10.84,10.84,0,0,0-10.58,11.07,11.14,11.14,0,0,0,5.69,9.81,10.1,10.1,0,0,0,8.23.69,11,11,0,0,0,7.25-10.5A10.84,10.84,0,0,0,185.67,100.647Z"/>
    <path id="_Path_247-3" data-name=" Path 247" class="cls-2" d="M215.37,143.077a14.54,14.54,0,0,0-28.58,0"/>
    <path id="_Path_250-3" data-name=" Path 250" class="cls-2" d="M201.08,114.367a8.25,8.25,0,0,0-8.08,8.41,8.48,8.48,0,0,0,4.33,7.47,7.69,7.69,0,0,0,6.27.53,8.4,8.4,0,0,0,5.52-8A8.25,8.25,0,0,0,201.08,114.367Z"/>
    <line id="_Path_252-3" data-name=" Path 252" class="cls-4" x1="163" y1="143.087" x2="237" y2="143.087"/>
  </g>
  <g id="life_default">
    <path id="_Path_246-7" data-name=" Path 246" class="cls-18" d="M177.1,38.207c-3.28,1.84-5.63,4.88-7.88,8-2,2.77-2.11,6.72-2.19,10.1-.05,2.25,0,4.51-.12,6.76h19.88a14.54,14.54,0,0,1,28.58,0h17.88c-.1-2.25-.07-4.51-.12-6.76-.08-3.38-.53-10.72-2.19-13.71a20.07,20.07,0,0,0-8-8.08"/>
    <path id="_Path_246-8" data-name=" Path 246" class="cls-7" d="M177.1,38.207c-3.28,1.84-5.63,4.88-7.88,8-2,2.77-2.11,6.72-2.19,10.1-.05,2.25,0,4.51-.12,6.76h66.34c-.1-2.25-.07-4.51-.12-6.76-.08-3.38-.53-10.72-2.19-13.71a20.07,20.07,0,0,0-8-8.08"/>
    <path id="_Path_248-4" data-name=" Path 248" class="cls-5" d="M213.67,17.007a10.84,10.84,0,0,0-10.58,11.07,11.14,11.14,0,0,0,5.69,9.81,10.1,10.1,0,0,0,8.23.69,11,11,0,0,0,7.25-10.5A10.84,10.84,0,0,0,213.67,17.007Z"/>
    <path id="_Path_249-4" data-name=" Path 249" class="cls-5" d="M185.67,20.647a10.84,10.84,0,0,0-10.58,11.07,11.14,11.14,0,0,0,5.69,9.81,10.1,10.1,0,0,0,8.23.69,11,11,0,0,0,7.25-10.5A10.84,10.84,0,0,0,185.67,20.647Z"/>
    <path id="_Path_247-4" data-name=" Path 247" class="cls-2" d="M215.37,63.077a14.54,14.54,0,0,0-28.58,0"/>
    <path id="_Path_250-4" data-name=" Path 250" class="cls-2" d="M201.08,34.367a8.25,8.25,0,0,0-8.08,8.41,8.48,8.48,0,0,0,4.33,7.47,7.69,7.69,0,0,0,6.27.53,8.4,8.4,0,0,0,5.52-8A8.25,8.25,0,0,0,201.08,34.367Z"/>
    <line id="_Path_252-4" data-name=" Path 252" class="cls-5" x1="163" y1="63.087" x2="237" y2="63.087"/>
  </g>
  <g id="homeowners_selected">
    <path id="_Path_263" data-name=" Path 263" class="cls-1" d="M132.665,259.009l-3.22,3.22-12.46-12.5a1.49,1.49,0,0,0-2.107-.043l-.043.043-13,13.46v-4.35a1.51,1.51,0,0,0-1.51-1.51h-3a1.52,1.52,0,0,0-1.51,1.51v10.58l-11.83,11.74a3.16,3.16,0,0,0-.33,4.2,3,3,0,0,0,4.52.23l5.53-5.53v29.17a1.51,1.51,0,0,0,1.49,1.5h27.55v-22.71a1.83,1.83,0,0,1,1.83-1.83h9.69a1.83,1.83,0,0,1,1.83,1.83h0v22.71h8.58a1.51,1.51,0,0,0,1.51-1.51v-29.23h0l5.64,4.74a3,3,0,0,0,4.52-.23,3.16,3.16,0,0,0-.33-4.2l-21.27-21.22a1.51,1.51,0,0,0-2.06-.06h0Z"/>
    <rect id="_Path_264" data-name=" Path 264" class="cls-2" x="101.945" y="284.919" width="13.46" height="9.75" rx="1.83" ry="1.83"/>
  </g>
  <g id="homeowners_hover">
    <path id="_Path_263-2" data-name=" Path 263" class="cls-3" d="M132.665,179.009l-3.22,3.22-12.46-12.5a1.49,1.49,0,0,0-2.107-.043l-.043.043-13,13.46v-4.35a1.51,1.51,0,0,0-1.51-1.51h-3a1.52,1.52,0,0,0-1.51,1.51v10.58l-11.83,11.74a3.16,3.16,0,0,0-.33,4.2,3,3,0,0,0,4.52.23l5.53-5.53v29.17a1.51,1.51,0,0,0,1.49,1.5h27.55v-22.71a1.83,1.83,0,0,1,1.83-1.83h9.69a1.83,1.83,0,0,1,1.83,1.83h0v22.71h8.58a1.51,1.51,0,0,0,1.51-1.51v-29.23h0l5.64,4.74a3,3,0,0,0,4.52-.23,3.16,3.16,0,0,0-.33-4.2l-21.27-21.22a1.51,1.51,0,0,0-2.06-.06h0Z"/>
    <rect id="_Path_264-2" data-name=" Path 264" class="cls-2" x="101.945" y="204.919" width="13.46" height="9.75" rx="1.83" ry="1.83"/>
  </g>
  <g id="homeowners_active">
    <path id="_Path_263-3" data-name=" Path 263" class="cls-4" d="M132.665,99.009l-3.22,3.22-12.46-12.5a1.49,1.49,0,0,0-2.107-.043l-.043.043-13,13.46v-4.35a1.51,1.51,0,0,0-1.51-1.51h-3a1.52,1.52,0,0,0-1.51,1.51v10.58l-11.83,11.74a3.16,3.16,0,0,0-.33,4.2,3,3,0,0,0,4.52.23l5.53-5.53v29.17a1.51,1.51,0,0,0,1.49,1.5h27.55v-22.71a1.83,1.83,0,0,1,1.83-1.83h9.69a1.83,1.83,0,0,1,1.83,1.83h0v22.71h8.58a1.51,1.51,0,0,0,1.51-1.51v-29.23h0l5.64,4.74a3,3,0,0,0,4.52-.23,3.16,3.16,0,0,0-.33-4.2l-21.27-21.22a1.51,1.51,0,0,0-2.06-.06h0Z"/>
    <rect id="_Path_264-3" data-name=" Path 264" class="cls-2" x="101.945" y="124.919" width="13.46" height="9.75" rx="1.83" ry="1.83"/>
  </g>
  <g id="homeowners_default">
    <path id="_Path_263-4" data-name=" Path 263" class="cls-5" d="M132.665,19.009l-3.22,3.22-12.46-12.5a1.49,1.49,0,0,0-2.107-.043l-.043.043-13,13.46v-4.35a1.51,1.51,0,0,0-1.51-1.51h-3a1.52,1.52,0,0,0-1.51,1.51v10.58l-11.83,11.74a3.16,3.16,0,0,0-.33,4.2,3,3,0,0,0,4.52.23l5.53-5.53v29.17a1.51,1.51,0,0,0,1.49,1.5h27.55V48.019a1.83,1.83,0,0,1,1.83-1.83h9.69a1.83,1.83,0,0,1,1.83,1.83h0v22.71h8.58a1.51,1.51,0,0,0,1.51-1.51V39.989h0l5.64,4.74a3,3,0,0,0,4.52-.23,3.16,3.16,0,0,0-.33-4.2l-21.27-21.22a1.51,1.51,0,0,0-2.06-.06h0Z"/>
    <rect id="_Path_264-4" data-name=" Path 264" class="cls-2" x="101.945" y="44.919" width="13.46" height="9.75" rx="1.83" ry="1.83"/>
  </g>
  <g id="auto_selected">
    <path id="_Compound_Path_18" data-name=" Compound Path 18" class="cls-1" d="M75.15,273.23H72.07S77,278.01,77,283.71v22.82a1.86,1.86,0,0,1-1.85,1.85H66.52a1.85,1.85,0,0,1-1.85-1.85v-5.52H15.33v5.55a1.86,1.86,0,0,1-1.85,1.85H4.85A1.86,1.86,0,0,1,3,306.54V283.71c0-5.7,4.93-10.48,4.93-10.48H4.85A1.86,1.86,0,0,1,3,271.38v-2.47a1.86,1.86,0,0,1,1.82-1.9H10.4l5.09-12.12c1-2.06,2.34-3.3,5.39-3.3H59.12c3.08,0,4.43,1.24,5.41,3.3l5.07,12.12h5.55A1.86,1.86,0,0,1,77,268.88v2.5A1.94,1.94,0,0,1,75.15,273.23Zm-9.25-1.85L60,257.19a1.06,1.06,0,0,0-.92-.62H20.88a1.06,1.06,0,0,0-.92.62L14.1,271.38Z"/>
    <rect id="_Rectangle_16" data-name=" Rectangle 16" class="cls-2" x="10.66" y="284.62" width="14.03" height="6.38" rx="2.5" ry="2.5"/>
    <rect id="_Rectangle_17" data-name=" Rectangle 17" class="cls-2" x="55.31" y="284.62" width="14.03" height="6.38" rx="2.5" ry="2.5"/>
  </g>
  <g id="auto_hover">
    <path id="_Compound_Path_18-2" data-name=" Compound Path 18" class="cls-3" d="M75.15,193.23H72.07S77,198.01,77,203.71v22.82a1.86,1.86,0,0,1-1.85,1.85H66.52a1.85,1.85,0,0,1-1.85-1.85v-5.52H15.33v5.55a1.86,1.86,0,0,1-1.85,1.85H4.85A1.86,1.86,0,0,1,3,226.54V203.71c0-5.7,4.93-10.48,4.93-10.48H4.85A1.86,1.86,0,0,1,3,191.38v-2.47a1.86,1.86,0,0,1,1.82-1.9H10.4l5.09-12.12c1-2.06,2.34-3.3,5.39-3.3H59.12c3.08,0,4.43,1.24,5.41,3.3l5.07,12.12h5.55A1.86,1.86,0,0,1,77,188.88v2.5A1.94,1.94,0,0,1,75.15,193.23Zm-9.25-1.85L60,177.19a1.06,1.06,0,0,0-.92-.62H20.88a1.06,1.06,0,0,0-.92.62L14.1,191.38Z"/>
    <rect id="_Rectangle_16-2" data-name=" Rectangle 16" class="cls-2" x="10.66" y="204.62" width="14.03" height="6.38" rx="2.5" ry="2.5"/>
    <rect id="_Rectangle_17-2" data-name=" Rectangle 17" class="cls-2" x="55.31" y="204.62" width="14.03" height="6.38" rx="2.5" ry="2.5"/>
  </g>
  <g id="auto_active">
    <path id="_Compound_Path_18-3" data-name=" Compound Path 18" class="cls-4" d="M75.15,113.23H72.07S77,118.01,77,123.71v22.82a1.86,1.86,0,0,1-1.85,1.85H66.52a1.85,1.85,0,0,1-1.85-1.85v-5.52H15.33v5.55a1.86,1.86,0,0,1-1.85,1.85H4.85A1.86,1.86,0,0,1,3,146.54V123.71c0-5.7,4.93-10.48,4.93-10.48H4.85A1.86,1.86,0,0,1,3,111.38v-2.47a1.86,1.86,0,0,1,1.82-1.9H10.4l5.09-12.12c1-2.06,2.34-3.3,5.39-3.3H59.12c3.08,0,4.43,1.24,5.41,3.3l5.07,12.12h5.55A1.86,1.86,0,0,1,77,108.88v2.5A1.94,1.94,0,0,1,75.15,113.23Zm-9.25-1.85L60,97.19a1.06,1.06,0,0,0-.92-.62H20.88a1.06,1.06,0,0,0-.92.62L14.1,111.38Z"/>
    <rect id="_Rectangle_16-3" data-name=" Rectangle 16" class="cls-2" x="10.66" y="124.62" width="14.03" height="6.38" rx="2.5" ry="2.5"/>
    <rect id="_Rectangle_17-3" data-name=" Rectangle 17" class="cls-2" x="55.31" y="124.62" width="14.03" height="6.38" rx="2.5" ry="2.5"/>
  </g>
  <g id="auto_default">
    <path id="_Compound_Path_18-4" data-name=" Compound Path 18" class="cls-5" d="M75.15,33.23H72.07S77,38.01,77,43.71V66.53a1.86,1.86,0,0,1-1.85,1.85H66.52a1.85,1.85,0,0,1-1.85-1.85V61.01H15.33v5.55a1.86,1.86,0,0,1-1.85,1.85H4.85A1.86,1.86,0,0,1,3,66.54V43.71c0-5.7,4.93-10.48,4.93-10.48H4.85A1.86,1.86,0,0,1,3,31.38V28.91a1.86,1.86,0,0,1,1.82-1.9H10.4l5.09-12.12c1-2.06,2.34-3.3,5.39-3.3H59.12c3.08,0,4.43,1.24,5.41,3.3L69.6,27.01h5.55A1.86,1.86,0,0,1,77,28.88v2.5A1.94,1.94,0,0,1,75.15,33.23ZM65.9,31.38,60,17.19a1.06,1.06,0,0,0-.92-.62H20.88a1.06,1.06,0,0,0-.92.62L14.1,31.38Z"/>
    <rect id="_Rectangle_16-4" data-name=" Rectangle 16" class="cls-2" x="10.66" y="44.62" width="14.03" height="6.38" rx="2.5" ry="2.5"/>
    <rect id="_Rectangle_17-4" data-name=" Rectangle 17" class="cls-2" x="55.31" y="44.62" width="14.03" height="6.38" rx="2.5" ry="2.5"/>
  </g>
</svg>