<?xml version="1.0" encoding="UTF-8"?>
<svg width="41px" height="42px" viewBox="0 0 41 42" version="1.1" xmlns="http://www.w3.org/2000/svg" xmlns:xlink="http://www.w3.org/1999/xlink">
    <!-- Generator: Sketch 52.6 (67491) - http://www.bohemiancoding.com/sketch -->
    <title>Fill 1</title>
    <desc>Created with Sketch.</desc>
    <g id="Page-1" stroke="none" stroke-width="1" fill="none" fill-rule="evenodd">
        <g id="airline-home" transform="translate(-1096.000000, -479.000000)" fill="#FFFFFF">
            <path d="M1114.19375,510.565217 C1107.01875,510.565217 1101.125,504.828696 1101.125,497.521739 C1101.125,490.217391 1107.01875,484.217391 1114.19375,484.217391 C1121.36875,484.217391 1127.2625,490.217391 1127.2625,497.521739 C1127.2625,504.828696 1121.36875,510.565217 1114.19375,510.565217 Z M1128.54375,508.478261 C1130.85,505.347826 1132.13125,501.698261 1132.13125,497.521739 C1132.13125,487.350435 1124.1875,479 1114.19375,479 C1104.2,479 1096,487.350435 1096,497.521739 C1096,507.695652 1104.2,516.046087 1114.19375,516.046087 C1118.29375,516.046087 1122.1375,514.741739 1124.95625,512.391304 L1132.64375,520.217391 C1133.15625,520.73913 1133.925,521 1134.4375,521 C1134.95,521 1135.71875,520.73913 1136.23125,520.217391 C1137.25625,519.176522 1137.25625,517.608696 1136.23125,516.567826 L1128.54375,508.478261 Z" id="Fill-1"></path>
        </g>
    </g>
</svg>