<?xml version="1.0" encoding="UTF-8"?>
<svg width="22px" height="23px" viewBox="0 0 22 23" version="1.1" xmlns="http://www.w3.org/2000/svg" xmlns:xlink="http://www.w3.org/1999/xlink">
    <!-- Generator: Sketch 52.3 (67297) - http://www.bohemiancoding.com/sketch -->
    <title>Group 5</title>
    <desc>Created with Sketch.</desc>
    <g id="Page-1" stroke="none" stroke-width="1" fill="none" fill-rule="evenodd">
        <g id="Security-Assesment---Suspicious" transform="translate(-578.000000, -427.000000)" fill="#D80516">
            <g id="Group-5" transform="translate(578.000000, 427.000000)">
                <path d="M11,13 L5,13 L5,11 L10,11 L10,6 L12,6 L12,12 C12,12.553 11.552,13 11,13" id="Fill-1"></path>
                <path d="M20,12 C20,16.963 15.963,21 11,21 C6.037,21 2,16.963 2,12 C2,7.037 6.037,3 11,3 C12.989,3 14.873,3.65 16.43,4.833 L12.826,8.226 L21.993,9.209 L21.562,0 L17.907,3.442 C15.957,1.862 13.545,1 11,1 C4.935,1 0,5.935 0,12 C0,18.065 4.935,23 11,23 C17.065,23 22,18.065 22,12 L20,12 Z" id="Fill-3"></path>
            </g>
        </g>
    </g>
</svg>