<?xml version="1.0" encoding="UTF-8"?>
<svg width="24px" height="23px" viewBox="0 0 24 23" version="1.1" xmlns="http://www.w3.org/2000/svg" xmlns:xlink="http://www.w3.org/1999/xlink">
    <!-- Generator: Sketch 52.3 (67297) - http://www.bohemiancoding.com/sketch -->
    <title>Group 8</title>
    <desc>Created with Sketch.</desc>
    <g id="Page-1" stroke="none" stroke-width="1" fill="none" fill-rule="evenodd">
        <g id="Security-Assesment---Suspicious" transform="translate(-992.000000, -425.000000)">
            <g id="Group-8" transform="translate(992.000000, 425.000000)">
                <path d="M9,12 C6.239,12 4,8.761 4,6 L4,5 C4,2.239 6.239,0 9,0 C11.761,0 14,2.239 14,5 L14,6 C14,8.761 11.761,12 9,12 Z M11.6618076,20 C11.6618076,20.695 11.7638484,21.366 11.9475219,22 L0,22 L0,18.032 C0,16.749 0.787172012,15.604 1.96890185,15.193 C3.5675413,14.638 6.00194363,14 8.74635569,14 C10.7269193,14 12.5403304,14.333 14,14.727 C12.5694849,16.01 11.6618076,17.894 11.6618076,20 Z M17,23.0001 L13.586,19.5861 L15,18.1721 L17,20.1721 L22,15.1721 L23.414,16.5861 L17,23.0001 Z" id="Combined-Shape" fill="#D80516"></path>
                <g id="Group-7" transform="translate(13.000000, 15.000000)"></g>
            </g>
        </g>
    </g>
</svg>