<?xml version="1.0" encoding="UTF-8"?>
<svg width="22px" height="26px" viewBox="0 0 22 26" version="1.1" xmlns="http://www.w3.org/2000/svg" xmlns:xlink="http://www.w3.org/1999/xlink">
    <!-- Generator: Sketch 52.3 (67297) - http://www.bohemiancoding.com/sketch -->
    <title>Combined Shape</title>
    <desc>Created with Sketch.</desc>
    <g id="Page-1" stroke="none" stroke-width="1" fill="none" fill-rule="evenodd">
        <g id="Security-Assesment---Suspicious" transform="translate(-168.000000, -423.000000)" fill="#D80516">
            <path d="M187,444.666667 L183,444.666667 C182.448,444.666667 182,444.181333 182,443.583333 L182,434.916667 C182,434.318667 182.448,433.833333 183,433.833333 L187,433.833333 C187.552,433.833333 188,434.318667 188,434.916667 L188,443.583333 C188,444.181333 187.552,444.666667 187,444.666667 M188,431.666667 C189.103,431.666667 190,432.638417 190,433.833333 L190,446.833333 C190,448.02825 189.103,449 188,449 L182,449 C180.897,449 180,448.02825 180,446.833333 L180,433.833333 C180,432.638417 180.897,431.666667 182,431.666667 L188,431.666667 Z M178,441.416667 L178,446.833333 L170,446.833333 C168.895,446.833333 168,445.86375 168,444.666667 L168,425.166667 C168,423.969583 168.895,423 170,423 L184,423 C185.105,423 186,423.969583 186,425.166667 L186,429.5 L184,429.5 L184,426.25 C184,425.652 183.552,425.166667 183,425.166667 L171,425.166667 C170.448,425.166667 170,425.652 170,426.25 L170,440.333333 C170,440.931333 170.448,441.416667 171,441.416667 L178,441.416667 Z" id="Combined-Shape"></path>
        </g>
    </g>
</svg>