<?xml version="1.0" encoding="UTF-8"?>
<svg width="16px" height="17px" viewBox="0 0 16 17" version="1.1" xmlns="http://www.w3.org/2000/svg" xmlns:xlink="http://www.w3.org/1999/xlink">
    <!-- Generator: Sketch 52.6 (67491) - http://www.bohemiancoding.com/sketch -->
    <title>Group 3</title>
    <desc>Created with Sketch.</desc>
    <defs>
        <polygon id="path-1" points="0.0001 0 16 0 16 16.0996 0.0001 16.0996"></polygon>
    </defs>
    <g id="Page-1" stroke="none" stroke-width="1" fill="none" fill-rule="evenodd">
        <g id="ecommerce-home" transform="translate(-879.000000, -63.000000)">
            <g id="Group-3" transform="translate(879.000000, 63.000000)">
                <mask id="mask-2" fill="white">
                    <use xlink:href="#path-1"></use>
                </mask>
                <g id="Clip-2"></g>
                <path d="M7.1001,12.0996 C4.3001,12.0996 2.0001,9.9006 2.0001,7.0996 C2.0001,4.2996 4.3001,1.9996 7.1001,1.9996 C9.9001,1.9996 12.2001,4.2996 12.2001,7.0996 C12.2001,9.9006 9.9001,12.0996 7.1001,12.0996 Z M12.7001,11.2996 C13.6001,10.0996 14.1001,8.7006 14.1001,7.0996 C14.1001,3.2006 11.0001,-0.0004 7.1001,-0.0004 C3.2001,-0.0004 0.0001,3.2006 0.0001,7.0996 C0.0001,10.9996 3.2001,14.2006 7.1001,14.2006 C8.7001,14.2006 10.2001,13.7006 11.3001,12.7996 L14.3001,15.7996 C14.5001,15.9996 14.8001,16.0996 15.0001,16.0996 C15.2001,16.0996 15.5001,15.9996 15.7001,15.7996 C16.1001,15.4006 16.1001,14.7996 15.7001,14.4006 L12.7001,11.2996 Z" id="Fill-1" fill="#444444" mask="url(#mask-2)"></path>
            </g>
        </g>
    </g>
</svg>